<svg xmlns="http://www.w3.org/2000/svg" xmlns:svg="http://www.w3.org/2000/svg" id="svg2" width="1026.787" height="323.531" version="1.1" viewBox="0 0 1026.787 323.531" xml:space="preserve"><metadata id="metadata8"/><g id="g10" transform="matrix(1.3333333,0,0,-1.3333333,-78.105707,3465.3364)"><g id="g12" transform="scale(0.1)"><path id="path20" style="fill:#7d55c7;fill-opacity:1;fill-rule:nonzero;stroke:none;stroke-width:1.59448" d="m 7722.5657,24035.829 c -1.2437,-1.754 -2.7266,-2.87 -4.4646,-3.986 -173.033,-149.403 -398.4286,-239.969 -644.6004,-239.969 -544.0127,0 -986.5367,441.99 -986.5367,984.91 0,543.08 442.524,984.91 986.5367,984.91 543.9409,0 986.4729,-441.83 986.4729,-984.91 0,-295.138 -130.7793,-560.3 -337.4079,-740.955 z m -649.065,1954.195 c -668.9944,0 -1213.259,-544.196 -1213.259,-1213.24 0,-668.884 544.2646,-1213.24 1213.259,-1213.24 668.9162,0 1213.192,544.356 1213.192,1213.24 0,669.044 -544.2758,1213.24 -1213.192,1213.24"/><path id="path24" style="fill:#7d55c7;fill-opacity:1;fill-rule:nonzero;stroke:none;stroke-width:1.55208" d="m 7685.4189,25006.803 c -1.2416,-1.242 -30.0172,-29.49 -73.1185,-54.013 7.2017,-9.623 21.1859,-22.039 43.8463,-22.039 7.7759,0 14.0618,-6.209 14.0618,-14.124 0,-7.605 -6.2859,-13.969 -14.0618,-13.969 -55.4248,0 -75.6794,48.114 -76.5175,50.132 -2.7162,6.674 0.078,14.435 6.6273,17.849 46.5624,23.902 78.9854,55.72 79.4045,56.185 5.4478,5.433 14.3877,5.277 19.9287,-0.155 5.4633,-5.587 5.3857,-14.434 -0.1708,-19.866 z m 41.5337,-159.089 c -13.2393,45.166 -28.2013,96.385 -23.0794,139.067 3.6473,30.11 15.2259,36.939 26.7268,41.595 1.0554,0.466 2.5609,1.087 2.9645,1.397 0,0 2.0642,2.794 2.0642,15.832 0,39.733 -18.0196,127.27 -27.8598,171.039 -29.7844,-22.661 -60.8105,-28.714 -62.3781,-29.024 -0.8226,0 -1.7383,-0.155 -2.5609,-0.155 -4.5476,0 -8.94,2.173 -11.6717,6.053 -3.1352,4.501 -3.2128,10.554 -0.3259,15.365 1.164,1.863 27.1303,46.718 -14.0619,90.021 -20.9996,-30.886 -35.822,-44.389 -125.8116,-80.708 45.088,-47.183 58.7307,-101.041 67.1585,-150.862 1.5055,-8.692 2.3281,-17.228 2.8248,-25.61 34.8287,32.904 79.9787,52.771 122.4281,27.627 6.6894,-4.035 8.8468,-12.727 4.9511,-19.401 -3.9733,-6.674 -12.665,-8.846 -19.3544,-4.811 -46.8108,27.627 -97.1913,-31.042 -109.1888,-46.562 -8.8469,-75.897 -51.11,-138.912 -84.0297,-187.957 -9.359,-13.814 -18.1127,-27.007 -25.392,-39.113 5.2926,-12.416 9.0176,-19.09 9.0176,-19.246 27.4563,-48.89 82.2137,-146.826 36.8774,-295.671 l 95.7944,-5.898 c 7.8535,0 32.4229,2.794 41.4405,17.694 4.5476,7.45 2.4834,13.193 -4.7183,28.248 -5.2926,10.864 -11.8268,24.678 -11.8268,41.44 0,24.058 17.7868,35.698 30.7777,44.235 10.7404,6.829 15.4587,10.554 15.4587,15.52 0,8.071 -5.0442,16.918 -12.8202,22.35 -12.9909,9.158 -31.026,8.382 -50.7064,-2.172 -6.9378,-3.725 -15.4742,-1.087 -19.1061,5.742 -3.725,6.829 -1.071,15.366 5.7892,19.091 25.8887,13.813 51.6998,15.365 72.4667,4.966 6.0375,3.57 11.6561,7.45 14.2325,10.244 -2.2505,11.02 0,31.973 6.5188,62.239 h -24.8954 c -7.7759,0 -14.1394,6.363 -14.1394,14.124 0,7.76 6.3635,13.968 14.1394,13.968 h 71.5509 c 11.3302,0 14.0618,3.725 14.8844,4.812 9.8402,13.037 -2.8868,56.34 -14.1394,94.521"/><path id="path28" style="fill:#7d55c7;fill-opacity:1;fill-rule:nonzero;stroke:none;stroke-width:1.50605" d="m 7511.4,24092.884 c -92.5618,28.314 -182.8043,79.52 -185.8616,171.389 v 242.775 c 10.2713,13.404 19.6991,27.26 28.133,41.567 0.1657,-48.043 2.0633,-86.146 17.8618,-128.466 9.2622,-24.699 23.3287,-50.603 43.7658,-80.875 -16.1298,-47.29 -24.398,-93.977 -24.398,-138.858 0,-7.831 6.2651,-14.157 14.0514,-14.157 7.7712,0 14.1418,6.326 14.1418,14.157 0,35.543 5.6326,72.441 16.6268,109.942 7.6056,-10.542 16.0394,-21.687 25.7233,-33.736 59.3083,-75.603 64.2783,-144.58 49.9557,-183.738"/><path id="path32" style="fill:#7d55c7;fill-opacity:1;fill-rule:nonzero;stroke:none;stroke-width:1.51787" d="m 7457.7228,24431.18 c -6.5421,-16.545 -14.2377,-33.545 -23.0869,-50.393 -1.8973,-3.643 -3.7187,-7.286 -5.6161,-11.081 -14.0706,22.161 -24.1493,41.742 -31.1011,60.26 -14.9814,39.92 -16.135,75.59 -16.135,125.528 0,89.554 18.2903,125.831 51.5317,185.787 0.9107,-1.67 1.4875,-2.732 1.4875,-2.884 27.4735,-48.875 84.3784,-150.573 22.9199,-307.217"/><path id="path36" style="fill:#7d55c7;fill-opacity:1;fill-rule:nonzero;stroke:none;stroke-width:1.55657" d="m 7349.9326,25048.947 c -3.798,-6.849 -12.4837,-9.184 -19.1769,-5.292 -0.1712,0 -10.9271,6.07 -27.8003,11.985 -10.3357,3.58 -92.149,10.896 -140.4494,-23.504 -23.9089,-17.122 -35.5676,-41.093 -35.5676,-73.781 l 8.9347,-168.266 c 16.2195,-15.254 35.7389,-45.14 16.8733,-73.937 -2.6462,-4.202 -7.098,-6.382 -11.7522,-6.382 -2.3971,0 -4.872,0.623 -7.0979,2.024 l -0.1712,-0.467 c -0.1713,0 -1.1519,0.156 -2.9731,0.156 -4.0626,0 -12.2502,-0.934 -24.3136,-7.939 -14.2426,-8.094 -26.5551,-12.297 -38.3072,-12.297 -11.8299,0 -23.0684,4.359 -34.8205,12.608 -18.2897,10.43 -27.3022,7.161 -27.4579,7.161 v 0.155 c -1.9145,-0.934 -3.8914,-1.401 -5.7904,-1.401 -4.6386,0 -9.1059,2.18 -11.8299,6.382 -18.7878,28.797 0.6537,58.683 16.951,73.937 l 8.9347,169.2 c 0,31.754 -11.6587,55.725 -35.5676,72.847 -48.3938,34.4 -130.1137,27.084 -140.3715,23.504 -17.0382,-5.915 -27.7879,-11.985 -27.8688,-11.985 -6.7789,-3.892 -15.3914,-1.557 -19.1878,5.292 -3.8136,6.693 -1.4928,15.254 5.2892,19.146 0.4996,0.311 12.8199,7.316 32.2568,14.165 14.3983,4.981 106.9519,14.631 165.7591,-26.773 31.754,-22.415 47.8957,-55.103 47.8957,-97.13 l -9.3394,-175.737 c -0.1713,-4.047 -2.1481,-7.783 -5.3079,-10.273 -0.1557,-0.156 -20.251,-16.5 -18.6789,-32.688 9.2616,0.311 22.4146,-2.024 39.0388,-11.675 0.4203,-0.311 0.825,-0.622 1.2297,-0.934 11.1762,-8.094 20.1109,-12.297 43.1014,0.934 17.0444,9.807 30.3531,11.986 39.7081,11.675 1.65,16.188 -18.4454,32.532 -18.7722,32.688 -3.0665,2.49 -5.0589,6.382 -5.3079,10.273 l -9.1682,175.114 c -0.093,42.65 16.0482,75.338 47.8022,97.597 58.8072,41.56 151.2831,31.91 165.6813,26.929 19.426,-6.849 31.8319,-13.854 32.3456,-14.165 6.771,-3.892 9.0903,-12.453 5.2767,-19.146 z m -11.3162,-86.078 c -4.0627,-6.538 -12.6705,-8.873 -19.3638,-4.826 -42.183,25.372 -67.8197,16.967 -89.2537,3.892 -5.697,-3.425 -16.2039,-11.519 -26.306,-19.769 5.1367,-1.556 9.7752,-3.891 13.9936,-5.915 8.5144,-4.202 16.5307,-8.094 28.7809,-8.094 30.1975,0 46.6504,9.962 46.8995,10.118 6.5376,4.047 15.2077,2.179 19.3482,-4.358 4.1404,-6.538 2.3192,-15.099 -4.1405,-19.302 -2.3037,-1.556 -23.7377,-14.632 -62.1072,-14.632 -18.7722,0 -31.1936,6.071 -41.2024,10.896 -10.8337,5.448 -15.3011,7.628 -25.5589,2.802 -15.7057,-7.471 -22.8193,-1.868 -26.0414,4.203 -6.2885,11.674 2.9731,21.325 25.6367,40.626 11.3319,9.651 27.4579,22.259 36.1436,27.552 23.9867,14.476 62.2939,29.886 118.3616,-3.892 6.631,-4.047 8.779,-12.608 4.8098,-19.301 z m -158.3188,-382.45 c -0.5915,-0.155 -3.0664,-0.466 -7.3625,-0.466 -8.9347,0 -25.7301,1.4 -51.6159,9.183 -13.0752,3.892 -19.0213,2.179 -27.3801,-0.311 -6.1951,-1.712 -13.153,-3.736 -22.757,-3.736 -9.4951,0 -16.453,2.024 -22.6481,3.736 -8.3588,2.49 -14.3983,4.203 -27.3801,0.311 -38.634,-11.518 -57.0794,-9.028 -59.0562,-8.717 -7.7051,1.246 -12.904,8.562 -11.5965,16.189 1.1674,7.783 8.4522,12.919 16.1416,11.674 0.078,0 14.6318,-1.712 46.4014,7.783 21.0137,6.226 33.4196,2.646 43.2571,-0.156 5.2923,-1.556 9.4328,-2.802 14.8808,-2.802 5.4635,0 9.604,1.246 14.8964,2.802 9.9309,2.802 22.3367,6.382 43.3349,0.156 31.9408,-9.495 46.4947,-7.783 46.6504,-7.783 7.5338,0.934 14.6629,-4.358 15.8147,-11.985 1.1519,-7.472 -3.9848,-14.632 -11.5809,-15.878 z m -33.5129,-34.867 c -20.7491,-11.207 -47.3042,-16.811 -73.8593,-16.811 -26.6329,0 -53.188,5.604 -73.8592,16.811 -6.8645,3.736 -9.4328,12.297 -5.7126,19.146 3.8136,6.849 12.328,9.34 19.1147,5.604 32.7502,-17.745 88.0863,-17.745 120.9299,0 6.7866,3.736 15.3011,1.245 19.0991,-5.604 3.6424,-6.849 1.1674,-15.41 -5.7126,-19.146 z m -212.9855,365.327 c -9.9153,-4.825 -22.3368,-10.896 -41.109,-10.896 -38.4628,0 -59.8812,13.076 -62.2005,14.632 -6.4505,4.203 -8.3479,12.92 -4.1296,19.457 4.3008,6.538 12.8931,8.25 19.4306,4.203 0.576,-0.311 17.0445,-10.118 46.8995,-10.118 12.2346,0 20.2665,3.892 28.7032,8.094 4.2183,2.024 8.8568,4.359 13.978,5.915 -10.0088,8.25 -20.5156,16.344 -26.2283,19.769 -21.4962,13.075 -47.0551,21.48 -89.3222,-3.892 -6.6201,-4.047 -15.301,-1.712 -19.2687,4.826 -4.0518,6.693 -1.9022,15.254 4.7957,19.301 56.0864,33.778 94.4558,18.368 118.4426,3.892 8.5144,-5.293 24.6405,-17.901 36.0657,-27.552 23.0684,-19.768 31.8474,-28.952 25.6523,-40.626 -3.2377,-6.071 -10.3512,-11.674 -26.0726,-4.359 -10.3356,4.982 -14.7874,2.802 -25.6367,-2.646 z m 352.2985,321.899 c -36.9841,25.372 -72.5517,45.141 -103.9944,62.418 -48.6273,27.085 -87.168,48.565 -104.8662,76.895 -17.7137,-28.33 -56.3322,-49.81 -104.9595,-76.895 -31.3649,-17.277 -67.0103,-37.046 -103.9944,-62.418 -134.4036,-92.46 -164.1855,-132.775 -134.153,-260.414 19.4416,-82.187 19.6019,-147.096 0.9915,-198.152 0.9106,-1.712 1.8166,-3.268 2.7271,-4.825 l 4.0502,-7.471 c 25.5636,-46.075 44.7499,-80.786 53.5196,-134.021 0.2506,-0.623 0.5821,-1.09 0.7425,-1.712 32.2583,-94.795 139.4593,-228.349 277.3403,-228.349 1.4165,0 2.7395,-0.311 4.0626,-0.778 1.4009,0.467 2.724,0.778 4.1405,0.778 136.7291,0 244.0857,132.464 276.7581,226.792 8.5145,55.103 28.0339,90.437 54.0909,137.29 l 4.1404,7.471 c 0.7472,1.557 1.65,3.113 2.5684,4.825 -18.6166,51.056 -18.4454,115.965 0.9962,198.152 30.104,127.639 0.249,167.954 -134.1608,260.414"/><path id="path40" style="fill:#7d55c7;fill-opacity:1;fill-rule:nonzero;stroke:none;stroke-width:1.56801" d="m 7735.6444,25333.554 c 0,-32.772 -10.0195,-60.055 -29.7922,-81.067 -12.5597,-13.484 -27.2833,-22.422 -39.6236,-28.067 5.6449,28.067 1.082,66.013 -34.8098,99.569 5.2842,11.289 6.8522,18.345 7.0247,19.443 1.4112,7.683 -3.5594,14.896 -11.1642,16.464 -7.5265,1.411 -14.8804,-3.449 -16.4641,-11.133 -0.078,0 -2.7284,-12.387 -15.1313,-30.733 -19.1925,-28.538 -25.5586,-38.102 -123.5749,-77.146 -1.3171,-0.47 -2.4775,-1.254 -3.5594,-2.038 -24.2257,19.757 -55.4135,37.946 -95.7113,53.626 -79.9685,31.046 -90.6467,67.895 -85.1743,82.791 3.0576,7.056 -0.2509,15.366 -7.4481,18.345 -7.1971,3.136 -15.4762,-0.156 -18.4554,-7.369 -0.9095,-1.882 -7.8558,-19.6 2.2422,-43.748 12.6538,-30.106 45.8173,-55.664 98.6749,-76.362 131.6031,-51.117 154.935,-128.577 167.6673,-203.528 16.2916,-96.275 -35.9858,-173.892 -78.0085,-236.455 -4.5472,-6.586 -8.922,-13.172 -13.1556,-19.601 -9.4238,42.337 -6.6954,94.708 8.4516,159.31 35.2331,149.118 -11.9169,198.04 -145.5898,289.925 -38.0399,26.186 -74.2766,46.257 -106.2013,64.132 -57.248,31.674 -98.5965,54.567 -100.9171,85.3 -0.5018,7.84 -7.2756,13.641 -15.0529,13.014 -0.9095,0 -1.8189,-0.157 -2.6499,-0.47 -0.9095,0.313 -1.8189,0.47 -2.7284,0.47 -7.7616,0.627 -14.4727,-5.174 -15.1313,-13.014 -2.2422,-30.733 -43.5907,-53.626 -100.8387,-85.3 -31.909,-17.875 -68.1457,-37.946 -106.2013,-64.132 -133.5851,-91.885 -180.8151,-140.807 -145.5741,-289.925 15.2191,-64.445 17.949,-116.817 8.5206,-159.31 -4.3011,6.429 -8.6021,13.015 -13.2434,19.601 -42.007,62.563 -94.2876,140.18 -77.905,236.455 12.6475,74.951 36.0579,152.411 167.6594,203.528 52.7652,20.698 85.9442,46.256 98.5981,76.362 10.0823,24.148 3.136,41.866 2.305,43.748 -2.9793,7.056 -10.9918,10.192 -18.1106,7.369 -7.1187,-2.822 -10.584,-10.976 -7.9341,-18.189 5.5351,-15.052 -5.049,-51.901 -85.1194,-82.947 -128.2899,-50.02 -163.9417,-125.441 -179.821,-196.942 -57.3201,64.602 -53.0191,125.597 -38.7894,165.738 0,0.157 0,0.157 0.078,0.314 0.083,0.47 0.2509,0.941 0.3324,1.411 0.089,0.471 0.2493,0.941 0.2493,1.255 0.078,0.47 0,0.784 0.078,1.254 v 1.725 c -0.078,0 0,0.157 0,0.157 -0.078,0.313 -0.1599,0.627 -0.2383,0.784 -0.089,0.627 -0.089,1.097 -0.3387,1.568 -0.083,0.627 -0.243,0.94 -0.4108,1.411 -0.1725,0.47 -0.3324,0.784 -0.5002,1.254 -0.2415,0.314 -0.4924,0.784 -0.8201,1.098 -0.1725,0.47 -0.4218,0.784 -0.6601,1.097 -0.3403,0.314 -0.6727,0.784 -1.0004,1.098 -0.2493,0.314 -0.5817,0.627 -0.9094,0.784 -0.3325,0.47 -0.7386,0.627 -1.1604,0.941 -0.3277,0.313 -0.6601,0.47 -0.9878,0.784 -0.4924,0.157 -1.071,0.313 -1.5712,0.627 -0.2493,0.157 -0.5002,0.314 -0.7416,0.47 h -0.2509 c -0.577,0.157 -1.0772,0.314 -1.7374,0.471 -0.2508,0 -0.6601,0.157 -0.9925,0.157 -0.5002,0 -0.9879,0 -1.4881,0 h -1.6526 c -6.7895,-0.628 -14.3081,-1.098 -22.2579,-1.098 -37.8785,0 -77.6604,-24.304 -92.6396,-56.448 -7.6096,-16.778 -8.4312,-34.026 -2.4806,-50.49 -12.3215,2.509 -23.2395,6.899 -32.7511,13.328 -0.2493,0.157 -0.6601,0.47 -0.9988,0.784 -20.508,14.112 -32.8294,37.162 -32.8294,61.623 0,9.251 2.8099,91.101 100.1613,91.101 70.0697,0 91.898,14.269 128.1284,37.632 12.2383,7.997 26.1403,17.092 44.5785,27.284 35.8197,20.07 78.4209,20.697 107.9528,17.875 30.3473,-2.822 52.5189,-9.879 52.7683,-10.035 7.4386,-2.509 15.379,1.568 17.8674,8.937 2.3912,7.37 -1.6589,15.367 -8.9376,17.719 -0.7417,0.313 -13.0694,4.233 -32.011,7.683 58.7299,57.389 171.8853,108.35 292.3242,47.354 4.0454,-2.038 8.7651,-2.038 12.8106,0 129.1099,65.386 187.2674,6.899 249.7997,-76.519 40.1097,-53.312 60.1332,-79.028 60.384,-79.341 2.7284,-3.607 6.8679,-5.488 11.0859,-5.488 3.0576,0 6.0368,0.941 8.6867,2.979 6.1153,4.704 7.1972,13.642 2.3991,19.757 -0.1725,0.314 -16.3073,21.011 -48.4829,63.661 20.1176,-1.411 44.4217,-2.195 71.3915,-2.979 112.4107,-3.45 300.5091,-9.095 300.5091,-81.693"/><path id="path44" style="fill:#7d55c7;fill-opacity:1;fill-rule:nonzero;stroke:none;stroke-width:1.51787" d="m 6772.5077,24555.494 c 0,-49.938 -1.0777,-85.608 -16.047,-125.528 -6.9533,-18.518 -17.0426,-38.099 -31.1011,-60.26 -1.8215,3.795 -3.7188,7.438 -5.5402,11.081 -8.8507,16.848 -16.6329,33.848 -23.0808,50.545 -61.5405,156.492 -4.5521,258.19 22.7499,306.913 0.082,0.152 0.6602,1.366 1.5694,3.036 33.1716,-59.956 51.4498,-96.233 51.4498,-185.787"/><path id="path48" style="fill:#7d55c7;fill-opacity:1;fill-rule:nonzero;stroke:none;stroke-width:1.50617" d="m 6827.9277,24264.549 c -3.0575,-91.725 -92.8102,-143.086 -185.0405,-171.552 -13.9728,39.009 -9.0114,108.293 50.047,183.602 9.6711,12.049 18.1132,23.195 25.8007,33.738 11.4213,-38.407 17.1327,-75.309 16.961,-109.951 0,-7.832 6.1979,-14.158 14.0586,-14.158 0,0 0,0 0.081,0 7.6995,0 13.9803,6.176 14.0586,14.008 0.25,43.829 -8.18,90.37 -24.8081,138.869 20.508,30.424 34.4882,56.18 43.837,80.881 16.0558,42.926 17.6975,81.634 17.7879,130.585 8.1032,-13.556 17.1252,-27.111 27.1261,-40.516 l 0.09,-245.506"/><path id="path52" style="fill:#7d55c7;fill-opacity:1;fill-rule:nonzero;stroke:none;stroke-width:1.50163" d="m 7675.0147,24032.687 c -164.5937,-132.894 -373.8759,-212.48 -601.5079,-212.48 -227.3769,0 -436.3167,79.436 -600.9268,211.88 37.0632,3.303 103.4037,11.712 170.9816,31.684 135.9861,40.544 209.5059,109.619 212.5692,200.468 v 212.33 c 55.26,-59.615 130.6869,-106.916 217.376,-106.916 1.4115,0 2.7329,0.3 4.0544,0.751 1.3214,-0.451 2.7329,-0.751 4.1445,-0.751 84.782,0 151.6946,44.598 192.8843,81.989 7.9437,7.058 15.3767,14.716 22.7497,22.374 v -210.228 c 2.9732,-90.398 76.418,-159.473 212.4957,-200.017 64.1947,-18.921 127.2932,-27.48 165.1793,-31.084"/><path id="path56" style="fill:#7d55c7;fill-opacity:1;fill-rule:nonzero;stroke:none;stroke-width:1.57874" d="m 8031.8446,24776.903 c 0,-286.067 -126.3781,-542.928 -326.1519,-718.484 -20.7604,1.263 -91.8037,6.946 -167.078,26.681 16.7978,48.151 10.5144,125.352 -55.0033,208.867 -14.4771,18.313 -26.3966,34.259 -36.4058,48.625 4.0574,8.841 8.1937,17.208 12.4878,25.26 9.1883,17.84 17.382,35.679 24.2495,53.046 1.0735,2.841 1.9734,5.367 2.968,8.051 l 103.8969,-6.315 h 0.8209 c 6.7097,0 47.7254,1.263 66.0072,31.101 12.8193,21.155 3.8205,39.942 -3.3785,54.941 -4.7205,9.788 -9.1883,19.102 -9.1883,29.364 0,8.052 5.5414,12.472 18.1081,20.682 11.8248,7.735 28.2121,18.313 28.2121,38.994 0,10.894 -3.8047,21.787 -10.2618,30.944 8.4463,5.841 16.7978,13.103 19.608,21.471 1.7366,4.894 1.4998,9.946 -0.4894,14.524 -1.0894,6.789 2.968,32.206 8.1778,55.73 h 17.7924 c 16.8768,0 29.5225,5.367 37.5583,16.103 18.1081,24.154 5.8729,65.991 -9.6777,119.037 -12.5036,42.784 -26.7281,90.935 -22.1813,127.878 1.9103,16.103 4.7994,17.208 9.1883,18.787 14.3823,5.841 22.7496,14.84 22.7496,43.415 0,49.099 -24.1547,159.295 -32.3484,193.711 21.4235,25.418 32.3484,57.151 32.3484,94.251 0,99.934 -189.512,105.618 -327.8885,109.88 -38.4581,1.106 -71.8011,2.053 -93.051,5.052 -0.663,0.158 -1.3261,0.158 -1.9892,0.158 -51.0406,66.465 -122.3365,143.034 -267.4227,72.938 -142.434,67.886 -274.6108,-3.157 -333.4236,-71.359 -44.8283,3 -85.1099,-4.42 -116.7068,-21.944 -19.2732,-10.736 -33.5829,-20.05 -46.1529,-28.102 -35.1601,-22.892 -51.1211,-33.311 -112.8278,-33.311 -101.3204,0 -128.3721,-74.991 -128.3721,-119.195 0,-30.628 14.0587,-59.677 37.8803,-79.253 0,-0.158 -0.079,-0.316 -0.079,-0.474 -3.3122,-34.574 -10.6723,-88.725 -16.711,-100.881 -9.3398,-18.787 -13.8092,-25.891 -13.8897,-25.891 -1.8993,-3.316 -2.5718,-7.105 -1.7398,-10.736 3.5601,-15.314 17.2904,-41.047 45.4109,-41.521 h 0.9109 c 0.4089,0 0.6599,0 0.9883,0 0.4989,0.158 1.0814,0.158 1.5693,0.158 0.5004,0.158 1.0009,0.316 1.4887,0.316 0.2495,0.158 0.5826,0.316 0.9994,0.316 83.9542,31.417 110.5907,-3.947 120.6804,-17.209 l 1.5709,-2.052 c 6.4523,-8.367 8.8504,-26.523 5.1325,-32.996 -6.8723,-13.577 -27.8838,-24.312 -41.3599,-24.312 -3.9721,0 -8.3626,1.105 -12.4925,2.052 -8.0185,2.052 -18.0308,4.578 -26.7186,-2.21 -8.1905,-6.473 -9.1788,-17.051 -9.1788,-24.629 0,-24.786 12.6599,-38.363 21.9176,-43.415 2.4802,-2.526 9.7614,-11.525 9.7614,-29.364 0,-40.1 16.9604,-68.36 53.1877,-89.199 29.9408,-17.366 34.6518,-40.258 34.8207,-40.89 1.1604,-6.946 7.1122,-11.84 13.9024,-11.84 0.7373,0 1.5693,0 2.3081,0.158 7.6916,1.263 12.9094,8.525 11.5816,16.261 -0.2415,1.421 -6.5312,36.469 -48.472,60.623 -34.4892,19.735 -39.0391,43.889 -39.0391,64.887 0,34.89 -19.2701,50.677 -21.4219,52.414 -0.9962,0.789 -1.6561,1.105 -2.8086,1.736 -0.7499,0.316 -7.5322,4.105 -7.6222,18.472 0.4231,-0.158 0.7515,-0.158 1.001,-0.316 5.2935,-1.263 11.831,-2.842 19.2732,-2.842 22.4055,0 54.2582,15.156 66.1682,38.995 10.2618,17.682 4.3905,48.152 -7.769,63.623 l -1.2425,1.737 c -12.0789,15.945 -48.7199,64.255 -149.8792,27.786 -8.3595,1.105 -13.2378,9.472 -15.5506,14.998 2.4802,4.42 6.3702,11.682 11.6606,22.418 8.6783,17.366 15.3816,70.727 18.2802,97.566 16.5389,-7.262 35.3985,-10.893 56.3326,-10.893 5.4561,0 10.5002,3.157 12.8162,8.209 2.3128,5.052 1.4919,10.893 -2.0666,14.998 -12.9014,15.156 -15.8,30.628 -8.683,46.099 10.2491,22.103 40.3636,40.1 66.9922,40.1 1.5772,0 3.058,0.158 4.4678,0.158 -11.3274,-47.362 -7.6095,-111.775 54.1808,-178.397 3.7227,-4.105 7.3585,-8.052 10.8396,-11.999 -14.6491,-104.039 41.7688,-188.186 83.2928,-249.757 9.2577,-13.892 18.1097,-26.996 25.3861,-39.152 -5.2887,-12.472 -9.0967,-19.103 -9.0967,-19.261 -28.1221,-50.204 -85.1919,-152.19 -32.923,-308.012 -31.0965,6.473 -55.7501,15.787 -59.6401,17.208 -6.277,3 -43.4185,19.419 -81.2183,-0.473 -14.5591,-7.578 -24.5715,-0.158 -28.212,3.473 -5.1167,4.894 -9.0067,13.577 -5.3662,20.681 13.0704,26.207 16.1284,33.943 16.1284,49.888 0,18.314 -3.6405,30.628 -11.5816,38.364 -9.5198,9.472 -21.5909,9.314 -30.3592,9.157 -4.051,0 -8.6799,-0.158 -10.5081,0.789 -0.903,0.631 -3.3911,4.263 -3.2222,10.104 0.4089,8.683 6.7018,17.05 17.8698,24.155 7.8526,-0.948 16.6999,-1.106 26.8023,-0.316 32.8267,2.999 46.557,-7.736 47.3085,-8.368 2.6523,-2.368 6.1207,-3.631 9.5103,-3.631 3.6406,0 7.3601,1.579 10.0913,4.263 5.4609,5.841 5.2099,14.682 -0.3331,20.05 -2.1487,2.052 -22.3281,19.892 -68.9767,15.787 -24.2416,-2.052 -39.0502,3.316 -45.6604,6.789 l -3.7226,60.624 c 4.1331,-2.053 9.4298,-4.421 18.1097,-6.947 1.2425,-0.316 2.4802,-0.473 3.8916,-0.473 6.1208,0 11.7411,3.946 13.4793,10.261 2.1534,7.42 -2.2292,15.156 -9.6793,17.366 -6.8596,1.895 -10.5775,3.632 -14.4691,5.526 -5.7924,3 -10.8397,5.052 -19.0302,6.631 -2.4817,1.579 -5.4608,2.526 -8.5204,2.21 -1.3198,0 -2.4802,-0.316 -3.6406,-0.631 -6.3592,0.473 -14.0587,0.789 -23.899,0.789 -5.1324,0 -14.3902,0.631 -17.3708,5.21 -3.3075,5.052 -0.4989,16.103 1.3214,20.208 0.2494,0.789 0.4989,1.42 0.6599,2.052 0.4989,1.894 13.2377,48.941 13.2377,86.515 0,35.206 3.2222,79.726 3.3122,80.2 0.5794,7.736 -5.2098,14.524 -12.9914,14.998 -7.769,0.631 -14.5592,-5.21 -15.1291,-12.788 -0.09,-1.894 -3.4811,-46.099 -3.4811,-82.41 0,-31.101 -10.2618,-71.991 -11.91,-78.306 -2.3192,-5.841 -10.0898,-28.259 1.4098,-45.941 7.7705,-11.84 21.5829,-17.998 40.9414,-17.998 5.9582,0 10.9186,0 15.1417,-0.315 l 4.6289,-75.464 c 0.2494,-3.789 1.8976,-7.262 4.711,-9.788 0.9093,-0.79 4.7188,-3.947 11.4995,-7.262 -10.9991,-12.63 -13.2298,-25.418 -13.3198,-33.312 -0.082,-14.682 6.7886,-28.101 17.5382,-34.259 8.5205,-4.736 17.5398,-4.578 24.8099,-4.578 3.5616,0.158 9.0193,0.158 10.0897,-0.789 0.3395,-0.316 3.2301,-3.631 3.2301,-18.472 0,-9.314 -0.8288,-12.629 -13.1493,-37.258 -8.601,-17.05 -4.2215,-38.679 10.8412,-53.361 16.46,-16.261 39.8585,-19.419 61.0388,-8.21 27.2886,14.209 54.7618,0.474 55.8322,0 0.4989,-0.315 0.9883,-0.473 1.4051,-0.631 1.6529,-0.79 38.0507,-14.84 82.2239,-22.103 6.1208,-15.155 13.0704,-30.469 21.0067,-45.625 4.1331,-8.052 8.3515,-16.419 12.5715,-25.102 -10.0913,-14.524 -22.0013,-30.47 -36.5589,-48.783 -65.2619,-83.2 -71.5516,-160.558 -55.0901,-208.71 -88.7505,-23.365 -172.1284,-27.154 -173.9487,-27.154 0,0 0,0 -0.082,0 -200.0091,175.556 -326.5593,432.575 -326.5593,718.8 0,527.457 429.9494,956.559 958.4121,956.559 528.3885,0 958.3425,-429.102 958.3425,-956.559"/><path id="path60" style="fill:#7d55c7;fill-opacity:1;fill-rule:nonzero;stroke:none;stroke-width:1.51101" d="m 1940.3502,24402.66 c -37.6997,0 -76.1549,-14.354 -105.0001,-33.695 -40.8124,-29.465 -69.5971,-74.191 -69.5971,-140.826 0,-86.883 42.3989,-180.415 159.3662,-180.415 33.6351,0 71.3348,16.017 92.9725,31.127 49.5913,32.789 74.4172,89.452 74.4172,154.274 0,94.589 -55.998,169.535 -152.1587,169.535 m -27.2435,-32.789 c 68.1163,0 111.4219,-65.88 111.4219,-163.642 0,-51.525 -8.8545,-85.221 -30.5073,-106.375 -13.6293,-13.448 -32.0334,-17.679 -48.8812,-17.679 -64.1424,0 -111.3917,67.542 -111.3917,167.118 0,64.067 20.0209,94.438 40.888,108.793 10.4259,7.555 25.6418,11.785 38.4703,11.785 m 229.1447,-290.113 c -3.9891,-3.476 -3.2034,-21.155 0,-24.479 16.8024,0 46.4635,2.418 80.8843,2.418 46.4183,0 76.8349,-2.418 96.0851,-2.418 3.1581,2.569 4.7597,21.003 2.3874,24.479 -23.2393,2.417 -31.2628,4.079 -42.4593,6.648 -16.8478,4.231 -22.4385,12.692 -23.2243,31.278 -2.4025,45.481 -2.4025,142.488 -3.2033,224.385 0,2.418 3.2033,7.555 4.805,7.555 20.036,0 55.303,-0.907 79.2827,-0.907 0.8311,12.542 4.8352,34.602 7.268,44.726 -11.2571,-0.906 -31.2477,-2.568 -85.765,-2.568 -2.3874,0 -4.7899,4.23 -4.7899,5.892 0,4.231 -0.8008,13.448 -0.8008,19.341 0.8008,63.312 2.3723,124.054 24.841,149.439 10.3958,11.786 20.8066,15.11 32.8494,15.11 23.2091,0 48.8811,-18.585 66.4693,-35.357 2.4176,-0.907 7.2075,-0.907 8.779,0.755 6.4369,4.987 24.841,38.078 27.2737,47.295 0.7706,1.662 0.7706,6.648 0,9.217 -8.7941,16.017 -32.0334,26.896 -58.4761,26.896 -20.8368,0 -51.2686,-11.786 -76.8953,-31.127 -65.6383,-49.712 -84.0726,-113.93 -84.8432,-202.475 0,-0.756 -1.5866,-4.986 -3.1882,-5.893 -6.4067,-4.231 -26.4578,-10.879 -39.2561,-13.448 -3.2335,-4.231 -8.0234,-16.772 -8.0234,-24.327 l 45.6929,-2.569 c 2.3723,0 4.7748,-5.893 4.7748,-7.555 -0.8311,-84.314 -0.8311,-181.321 -2.4025,-226.803 0,-15.261 -3.2034,-24.478 -16.0167,-29.615 z m 406.1443,475.666 c 31.2477,-3.476 48.8812,-7.707 64.082,-18.586 17.6183,-10.124 21.683,-28.709 21.683,-41.402 -1.6168,-177.09 -4.0647,-314.592 -7.268,-358.411 -1.6017,-32.94 -12.0276,-43.819 -30.4317,-49.712 -12.0126,-3.476 -24.8108,-6.044 -42.4594,-7.555 -2.4176,-2.569 -2.4176,-21.91 0,-24.479 16.8629,0 47.3097,2.418 96.1002,2.418 44.7864,0 80.8693,-2.418 100.1195,-2.418 2.4177,3.324 4.7899,21.003 1.5715,24.479 -20.0209,2.417 -36.0225,4.079 -48.035,8.31 -20.8671,5.138 -31.2477,16.923 -32.8494,50.619 -2.4176,47.295 -2.4176,244.632 -0.8159,331.516 0,0.755 2.4176,1.662 3.1882,0.755 48.0652,-63.16 268.4763,-353.274 310.9205,-417.341 9.6403,0.907 46.4183,0.907 55.1972,0 -0.7706,27.652 -1.6319,76.608 -1.6319,115.441 2.463,159.412 1.6319,267.298 6.4369,332.271 1.5866,22.817 6.3916,37.927 27.2133,45.633 10.426,3.324 20.852,5.893 35.2821,8.462 3.2034,3.324 3.2034,20.851 0,23.42 -10.4562,0 -57.7055,-2.417 -84.8583,-2.417 -48.851,0 -85.7196,2.417 -106.5564,2.417 -2.4176,-2.569 -3.2034,-20.096 0,-23.42 21.6679,-2.569 39.256,-5.893 53.7013,-10.124 24.025,-6.8 28.8149,-20.248 30.4166,-44.726 4.0646,-60.743 3.2487,-218.492 3.2487,-334.084 -0.7858,-0.756 -1.6168,-1.663 -3.2487,-0.756 -38.4099,47.144 -202.7171,258.081 -284.4476,366.118 -20.852,27.651 -25.6268,37.019 -28.8452,45.33 -6.4218,-0.907 -20.0209,-0.907 -36.0074,-0.907 -40.0115,0 -80.0684,2.569 -100.1044,2.569 -3.2033,-2.569 -3.9891,-21.003 -1.6017,-23.42 m 836.2836,-416.737 c -29.646,-25.385 -59.3222,-35.358 -91.3405,-35.358 -36.0376,0 -63.266,10.88 -87.3515,37.02 -19.2049,22.061 -31.2175,57.418 -32.804,86.128 0,4.23 1.5865,8.461 4.7899,9.217 67.3003,1.813 176.2291,8.461 209.9095,18.585 2.3723,1.662 7.2226,16.017 6.3915,19.341 -7.9932,2.569 -11.1965,5.893 -12.0125,9.217 -6.3916,47.295 -34.4057,119.823 -112.132,119.823 -25.657,0 -61.6795,-10.879 -86.5205,-27.802 -40.8275,-28.558 -70.3979,-78.422 -70.3979,-152.612 0,-48.05 12.768,-99.576 45.5569,-134.178 24.01,-26.14 56.0887,-40.344 97.7322,-40.344 36.8384,0 92.1262,21.003 127.363,63.16 1.6017,2.418 4.7899,16.924 4.0193,22.666 -0.8311,2.719 -2.4176,4.381 -3.2034,5.137 m -139.4058,232.091 c 43.2754,0 69.7332,-48.201 73.7071,-90.358 0,-3.476 -2.3874,-5.893 -3.9739,-7.706 -16.047,-3.325 -110.6211,-6.649 -136.2025,-4.987 -2.3874,0 -4.0344,4.231 -4.0344,5.893 4.0344,59.987 32.0939,97.158 70.5037,97.158 m 161.1342,-1.813 c 11.1965,-0.756 21.6225,-2.569 30.4317,-4.986 17.6335,-5.893 22.3932,-16.017 34.451,-50.619 19.205,-52.281 59.2769,-192.201 76.0794,-259.743 8.8092,1.662 29.6309,1.662 38.425,0 19.2351,60.592 64.1121,175.126 80.159,221.363 0.7555,1.813 3.1429,1.813 3.9589,0.907 10.426,-25.234 62.5256,-170.896 76.8953,-223.025 8.7941,1.662 29.6158,2.417 39.256,0.755 16.8931,52.281 75.339,221.816 93.7582,270.622 8.779,21.154 15.2159,32.184 36.778,38.833 7.2679,3.324 11.257,4.231 21.6225,5.893 3.2034,4.231 3.2034,20.247 0,24.478 -15.1856,-0.906 -36.7931,-2.568 -69.6122,-2.568 -26.4276,0 -60.0778,2.568 -71.2592,2.568 -3.2034,-3.475 -4.805,-18.585 -3.2034,-24.478 16.8025,-2.569 27.2435,-4.231 36.8838,-7.555 15.2007,-4.987 15.2007,-12.693 13.5991,-26.141 -7.2075,-34.602 -44.877,-151.856 -59.3072,-190.689 -0.7857,-1.662 -2.3723,0 -3.2335,0 -5.6663,14.354 -36.0527,98.518 -56.1038,160.016 -9.5949,28.709 -16.8025,50.77 -20.8369,68.449 -7.9932,-1.663 -29.646,-2.569 -39.1956,-0.907 -13.6746,-53.188 -56.1189,-170.291 -76.9557,-224.234 -0.7706,-1.662 -1.5866,-0.755 -3.2033,-0.755 -10.3958,31.278 -48.8359,166.211 -55.2275,199.151 -1.647,5.893 -0.831,12.541 7.9933,16.016 5.5605,1.663 20.8217,4.987 31.2477,6.649 2.3874,5.137 2.3874,21.91 -0.816,24.478 -15.231,-0.906 -53.6559,-2.568 -81.7154,-2.568 -39.1956,0 -66.4693,2.568 -79.2676,2.568 -3.2033,-3.475 -4.805,-19.341 -1.6016,-24.478 m 584.8062,186.459 c 16.8175,-2.569 27.1981,-3.476 36.8233,-5.893 28.83,-7.707 36.0527,-14.355 67.3155,-71.773 32.0636,-61.499 79.3129,-154.426 96.1153,-194.77 4.0344,-10.274 6.4067,-28.709 6.4067,-40.495 0,-36.264 0,-67.542 -0.7706,-108.943 -0.8311,-25.99 -5.6361,-40.344 -27.2738,-46.237 -13.6293,-3.476 -33.635,-6.044 -54.4265,-8.462 -3.2034,-2.569 -3.2034,-21.003 0,-23.572 22.3931,0 58.4912,2.418 115.29,2.418 46.4183,0 90.5246,-2.418 110.5606,-2.418 3.2034,2.569 4.8504,20.248 2.4328,23.572 -21.6679,2.418 -36.0981,4.231 -48.9265,7.555 -21.6528,4.986 -25.6721,18.585 -26.4881,55.756 -0.7857,42.913 -1.6016,85.07 -1.6016,118.01 0,7.555 3.1882,21.91 6.4369,29.465 18.4041,37.926 77.7868,148.532 112.2529,205.044 20.7915,34.602 31.9881,47.143 55.9829,53.943 l 33.6653,6.8 c 3.1883,2.417 3.1883,21.758 -0.831,23.42 -27.1831,-1.662 -46.4182,-2.417 -84.8432,-2.417 -28.0142,0 -64.0669,1.662 -88.1826,2.417 -3.9739,-1.662 -5.5756,-19.341 -2.3723,-23.42 17.6335,-3.476 27.2587,-4.382 37.6997,-6.8 22.4688,-5.137 23.2394,-16.772 16.0319,-32.94 -15.231,-38.682 -71.3953,-145.964 -99.4396,-194.014 -0.7706,-0.755 -3.9589,-0.755 -4.7748,-0.755 -16.8175,29.464 -80.0684,157.749 -100.875,204.893 -5.6361,11.937 -4.7748,20.247 5.6058,23.723 5.6512,1.511 20.036,4.23 28.8452,5.893 3.9891,3.324 3.1731,20.851 -0.8159,23.42 -9.6252,-0.755 -61.6795,-2.417 -88.9381,-2.417 -36.8384,0 -79.2978,2.417 -99.3036,2.417 -3.2033,-3.324 -3.9739,-20.096 -1.6016,-23.42 m 575.1659,-152.764 c -37.6695,0 -76.17,-14.354 -105.0303,-33.695 -40.767,-29.465 -69.5518,-74.191 -69.5518,-140.826 0,-86.883 42.3536,-180.415 159.336,-180.415 33.7107,0 71.3348,16.017 92.9725,31.127 49.6366,32.789 74.4323,89.452 74.4323,154.274 0,94.589 -56.0282,169.535 -152.1587,169.535 m -27.2586,-32.789 c 68.1163,0 111.4219,-65.88 111.4219,-163.642 0,-51.525 -8.8092,-85.221 -30.4771,-106.375 -13.6142,-13.448 -32.0334,-17.679 -48.8812,-17.679 -64.1121,0 -111.4219,67.542 -111.4219,167.118 0,64.067 20.0058,94.438 40.888,108.793 10.4108,7.555 25.6418,11.785 38.4703,11.785 m 419.7132,32.789 c -15.2007,0 -28.0443,-5.893 -40.8123,-16.016 -18.4495,-13.599 -35.2519,-32.94 -50.5282,-53.188 -1.6017,-0.755 -3.974,-0.755 -3.974,1.662 0,16.017 0.7706,53.188 1.6017,64.974 0,1.813 -2.3723,3.324 -3.974,3.324 -21.6225,-13.448 -68.8265,-27.803 -97.6565,-31.127 -2.4328,-1.662 -3.9891,-14.354 -3.9891,-18.585 36.0225,-13.448 42.4292,-23.572 44.0611,-35.358 0.7706,-10.124 0.7706,-35.509 0.7706,-66.636 0,-58.173 -0.7706,-128.284 -2.4025,-141.732 -1.6017,-15.11 -6.4067,-20.248 -14.4151,-23.572 -8.8243,-3.324 -21.6376,-5.893 -31.2477,-6.648 -3.1882,-3.476 -2.4176,-21.155 0,-24.479 14.3849,0.907 55.2879,2.418 80.0685,2.418 31.988,0 84.0726,-2.418 93.6675,-2.418 4.0193,3.324 4.8352,20.248 3.2486,24.479 -17.6788,1.511 -36.098,4.079 -50.4828,8.31 -12.073,4.231 -16.0469,12.693 -16.878,27.047 -0.7706,16.772 -1.6017,103.655 -1.6017,161.074 0,10.879 4.0344,23.572 6.4067,28.709 10.4713,17.679 26.4578,35.358 42.4896,35.358 18.4192,0 36.8687,-12.693 52.0845,-26.141 0.816,0 5.6059,2.418 6.3916,3.324 8.0386,10.124 23.2696,43.064 24.8561,53.188 0.7858,3.324 0.7858,10.879 0,13.448 -6.4369,11.786 -22.4687,18.585 -37.6846,18.585 m 222.7834,-35.357 c 12.8284,-0.907 29.6913,-4.231 37.6845,-5.893 8.8092,-2.569 10.426,-8.462 9.6403,-12.693 -3.2185,-14.354 -43.3056,-64.066 -72.181,-89.451 -13.6142,-11.786 -26.5031,-17.679 -37.6846,-20.248 0,141.733 0,238.74 1.6319,306.282 0.7707,38.833 2.3723,63.16 8.779,74.946 0,2.417 -4.0042,9.217 -6.4067,9.217 -24.7956,-10.879 -72.8307,-20.248 -118.4783,-23.572 -2.4176,-1.662 -3.1882,-18.434 -0.8159,-21.758 16.0318,-1.814 32.0636,-3.476 40.0569,-6.044 9.6553,-3.325 12.8284,-11.786 13.6595,-22.665 1.5563,-21.155 1.4506,-93.683 1.4506,-279.235 0,-41.402 0.1057,-136.595 -1.4506,-162.736 -0.8311,-17.679 -4.805,-23.723 -17.6335,-27.802 -9.6402,-3.476 -19.2805,-4.382 -29.646,-5.893 -4.0042,-2.569 -3.2034,-21.91 0,-24.479 12.8285,0 36.0376,2.418 80.0684,2.418 35.1914,0 65.6836,-2.418 80.0986,-2.418 4.0042,3.324 5.6059,21.003 3.1732,24.479 -13.6142,1.511 -24.841,4.079 -32.8494,5.893 -15.231,4.079 -20.0058,10.879 -20.0058,31.126 -1.6319,32.94 -1.6319,65.88 -1.6319,103.807 16.0319,0 23.2394,-6.8 28.0444,-13.448 36.0376,-46.388 81.7003,-117.406 108.0977,-140.071 6.4369,-5.137 18.4343,-13.448 36.1131,-13.448 27.999,0 68.071,-0.755 78.4818,1.662 3.2034,2.569 5.621,21.003 3.2034,24.479 -28.8301,0.755 -40.072,1.511 -59.2467,17.678 -32.0485,27.803 -102.4616,117.255 -124.9454,154.275 -0.8009,0.906 -0.8009,4.23 0,4.986 l 79.328,85.221 c 19.2352,20.247 36.778,25.234 68.0408,31.127 3.1882,4.23 3.1882,22.06 0,25.385 -31.2628,-4.231 -84.8583,-7.555 -152.1738,-7.555 -3.1883,-2.569 -4.7899,-19.341 -2.4025,-23.572"/><path id="path64" style="fill:#7d55c7;fill-opacity:1;fill-rule:nonzero;stroke:none;stroke-width:1.5661" d="m 3623.5665,25341.221 c 0.8144,-4.385 21.5339,-1.723 24.7444,1.566 0.83,38.056 8.0184,100.387 12.8263,129.986 -35.9576,2.349 -89.6435,16.757 -157.7689,16.757 -68.141,0 -120.1668,-14.408 -162.6864,-38.682 -88.0775,-49.802 -127.2927,-140.949 -127.2927,-231.94 0,-175.56 99.2281,-278.296 277.9671,-278.296 48.878,0 99.4161,12.529 122.61,20.986 18.4173,11.746 52.7463,77.522 60.7803,113.856 -1.5974,5.951 -15.2068,13.468 -19.1847,13.468 -20.7978,-37.117 -40.0138,-65.776 -60.0443,-82.69 -20.0147,-19.263 -53.6859,-28.66 -88.1401,-28.66 -142.6247,0 -213.9449,113.856 -213.9449,248.854 0,142.515 66.5123,232.722 182.7012,232.722 38.4635,0 72.949,-5.011 99.3691,-18.48 29.6619,-15.191 40.0452,-32.105 48.0636,-99.447 m 263.559,-40.719 c -37.6961,0 -76.1751,-14.251 -104.9914,-33.514 -40.8752,-29.6 -69.5975,-74.234 -69.5975,-140.949 0,-86.919 42.363,-180.415 159.3194,-180.415 33.6868,0 71.3358,15.974 92.995,31.165 49.5984,32.888 74.3898,89.425 74.3898,154.418 0,94.436 -55.9881,169.295 -152.1153,169.295 m -27.2658,-32.731 c 68.1097,0 111.381,-65.777 111.381,-163.658 0,-51.368 -8.7858,-85.196 -30.4293,-106.338 -13.6251,-13.468 -32.0424,-17.697 -48.9406,-17.697 -64.1005,0 -111.3341,67.499 -111.3341,167.103 0,64.21 19.9991,94.436 40.8282,108.844 10.4303,7.517 25.6841,11.746 38.4948,11.746 m 200.3198,-314.473 c 10.4302,0 48.0323,2.349 79.2447,2.349 42.4569,0 68.0314,-2.349 82.4865,-2.349 3.1791,4.072 4.8392,20.202 3.1791,24.274 -17.6342,1.723 -24.0083,3.446 -33.6554,7.674 -14.3925,5.012 -16.82,15.191 -17.603,37.9 -1.5974,22.865 -2.4118,80.184 -2.4118,212.52 0,72.667 0,167.885 0.8144,210.953 0,41.189 2.3804,58.103 7.1884,73.294 0,1.566 -3.1792,6.734 -5.591,7.517 -28.7849,-13.468 -78.399,-27.877 -117.6768,-31.165 -3.1791,-2.506 -3.9622,-18.48 -0.7673,-20.986 19.2003,-2.506 33.6398,-5.168 41.6739,-7.517 10.3676,-2.663 11.1506,-16.914 11.9806,-26.311 2.4275,-25.214 2.4275,-149.249 2.4275,-209.074 0,-137.504 -0.83,-195.763 -3.2575,-222.7 -0.783,-11.902 -3.9779,-19.419 -12.7794,-23.648 -9.6002,-4.228 -20.0304,-5.951 -35.2529,-8.457 -3.1948,-5.011 -1.5974,-20.202 0,-24.274 m 180.2738,0 c 10.3676,0 48.0636,2.349 79.229,2.349 42.41,0 68.047,-2.349 82.4708,-2.349 3.2105,4.072 4.8079,20.202 3.2105,24.274 -17.6343,1.723 -24.0709,3.446 -33.6398,7.674 -14.4238,5.012 -16.8043,15.191 -17.6656,37.9 -1.5974,22.865 -2.3805,80.184 -2.3805,212.52 0,72.667 0,167.885 0.7831,210.953 0,41.189 2.4587,58.103 7.251,73.294 0,1.566 -3.2105,6.734 -5.6536,7.517 -28.7536,-13.468 -78.399,-27.877 -117.6768,-31.165 -3.1635,-2.506 -3.9779,-18.48 -0.7674,-20.986 19.2631,-2.506 33.6085,-5.168 41.6583,-7.517 10.4146,-2.663 11.2446,-16.914 12.012,-26.311 2.4274,-25.214 2.4274,-149.249 2.4274,-209.074 0,-137.504 -0.83,-195.763 -3.1948,-222.7 -0.83,-11.902 -4.0562,-19.419 -12.8577,-23.648 -9.6315,-4.228 -19.9991,-5.951 -35.2059,-8.457 -3.2418,-5.011 -1.6444,-20.202 0,-24.274 m 450.0501,83.316 c -29.6306,-25.214 -59.2455,-35.394 -91.3192,-35.394 -36.0047,0 -63.2705,10.963 -87.3101,37.117 -19.2317,21.925 -31.2594,57.476 -32.8568,86.135 0,4.229 1.5974,8.457 4.8549,9.24 67.2483,1.723 176.2176,8.457 209.8574,18.48 2.4118,1.723 7.2041,15.975 6.421,19.42 -8.0497,2.506 -11.2446,5.951 -12.012,9.24 -6.4053,47.296 -34.4542,119.65 -112.164,119.65 -25.6371,0 -61.6887,-10.806 -86.5427,-27.72 -40.75,-28.659 -70.3806,-78.461 -70.3806,-152.538 0,-48.079 12.7951,-99.604 45.6205,-134.215 23.977,-25.997 56.0194,-40.405 97.6933,-40.405 36.8191,0 92.1494,21.142 127.371,63.27 1.5974,2.506 4.8079,16.758 3.9935,22.709 -0.7987,2.506 -2.3961,4.228 -3.2262,5.011 m -139.3829,232.096 c 43.3027,0 69.7072,-48.236 73.7477,-90.364 0,-3.445 -2.4275,-5.951 -4.0405,-7.674 -15.9743,-3.288 -110.551,-6.734 -136.1568,-5.011 -2.3961,0 -4.0562,4.228 -4.0562,5.951 4.0562,59.982 32.0738,97.098 70.5058,97.098 m 343.759,31.792 c -29.6463,0.94 -77.7412,-18.48 -100.1521,-36.96 -31.2124,-25.214 -44.7905,-61.548 -44.7905,-97.881 0,-68.282 32.7785,-104.616 73.5754,-119.65 1.6288,-0.783 2.4275,-3.289 0.8301,-5.012 -11.229,-9.24 -40.8439,-27.876 -52.8246,-35.394 -0.83,-2.662 -3.1948,-11.119 -3.1948,-14.408 2.3648,-17.697 19.1377,-41.345 50.4127,-52.307 0.7987,0 0.7987,-2.506 0.7987,-2.506 -34.4385,-26.154 -68.0314,-53.248 -77.6316,-65.776 -3.1948,-5.168 -5.5753,-24.431 -5.5753,-32.105 0,-27.094 13.5781,-57.32 38.3538,-78.462 26.4201,-20.986 57.6638,-30.226 96.1586,-30.226 28.8475,0 58.4938,5.795 91.3349,23.492 60.0756,31.165 97.6463,84.256 97.6463,140.792 0,45.574 -26.3574,71.728 -55.9567,82.69 -26.4201,10.18 -96.1429,13.469 -132.2415,16.914 -16.8042,1.723 -32.0581,9.24 -32.0581,25.371 0,13.468 13.6095,20.986 20.8292,21.925 2.4274,0.783 12.842,1.723 15.2068,1.723 22.4892,2.506 53.7799,10.023 84.9766,34.454 26.3731,21.926 47.2179,51.368 47.2179,109.627 0,15.191 -4.0249,33.828 -6.3897,41.345 -0.8457,1.723 0.7831,4.229 1.5974,4.229 8.7702,-0.783 10.3676,-0.783 19.1691,-0.783 16.0682,0 22.4422,4.072 28.0802,10.023 8.8015,9.24 19.9991,37.116 19.9991,47.139 -0.7674,1.723 -8.0028,6.735 -10.4303,5.952 -10.3675,-11.746 -19.1847,-18.637 -48.0479,-18.637 -17.5873,0 -32.7785,3.445 -45.5735,8.457 -23.194,9.396 -43.2714,15.974 -71.3202,15.974 m -25.6371,-31.009 c 59.3082,0 79.323,-55.596 79.323,-106.338 0,-33.671 -8.7702,-59.825 -21.6122,-73.293 -9.6472,-11.12 -24.854,-15.348 -36.866,-15.348 -55.3146,0 -79.4012,56.536 -79.4012,110.567 0,50.585 22.4735,84.412 58.5564,84.412 m 33.6399,-497.706 c -31.2594,0 -60.0756,7.674 -82.5648,27.093 -18.4487,16.758 -26.4515,36.334 -26.4515,57.32 0,23.648 13.6564,44.79 44.0858,65.776 7.2197,4.228 16.8669,8.457 28.8319,8.457 32.9037,0 75.345,-4.229 98.6016,-14.408 24.854,-10.023 40.8909,-28.66 40.8909,-59.825 0,-41.345 -28.8319,-84.413 -103.3939,-84.413 m 461.3887,264.827 c -29.6463,-25.214 -59.3082,-35.394 -91.3193,-35.394 -36.0516,0 -63.3018,10.963 -87.3414,37.117 -19.216,21.925 -31.228,57.476 -32.8255,86.135 0,4.229 1.5975,8.457 4.8236,9.24 67.264,1.723 176.2333,8.457 209.8731,18.48 2.3805,1.723 7.2041,15.975 6.4367,19.42 -8.0341,2.506 -11.2446,5.951 -12.012,9.24 -6.4524,47.296 -34.4542,119.65 -112.1798,119.65 -25.6214,0 -61.673,-10.806 -86.5427,-27.72 -40.7655,-28.659 -70.3805,-78.461 -70.3805,-152.538 0,-48.079 12.8107,-99.604 45.5735,-134.215 24.0397,-25.997 56.0664,-40.405 97.7403,-40.405 36.8347,0 92.118,21.142 127.3866,63.27 1.5504,2.506 4.7609,16.758 3.9779,22.709 -0.83,2.506 -2.4275,4.228 -3.2105,5.011 m -139.3986,232.096 c 43.2714,0 69.7228,-48.236 73.7477,-90.364 0,-3.445 -2.4275,-5.951 -4.0249,-7.674 -16.0682,-3.288 -110.5823,-6.734 -136.2037,-5.011 -2.4275,0 -4.0092,4.228 -4.0092,5.951 4.0092,59.982 32.0424,97.098 70.4901,97.098"/><path id="path68" style="fill:#7d55c7;fill-opacity:1;fill-rule:nonzero;stroke:none;stroke-width:1.55161" d="m 2722.2892,25266.883 c 12.8319,-1.707 19.2245,-3.414 27.2773,-5.121 22.3743,-6.672 31.2029,-21.877 52.041,-76.649 24.8103,-62.375 59.256,-156.092 76.8668,-204.037 1.5982,-3.413 6.3771,-14.43 6.3771,-15.206 -29.5892,-66.719 -91.2812,-150.195 -117.7051,-184.796 -0.8069,-1.552 0,-10.862 0.8223,-13.344 7.1995,-7.603 30.3961,-20.326 41.6452,-22.809 l 5.5703,3.258 c 5.6634,11.948 15.2213,29.636 24.8413,47.325 68.1002,124.749 132.1506,269.825 189.0327,426.692 7.1994,21.878 16.8349,33.67 31.2649,37.86 7.9442,3.413 16.8039,5.12 28.7979,6.827 2.3584,4.965 2.3584,20.946 -0.8224,24.36 -22.3897,-0.931 -45.6018,-2.483 -74.4617,-2.483 -28.0221,0 -59.2871,2.483 -68.8915,2.483 -3.1963,-3.414 -5.5858,-19.395 -3.1963,-24.36 14.4299,-1.707 27.2307,-4.19 35.237,-6.827 15.2523,-4.966 15.2523,-15.051 13.6542,-24.361 -5.6634,-42.203 -40.9005,-136.696 -65.7107,-192.244 -0.7758,-0.931 -2.374,0 -3.1963,0 -5.6168,10.861 -58.4647,154.23 -72.1033,202.33 -0.7758,3.413 0,11.792 6.4392,14.275 5.5702,2.637 17.6107,4.344 29.6047,6.827 2.4205,4.189 1.6447,21.877 -1.5982,24.36 -12.0094,0 -47.2465,-2.483 -81.6457,-2.483 -34.4613,0 -63.2747,2.483 -77.7202,2.483 -3.1963,-1.707 -4.7944,-19.395 -2.4205,-24.36"/><path id="path72" style="fill:#7d55c7;fill-opacity:1;fill-rule:nonzero;stroke:none;stroke-width:1.55864" d="m 2698.9567,25246.539 c 0.8105,12.625 4.8162,34.602 7.2633,46.292 -12.0327,-1.559 -59.3219,-4.209 -97.7891,-4.209 -1.6054,0 -3.1952,3.429 -3.1952,5.144 0,59.072 2.4159,96.947 4.0213,111.287 -2.4315,0.779 -10.4273,0.779 -14.4018,-0.936 -8.7752,-10.91 -38.3893,-31.952 -51.1858,-38.81 v -71.541 c 0,-2.494 -2.4159,-5.923 -3.242,-5.923 -6.406,-3.429 -26.4189,-7.637 -37.5943,-9.352 -3.2264,-4.208 -8.0582,-22.6 -7.2321,-27.744 l 43.2366,-3.273 c 3.2264,-0.935 4.8318,-5.143 4.8318,-7.637 0,-33.823 -0.7949,-109.728 -0.7949,-157.735 0,-53.928 0.7949,-76.061 11.1599,-96.168 13.6225,-26.964 39.2154,-40.368 70.4349,-40.368 25.6241,0 59.2595,10.91 79.3036,36.939 1.6054,3.429 4.0369,23.536 2.4471,26.186 -16.054,-10.132 -27.2762,-14.34 -49.7206,-14.34 -20.013,0 -40.0415,10.131 -47.2424,32.887 -3.2108,11.067 -4.8006,26.965 -4.8006,60.787 -0.8261,41.304 -0.8261,115.496 0,155.241 0,0.779 1.5898,4.208 3.1952,4.208 30.4402,0 71.2922,-0.935 91.3051,-0.935"/><path id="path76" style="fill:#7d55c7;fill-opacity:1;fill-rule:nonzero;stroke:none;stroke-width:1.55223" d="m 2470.6737,24977.554 c -18.456,2.483 -23.2524,4.191 -33.6679,6.674 -11.9677,4.191 -16.8262,13.505 -16.8262,28.717 -0.7761,37.874 -0.6674,94.375 -0.6674,140.787 0,51.534 0.6674,109.587 0.6674,147.617 -31.1532,-13.504 -79.9864,-23.594 -103.9994,-24.525 -3.1976,-2.484 -5.6191,-16.764 -3.1976,-20.179 15.988,-5.899 29.6011,-11.021 38.4177,-20.179 4.843,-6.054 5.6346,-12.729 5.6346,-17.851 0,-16.764 0.8072,-47.188 0.8072,-80.095 0,-46.412 0,-101.981 -1.5988,-123.092 -1.5988,-19.403 -4.0513,-26.077 -14.4358,-30.268 -9.6393,-3.415 -20.8775,-5.899 -34.4905,-7.606 -3.1976,-3.415 -3.1976,-21.887 0,-24.37 13.613,0 44.875,2.483 78.4497,2.483 40.8702,0 66.451,-2.483 81.6628,-2.483 3.2442,2.483 5.6657,20.179 3.2442,24.37"/><path id="path80" style="fill:#7d55c7;fill-opacity:1;fill-rule:nonzero;stroke:none;stroke-width:1.56149" d="m 2422.5906,25421.057 c 0,7.652 -3.1698,18.582 -7.9792,24.516 -1.5927,2.498 -10.3995,6.714 -23.2194,6.714 -14.3969,0 -31.1517,-8.432 -38.3814,-15.146 -4.0286,-4.216 -4.7938,-19.363 -4.0286,-24.516 2.4203,-16.864 8.8224,-28.575 20.8303,-34.509 4.8093,-3.435 32.0105,-0.781 35.9923,1.718 10.4308,8.432 16.786,25.296 16.786,41.223"/><path id="path84" style="fill:#7d55c7;fill-opacity:1;fill-rule:nonzero;stroke:none;stroke-width:1.56377" d="m 2221.6645,25341.049 c 0.7663,-4.222 21.5331,-1.564 24.7232,1.72 0.7819,38 8.0065,100.394 12.8073,129.95 -35.9354,2.502 -89.6666,16.732 -157.7531,16.732 -68.1178,0 -120.207,-14.23 -162.679,-38.625 -88.0715,-49.728 -127.3065,-140.896 -127.3065,-232.064 0,-175.455 99.2525,-278.194 277.9444,-278.194 48.9148,0 99.3933,12.51 122.6153,21.111 18.4212,11.728 52.7928,77.406 60.7837,113.686 -1.5638,5.942 -15.1998,13.605 -19.2031,13.605 -20.7825,-37.062 -39.97,-65.835 -60.0019,-82.724 -20.0006,-19.391 -53.6842,-28.617 -88.1184,-28.617 -142.694,0 -213.9863,113.843 -213.9863,248.796 0,142.459 66.5072,232.689 182.6796,232.689 38.4688,0 72.9499,-5.004 99.4245,-18.453 29.6647,-15.168 40.0325,-32.057 48.0703,-99.612"/><path id="path88" style="fill:#7d55c7;fill-opacity:1;fill-rule:nonzero;stroke:none;stroke-width:1.56625" d="m 705.12542,24977.459 c -3.1951,-3.29 -3.9626,-20.048 0,-24.277 22.4444,0.783 79.3149,2.506 116.1061,2.506 31.9985,0 80.9282,-1.723 116.9676,-2.506 4.0409,2.506 5.6228,20.987 3.2108,24.277 -27.2527,3.445 -40.0803,5.168 -52.9079,9.397 -17.636,5.012 -24.042,13.47 -25.6239,43.855 -2.3963,43.072 -3.2108,275.66 -3.2108,398.924 0,1.723 2.412,6.735 4.7927,7.518 18.4191,1.723 135.465,1.723 173.16458,0.94 3.9626,-0.94 6.406,-5.169 7.1735,-9.241 0,-31.012 0.8301,-68.759 0.8301,-269.082 0,-19.421 -0.8301,-119.818 -1.5976,-140.023 -0.8301,-23.65 -3.2265,-31.168 -17.6516,-36.337 -7.2205,-2.506 -17.6204,-4.229 -32.06118,-5.951 -3.2108,-3.29 -3.2108,-20.988 0,-24.277 15.20828,0 55.28868,2.506 80.91248,2.506 30.4009,0 72.8463,-2.506 83.3088,-2.506 2.3807,3.289 3.9783,21.771 0.7675,24.277 -14.3938,1.723 -20.8468,3.445 -30.4636,5.168 -16.8372,5.952 -19.2492,12.53 -20.8468,39.626 -1.5975,23.651 -1.5975,128.276 -1.5975,186.541 0,5.795 3.1951,15.036 9.6011,20.048 18.4661,14.409 42.5393,22.867 64.1692,22.867 52.0935,0 71.3271,-35.397 75.3523,-60.771 6.3903,-39.626 3.9783,-122.324 3.2108,-163.673 -0.8301,-33.674 -3.2108,-39.626 -15.2396,-43.855 -8.0348,-2.506 -20.048,-4.229 -32.0924,-5.951 -3.1795,-3.29 -2.3807,-20.988 0,-24.277 11.23,0.783 48.0995,1.566 72.9089,2.506 36.0081,0.783 72.0632,-2.506 84.8594,-2.506 3.2109,2.506 5.6229,20.987 3.2109,24.277 -18.4191,2.506 -30.4479,5.168 -40.8635,11.12 -6.3903,3.289 -10.4156,9.241 -10.4156,19.265 -0.7831,37.12 -0.7831,113.083 -0.7831,158.661 0,83.481 -36.7755,133.914 -100.0677,133.914 -28.8817,0 -68.1632,-16.759 -110.6556,-50.433 -1.5975,-0.783 -3.1951,-0.783 -3.1951,0.783 0,23.651 -0.7675,123.577 0,178.866 0.8301,62.337 1.5976,89.276 1.5976,95.228 0,2.506 -2.3651,4.229 -4.8084,5.012 -7.9879,-2.506 -34.3479,-11.747 -55.1947,-12.687 -2.365,0 -3.9626,-4.229 -3.9626,-5.795 v -32.891 c 0,-2.663 -2.4433,-4.229 -4.0096,-4.229 l -365.34348,-0.94 c -28.819,0.94 -50.4176,5.952 -64.0439,13.627 -2.4121,0.783 -8.865,-0.94 -9.6325,-2.663 -2.412,-37.12 -9.6011,-98.674 -15.2083,-134.854 0.7675,-4.229 20.8312,-9.241 24.8408,-6.735 12.0288,34.927 21.6142,60.144 32.0298,76.903 7.1734,11.747 18.4034,18.482 29.6491,18.482 30.4479,0.783 98.5328,1.723 112.1278,0 3.2108,0 6.453,-5.169 6.453,-8.458 0,-138.457 -0.8145,-316.226 -2.4747,-382.008 -1.5976,-39.783 -4.7927,-56.542 -30.4166,-61.711 -11.9818,-2.506 -28.0202,-5.951 -52.8766,-8.457 m 955.64748,59.047 c -29.6178,-25.216 -59.2669,-35.397 -91.2968,-35.397 -36.102,0 -63.2921,10.964 -87.3654,37.12 -19.2022,21.928 -31.231,57.481 -32.8442,86.144 0,4.229 1.6132,8.458 4.8083,9.241 67.3331,1.723 176.2658,8.457 209.9089,18.481 2.3963,1.723 7.2047,15.976 6.3903,19.422 -8.0036,2.506 -11.1987,5.952 -11.9818,9.241 -6.4217,47.301 -34.5045,119.661 -112.1592,119.661 -25.6395,0 -61.6789,-10.807 -86.504,-27.566 -40.8635,-28.819 -70.4343,-78.625 -70.4343,-152.709 0,-48.084 12.7963,-99.614 45.6092,-134.071 23.995,-26.156 56.0248,-40.409 97.6557,-40.409 36.9165,0 92.1738,20.987 127.4301,63.12 1.5976,2.506 4.7771,16.915 3.994,22.71 -0.7832,2.506 -2.3964,4.229 -3.2108,5.012 m -139.365,232.118 c 43.2285,0 69.6668,-48.083 73.6451,-90.372 0,-3.446 -2.3964,-5.952 -3.9783,-7.518 -16.0384,-3.446 -110.5616,-6.735 -136.2011,-5.169 -2.3963,0 -3.9939,4.229 -3.9939,5.952 3.9939,59.831 32.0611,97.107 70.5282,97.107"/></g></g></svg>