<svg xmlns="http://www.w3.org/2000/svg" xmlns:svg="http://www.w3.org/2000/svg" id="svg1" width="136.001" height="136.002" version="1.1" viewBox="0 0 136.001 136.002"><defs id="defs1"><linearGradient id="swatch145"><stop style="stop-color:#000;stop-opacity:1" id="stop145" offset="0"/></linearGradient><linearGradient id="swatch15"><stop style="stop-color:#e0a6f9;stop-opacity:.95914745" id="stop15" offset="0"/></linearGradient><linearGradient id="swatch262"><stop style="stop-color:#985dff;stop-opacity:1" id="stop262" offset="0"/></linearGradient><linearGradient id="swatch369"><stop style="stop-color:#000;stop-opacity:1" id="stop369" offset="0"/></linearGradient><linearGradient id="swatch1"><stop style="stop-color:#fff;stop-opacity:1" id="stop1" offset="0"/></linearGradient><linearGradient id="swatch140"><stop style="stop-color:#aad5ec;stop-opacity:1" id="stop140" offset="0"/></linearGradient><linearGradient id="swatch41"><stop style="stop-color:#634da0;stop-opacity:1" id="stop41" offset="0"/></linearGradient></defs><g id="layer1" transform="translate(-30339.074,-15659.348)"><path style="fill:#7d55c7;fill-opacity:1;stroke:none;stroke-width:51.3105;stroke-linecap:round;stroke-linejoin:round;stroke-dasharray:none;stroke-opacity:1;paint-order:stroke fill markers" id="path31993" d="m -4266.3281,4800.104 c 112,0 1883.8969,1023.0052 1939.8969,1120.0001 56,96.9948 56,2143.0051 -1e-4,2240 -56,96.9948 -1827.8969,1119.9999 -1939.8969,1119.9999 -112,0 -1883.8969,-1023.0052 -1939.8969,-1120 -56,-96.9949 -55.9999,-2143.0052 10e-5,-2240 56,-96.9949 1827.8969,-1120 1939.8969,-1120 z" transform="matrix(0.03037056,0,0,0.03035839,30536.646,15513.62)"/><path id="path31999" d="m 30366.076,15714.924 v -4.935 l 3.985,-3.983 h 10.952 v -2.728 l -1.34,-1.343 h -6.494 l -1.299,1.343 v 1.212 h -5.629 v -2.466 l 4.632,-4.677 h 11.127 l 4.63,4.677 v 16.885 h -5.15 v -3.074 l -3.202,3.074 h -8.227 z m 11.821,-0.432 3.116,-2.988 v -1.43 h -8.138 l -1.17,1.167 v 2.167 l 1.082,1.084 z m 13.292,0 v -12.728 l 4.37,-4.417 h 11.862 l 4.461,4.503 v 3.981 h -5.715 v -2.119 l -1.516,-1.517 h -6.235 l -1.514,1.517 v 8.83 l 1.514,1.516 h 6.235 l 1.516,-1.516 v -2.119 h 5.715 v 3.983 l -4.461,4.503 h -11.862 z m 24.589,-17.145 h 5.282 v 3.55 l 3.508,-3.55 h 5.454 l 2.945,2.988 2.941,-2.988 h 7.536 l 4.63,4.677 v 16.885 h -5.713 v -15.197 l -1.472,-1.517 h -3.635 l -2.296,2.295 v 14.419 h -5.542 v -15.284 l -1.387,-1.43 h -2.595 l -3.94,3.984 v 12.73 h -5.716 z" aria-label="acm" style="font-weight:700;font-size:975.867px;font-family:'Chakra Petch';-inkscape-font-specification:'Chakra Petch, Bold';fill:#ede3fa;fill-opacity:1;stroke:none;stroke-width:0;stroke-linecap:round;stroke-linejoin:round;stroke-opacity:1"/><path style="fill:none;fill-opacity:1;stroke:#ede3fa;stroke-width:79.92106997;stroke-linecap:round;stroke-linejoin:round;stroke-dasharray:none;stroke-opacity:1;paint-order:stroke fill markers" id="path32015" d="m -4266.3281,4800.104 c 112,0 1883.8969,1023.0052 1939.8969,1120.0001 56,96.9948 56,2143.0051 -1e-4,2240 -56,96.9948 -1827.8969,1119.9999 -1939.8969,1119.9999 -112,0 -1883.8969,-1023.0052 -1939.8969,-1120 -56,-96.9949 -55.9999,-2143.0052 10e-5,-2240 56,-96.9949 1827.8969,-1120 1939.8969,-1120 z" transform="matrix(0.0250252,0,0,0.02502418,30513.841,15551.173)"/><g id="g1" transform="translate(0.24653212)"><circle style="fill:#ede3fa;fill-opacity:1;stroke:none;stroke-width:2.18089;stroke-linecap:round;stroke-linejoin:round;stroke-dasharray:none;stroke-opacity:1" id="path23-8" cx="30424.076" cy="15737.845" r="1.247"/><circle style="fill:#81d0ed;fill-opacity:1;stroke:none;stroke-width:1.75;stroke-linecap:round;stroke-linejoin:round;stroke-dasharray:none;stroke-opacity:1;paint-order:stroke fill markers" id="circle32003-7" cx="30412.576" cy="15745.844" r="1.5"/><circle style="fill:none;fill-opacity:1;stroke:#ede3fa;stroke-width:1.75;stroke-linecap:round;stroke-linejoin:round;stroke-dasharray:none;stroke-opacity:1" id="path33-8-4" cx="30412.576" cy="15745.844" r="1.75"/><path style="fill:#f763b7;fill-opacity:1;stroke:#ede3fa;stroke-width:1.75;stroke-linecap:round;stroke-linejoin:round;stroke-dasharray:none;stroke-opacity:1" id="path24-9" d="m 30387.576,15754.844 -6,6"/><path style="fill:none;fill-opacity:1;stroke:#ede3fa;stroke-width:1.75;stroke-linecap:round;stroke-linejoin:round;stroke-dasharray:none;stroke-opacity:1" id="path25-6" d="m 30383.076,15755.344 7,7"/><path style="fill:none;fill-opacity:1;stroke:#ede3fa;stroke-width:1.75;stroke-linecap:round;stroke-linejoin:round;stroke-dasharray:none;stroke-opacity:1" id="path26-3" d="m 30391.576,15755.844 -6.5,6.5"/><path style="fill:none;fill-opacity:1;stroke:#ede3fa;stroke-width:1.75;stroke-linecap:round;stroke-linejoin:round;stroke-dasharray:none;stroke-opacity:1" id="path27-7" d="m 30411.076,15744.344 -3,-3 v -5"/><path style="fill:none;fill-opacity:1;stroke:#ede3fa;stroke-width:1.75;stroke-linecap:round;stroke-linejoin:round;stroke-dasharray:none;stroke-opacity:1" id="path28-8" d="m 30398.576,15755.844 -2,2 v 4"/><path style="fill:none;fill-opacity:1;stroke:#ede3fa;stroke-width:1.75;stroke-linecap:round;stroke-linejoin:round;stroke-dasharray:none;stroke-opacity:1" id="path29-8" d="m 30405.576,15759.344 c 3,-0.356 6.5,-2 9.5,-4.5"/><path style="fill:none;fill-opacity:1;stroke:#ede3fa;stroke-width:1.75;stroke-linecap:round;stroke-linejoin:round;stroke-dasharray:none;stroke-opacity:1" id="path30-2" d="m 30414.576,15750.844 c -0.5,1 0.229,2.915 0.5,4 0.5,2 1.806,3.721 4,7.5 l 6.5,0.126 c 0,-1.845 -1.333,-2.721 -4,-2.626 -2.5,-1.5 -1,-11 3.5,-14 1.5,0 4,-0.5 4.5,-2"/><path style="fill:none;fill-opacity:1;stroke:#ede3fa;stroke-width:1.75;stroke-linecap:round;stroke-linejoin:round;stroke-dasharray:none;stroke-opacity:1" id="path31-9" d="m 30400.076,15747.344 c 10,-2 9.5,8.5 6.5,10.856 -1,0.311 -1.333,0.359 -1,1.144 5.5,-0.5 7,0.5 7.5,3 0,0 -15,0.5 -16.5,-0.5"/><path style="fill:none;fill-opacity:1;stroke:#ede3fa;stroke-width:1.75;stroke-linecap:round;stroke-linejoin:round;stroke-dasharray:none;stroke-opacity:1" id="path32-1" d="m 30428.076,15743.344 c 3,0.5 4.5,-1.85 4.5,-4.5 0,-1 0.5,-1.5 -1,-2 -6.206,-3.206 -10,-4 -13.5,-3 -1,-2.5 -4.5,-0.631 -4,1 0,1.5 -4,1.5 -6,1.5 -12.24,0 -20.127,8.555 -16.5,19.5 0.03,0.09 -2.419,-1 -4,-1 -3,0 -3.101,0.08 -4.5,0.5 -3.105,0.927 -1.959,4.962 -1.5,5.5 1.065,1.247 3.49,1.525 3.5,1.5 h 6 c 3.259,0 3.688,-0.688 5.5,-0.5"/><circle style="fill:#81d0ed;fill-opacity:1;stroke:none;stroke-width:1.75;stroke-linecap:round;stroke-linejoin:round;stroke-dasharray:none;stroke-opacity:1;paint-order:stroke fill markers" id="circle32003" cx="30400.078" cy="15754.345" r="1.498"/><circle style="fill:none;fill-opacity:1;stroke:#ede3fa;stroke-width:1.75;stroke-linecap:round;stroke-linejoin:round;stroke-dasharray:none;stroke-opacity:1" id="path33-3" cx="30400.078" cy="15754.344" r="1.75"/><path style="fill:none;fill-opacity:1;stroke:#ede3fa;stroke-width:1.75;stroke-linecap:round;stroke-linejoin:round;stroke-dasharray:none;stroke-opacity:1" id="path34-5" d="m 30431.576,15736.844 c -0.777,1.556 -0.444,2.723 1,2.5"/></g><g id="g62" style="stroke-width:2;stroke-dasharray:none"><circle style="fill:#81d0ed;fill-opacity:1;stroke:none;stroke-width:2;stroke-linecap:round;stroke-linejoin:round;stroke-dasharray:none;stroke-opacity:1;paint-order:stroke fill markers" id="circle48" cx="-30440.076" cy="15745.344" r="1.5" transform="scale(-1,1)"/><circle style="fill:#81d0ed;fill-opacity:1;stroke:none;stroke-width:2;stroke-linecap:round;stroke-linejoin:round;stroke-dasharray:none;stroke-opacity:1;paint-order:stroke fill markers" id="circle49" cx="-30443.576" cy="15737.844" r="1.5" transform="scale(-1,1)"/><circle style="fill:#81d0ed;fill-opacity:1;stroke:none;stroke-width:2;stroke-linecap:round;stroke-linejoin:round;stroke-dasharray:none;stroke-opacity:1;paint-order:stroke fill markers" id="circle53" cx="-30443.576" cy="-15752.845" r="1.5" transform="scale(-1)"/><g id="g52" transform="matrix(-0.95756783,0,0,0.95756783,30408.372,15124.891)" style="stroke:#ede3fa;stroke-width:2.08862489;stroke-dasharray:none;stroke-opacity:1"><path style="fill:none;stroke:#ede3fa;stroke-width:2.08862489;stroke-linecap:round;stroke-linejoin:round;stroke-dasharray:none;stroke-opacity:1;paint-order:stroke fill markers" id="path49" d="m -49.817425,644.81377 h 8.354499 l 3.132938,-3.13294"/><circle style="fill:none;stroke:#ede3fa;stroke-width:1.82754678;stroke-linecap:round;stroke-linejoin:round;stroke-dasharray:none;stroke-opacity:1;paint-order:stroke fill markers" id="circle50" cx="-36.764" cy="640.114" r="1.828"/><circle style="fill:none;stroke:#ede3fa;stroke-width:1.82754678;stroke-linecap:round;stroke-linejoin:round;stroke-dasharray:none;stroke-opacity:1;paint-order:stroke fill markers" id="circle51" cx="-33.109" cy="647.947" r="1.827"/><path style="fill:none;fill-opacity:1;stroke:#ede3fa;stroke-width:2.08862489;stroke-linecap:round;stroke-linejoin:round;stroke-dasharray:none;stroke-opacity:1;paint-order:stroke fill markers" id="path51" d="m -49.817425,647.94671 h 14.620373"/><path style="fill:none;stroke:#ede3fa;stroke-width:2.08862489;stroke-linecap:round;stroke-linejoin:round;stroke-dasharray:none;stroke-opacity:1;paint-order:stroke fill markers" id="path53" d="m -49.817425,651.07941 h 8.354499 l 3.132938,3.13294"/><circle style="fill:none;stroke:#ede3fa;stroke-width:1.82754678;stroke-linecap:round;stroke-linejoin:round;stroke-dasharray:none;stroke-opacity:1;paint-order:stroke fill markers" id="circle54" cx="-36.764" cy="-655.779" r="1.828" transform="scale(1,-1)"/></g></g><g id="g63" transform="translate(0.28439596)" style="stroke-width:2;stroke-dasharray:none"><circle style="fill:#81d0ed;fill-opacity:1;stroke:none;stroke-width:2;stroke-linecap:round;stroke-linejoin:round;stroke-dasharray:none;stroke-opacity:1;paint-order:stroke fill markers" id="circle55" cx="30373.791" cy="15745.344" r="1.5"/><circle style="fill:#81d0ed;fill-opacity:1;stroke:none;stroke-width:2;stroke-linecap:round;stroke-linejoin:round;stroke-dasharray:none;stroke-opacity:1;paint-order:stroke fill markers" id="circle56" cx="30370.291" cy="15737.844" r="1.5"/><circle style="fill:#81d0ed;fill-opacity:1;stroke:none;stroke-width:2;stroke-linecap:round;stroke-linejoin:round;stroke-dasharray:none;stroke-opacity:1;paint-order:stroke fill markers" id="circle57" cx="30370.291" cy="-15752.845" r="1.5" transform="scale(1,-1)"/><g id="g60" transform="matrix(0.95756783,0,0,0.95756783,30405.356,15124.891)" style="stroke:#ede3fa;stroke-width:2.08862489;stroke-dasharray:none;stroke-opacity:1"><path style="fill:none;stroke:#ede3fa;stroke-width:2.08862489;stroke-linecap:round;stroke-linejoin:round;stroke-dasharray:none;stroke-opacity:1;paint-order:stroke fill markers" id="path57" d="m -49.672475,644.81408 h 8.354499 l 3.132938,-3.13294"/><circle style="fill:none;stroke:#ede3fa;stroke-width:1.82754678;stroke-linecap:round;stroke-linejoin:round;stroke-dasharray:none;stroke-opacity:1;paint-order:stroke fill markers" id="circle58" cx="-36.619" cy="640.114" r="1.828"/><circle style="fill:none;stroke:#ede3fa;stroke-width:1.82754678;stroke-linecap:round;stroke-linejoin:round;stroke-dasharray:none;stroke-opacity:1;paint-order:stroke fill markers" id="circle59" cx="-32.964" cy="647.947" r="1.827"/><path style="fill:none;fill-opacity:1;stroke:#ede3fa;stroke-width:2.08862489;stroke-linecap:round;stroke-linejoin:round;stroke-dasharray:none;stroke-opacity:1;paint-order:stroke fill markers" id="path59" d="m -49.672475,647.94702 h 14.620373"/><path style="fill:none;stroke:#ede3fa;stroke-width:2.08862489;stroke-linecap:round;stroke-linejoin:round;stroke-dasharray:none;stroke-opacity:1;paint-order:stroke fill markers" id="path60" d="m -49.672475,651.07972 h 8.354499 l 3.132938,3.13294"/><circle style="fill:none;stroke:#ede3fa;stroke-width:1.82754678;stroke-linecap:round;stroke-linejoin:round;stroke-dasharray:none;stroke-opacity:1;paint-order:stroke fill markers" id="circle60" cx="-36.619" cy="-655.779" r="1.828" transform="scale(1,-1)"/></g></g><path style="font-weight:800;font-size:6.23482px;font-family:Raleway;-inkscape-font-specification:'Raleway Ultra-Bold';fill:#ede3fa;stroke-width:.909244" id="text1" d="m 30367.334,15723.895 h -1.347 v 3.529 h -1.022 v -3.529 h -1.353 v -0.898 h 3.722 z m 3.573,3.529 h -0.998 v -1.839 q 0,-0.318 -0.131,-0.468 -0.125,-0.15 -0.337,-0.15 -0.112,0 -0.255,0.07 -0.137,0.07 -0.256,0.2 -0.118,0.131 -0.181,0.305 v 1.877 h -0.997 v -4.552 h 0.997 v 1.827 q 0.181,-0.293 0.474,-0.449 0.3,-0.162 0.655,-0.162 0.337,0 0.536,0.112 0.206,0.113 0.312,0.3 0.106,0.181 0.143,0.399 0.04,0.218 0.04,0.43 z m 2.225,0.06 q -0.417,0 -0.741,-0.131 -0.325,-0.137 -0.555,-0.368 -0.225,-0.23 -0.343,-0.53 -0.119,-0.305 -0.119,-0.636 0,-0.473 0.206,-0.86 0.212,-0.393 0.605,-0.63 0.393,-0.243 0.947,-0.243 0.555,0 0.942,0.237 0.393,0.237 0.598,0.624 0.206,0.38 0.206,0.829 0,0.09 -0.01,0.174 -0,0.08 -0.01,0.144 h -2.419 q 0.02,0.218 0.119,0.368 0.106,0.149 0.268,0.23 0.162,0.08 0.343,0.08 0.224,0 0.417,-0.106 0.2,-0.106 0.275,-0.287 l 0.848,0.237 q -0.125,0.256 -0.356,0.455 -0.224,0.194 -0.536,0.306 -0.305,0.112 -0.68,0.112 z m -0.723,-2.001 h 1.422 q -0.02,-0.206 -0.119,-0.356 -0.09,-0.155 -0.249,-0.237 -0.156,-0.09 -0.343,-0.09 -0.193,0 -0.349,0.09 -0.15,0.08 -0.243,0.237 -0.09,0.15 -0.119,0.356 z m 4.203,-0.312 q 0,-0.405 0.149,-0.792 0.15,-0.393 0.437,-0.711 0.286,-0.318 0.698,-0.505 0.411,-0.193 0.935,-0.193 0.624,0 1.079,0.268 0.461,0.268 0.686,0.699 l -0.786,0.548 q -0.1,-0.237 -0.268,-0.368 -0.162,-0.131 -0.362,-0.18 -0.193,-0.06 -0.374,-0.06 -0.293,0 -0.511,0.119 -0.218,0.112 -0.362,0.305 -0.143,0.194 -0.212,0.431 -0.07,0.237 -0.07,0.473 0,0.262 0.08,0.505 0.08,0.244 0.23,0.431 0.156,0.187 0.375,0.299 0.218,0.106 0.48,0.106 0.187,0 0.38,-0.06 0.193,-0.06 0.355,-0.194 0.169,-0.137 0.256,-0.355 l 0.835,0.492 q -0.13,0.325 -0.43,0.555 -0.299,0.231 -0.679,0.356 -0.374,0.118 -0.742,0.118 -0.48,0 -0.886,-0.193 -0.399,-0.2 -0.692,-0.524 -0.286,-0.33 -0.449,-0.735 -0.155,-0.412 -0.155,-0.836 z m 4.464,2.251 v -3.273 h 0.997 v 3.273 z m 0,-3.648 v -0.904 h 0.997 v 0.904 z m 3.803,3.473 q -0.137,0.06 -0.306,0.112 -0.162,0.06 -0.343,0.09 -0.18,0.04 -0.355,0.04 -0.249,0 -0.461,-0.08 -0.206,-0.09 -0.331,-0.28 -0.118,-0.194 -0.118,-0.512 v -1.708 h -0.418 v -0.754 h 0.418 v -1.042 h 0.997 v 1.042 h 0.668 v 0.754 h -0.668 v 1.365 q 0,0.162 0.08,0.237 0.08,0.07 0.206,0.07 0.106,0 0.225,-0.04 0.124,-0.04 0.212,-0.08 z m 0.389,0.667 q 0.125,0.04 0.231,0.06 0.112,0.02 0.2,0.02 0.118,0 0.199,-0.06 0.09,-0.05 0.15,-0.18 0.06,-0.125 0.112,-0.337 l -1.247,-3.273 h 1.029 l 0.76,2.25 0.649,-2.25 h 0.941 l -1.247,3.803 q -0.09,0.268 -0.268,0.474 -0.181,0.205 -0.436,0.318 -0.256,0.118 -0.561,0.118 -0.131,0 -0.256,-0.02 -0.125,-0.02 -0.256,-0.07 z m 4.544,-2.743 q 0,-0.405 0.15,-0.792 0.15,-0.393 0.437,-0.711 0.286,-0.318 0.698,-0.505 0.411,-0.193 0.935,-0.193 0.624,0 1.079,0.268 0.461,0.268 0.686,0.699 l -0.786,0.548 q -0.1,-0.237 -0.268,-0.368 -0.162,-0.131 -0.362,-0.18 -0.193,-0.06 -0.374,-0.06 -0.293,0 -0.511,0.119 -0.218,0.112 -0.362,0.305 -0.143,0.194 -0.212,0.431 -0.07,0.237 -0.07,0.473 0,0.262 0.08,0.505 0.08,0.244 0.23,0.431 0.156,0.187 0.375,0.299 0.218,0.106 0.48,0.106 0.187,0 0.38,-0.06 0.193,-0.06 0.355,-0.194 0.169,-0.137 0.256,-0.355 l 0.835,0.492 q -0.131,0.325 -0.43,0.555 -0.299,0.231 -0.679,0.356 -0.374,0.118 -0.742,0.118 -0.48,0 -0.886,-0.193 -0.399,-0.2 -0.692,-0.524 -0.287,-0.33 -0.449,-0.735 -0.156,-0.412 -0.156,-0.836 z m 6.001,2.313 q -0.417,0 -0.748,-0.137 -0.324,-0.137 -0.549,-0.374 -0.224,-0.237 -0.342,-0.543 -0.113,-0.305 -0.113,-0.642 0,-0.343 0.113,-0.648 0.118,-0.306 0.342,-0.543 0.225,-0.236 0.549,-0.374 0.331,-0.137 0.748,-0.137 0.418,0 0.742,0.137 0.324,0.138 0.549,0.374 0.224,0.237 0.343,0.543 0.118,0.305 0.118,0.648 0,0.337 -0.118,0.642 -0.119,0.306 -0.343,0.543 -0.225,0.237 -0.549,0.374 -0.324,0.137 -0.742,0.137 z m -0.729,-1.696 q 0,0.256 0.09,0.449 0.1,0.193 0.262,0.299 0.162,0.106 0.374,0.106 0.206,0 0.368,-0.106 0.169,-0.112 0.262,-0.305 0.09,-0.193 0.09,-0.443 0,-0.255 -0.09,-0.449 -0.09,-0.193 -0.262,-0.299 -0.162,-0.106 -0.368,-0.106 -0.212,0 -0.374,0.106 -0.162,0.106 -0.262,0.299 -0.09,0.194 -0.09,0.449 z m 2.961,-2.918 h 0.998 v 3.386 q 0,0.206 0.07,0.293 0.08,0.09 0.212,0.09 0.09,0 0.187,-0.03 0.1,-0.03 0.174,-0.07 l 0.131,0.748 q -0.187,0.09 -0.43,0.137 -0.243,0.05 -0.455,0.05 -0.424,0 -0.661,-0.225 -0.231,-0.23 -0.231,-0.648 z m 2.089,0 h 0.998 v 3.386 q 0,0.206 0.07,0.293 0.08,0.09 0.212,0.09 0.09,0 0.187,-0.03 0.1,-0.03 0.175,-0.07 l 0.131,0.748 q -0.187,0.09 -0.43,0.137 -0.243,0.05 -0.455,0.05 -0.424,0 -0.661,-0.225 -0.231,-0.23 -0.231,-0.648 z m 3.666,4.614 q -0.418,0 -0.742,-0.131 -0.324,-0.137 -0.555,-0.368 -0.224,-0.23 -0.343,-0.53 -0.118,-0.305 -0.118,-0.636 0,-0.473 0.206,-0.86 0.212,-0.393 0.604,-0.63 0.393,-0.243 0.948,-0.243 0.555,0 0.942,0.237 0.392,0.237 0.598,0.624 0.206,0.38 0.206,0.829 0,0.09 -0.01,0.174 -0,0.08 -0.01,0.144 h -2.419 q 0.02,0.218 0.118,0.368 0.106,0.149 0.268,0.23 0.162,0.08 0.343,0.08 0.225,0 0.418,-0.106 0.2,-0.106 0.274,-0.287 l 0.848,0.237 q -0.124,0.256 -0.355,0.455 -0.225,0.194 -0.536,0.306 -0.306,0.112 -0.68,0.112 z m -0.723,-2.001 h 1.421 q -0.02,-0.206 -0.118,-0.356 -0.09,-0.155 -0.249,-0.237 -0.156,-0.09 -0.343,-0.09 -0.194,0 -0.35,0.09 -0.149,0.08 -0.243,0.237 -0.09,0.15 -0.118,0.356 z m 4.196,1.951 q -0.324,0 -0.592,-0.124 -0.269,-0.131 -0.462,-0.356 -0.187,-0.23 -0.293,-0.53 -0.106,-0.299 -0.106,-0.642 0,-0.362 0.112,-0.667 0.113,-0.306 0.312,-0.536 0.206,-0.237 0.48,-0.362 0.281,-0.131 0.617,-0.131 0.368,0 0.649,0.162 0.28,0.156 0.449,0.437 v -0.536 h 0.866 v 3.048 q 0,0.499 -0.243,0.861 -0.237,0.361 -0.667,0.555 -0.424,0.199 -0.985,0.199 -0.524,0 -0.904,-0.174 -0.374,-0.169 -0.655,-0.48 l 0.537,-0.543 q 0.18,0.206 0.448,0.324 0.269,0.125 0.574,0.125 0.243,0 0.449,-0.09 0.206,-0.09 0.324,-0.281 0.125,-0.193 0.125,-0.499 v -0.318 q -0.15,0.268 -0.437,0.412 -0.28,0.143 -0.598,0.143 z m 0.343,-0.792 q 0.118,0 0.218,-0.03 0.106,-0.04 0.193,-0.09 0.09,-0.06 0.162,-0.144 0.08,-0.09 0.119,-0.187 v -0.685 q -0.06,-0.175 -0.181,-0.3 -0.118,-0.131 -0.262,-0.199 -0.143,-0.07 -0.299,-0.07 -0.156,0 -0.293,0.07 -0.137,0.07 -0.237,0.199 -0.09,0.125 -0.15,0.281 -0.05,0.156 -0.05,0.324 0,0.181 0.06,0.33 0.06,0.15 0.168,0.269 0.106,0.112 0.249,0.174 0.144,0.06 0.306,0.06 z m 3.94,0.842 q -0.418,0 -0.742,-0.131 -0.324,-0.137 -0.555,-0.368 -0.224,-0.23 -0.343,-0.53 -0.118,-0.305 -0.118,-0.636 0,-0.473 0.206,-0.86 0.212,-0.393 0.605,-0.63 0.392,-0.243 0.947,-0.243 0.555,0 0.942,0.237 0.392,0.237 0.598,0.624 0.206,0.38 0.206,0.829 0,0.09 -0.01,0.174 -0,0.08 -0.01,0.144 h -2.419 q 0.02,0.218 0.118,0.368 0.106,0.149 0.268,0.23 0.163,0.08 0.343,0.08 0.225,0 0.418,-0.106 0.2,-0.106 0.274,-0.287 l 0.848,0.237 q -0.124,0.256 -0.355,0.455 -0.224,0.194 -0.536,0.306 -0.306,0.112 -0.68,0.112 z m -0.723,-2.001 h 1.422 q -0.03,-0.206 -0.119,-0.356 -0.09,-0.155 -0.249,-0.237 -0.156,-0.09 -0.343,-0.09 -0.194,0 -0.349,0.09 -0.15,0.08 -0.244,0.237 -0.09,0.15 -0.118,0.356 z m 5.936,2.001 q -0.418,0 -0.749,-0.137 -0.324,-0.137 -0.548,-0.374 -0.225,-0.237 -0.343,-0.543 -0.112,-0.305 -0.112,-0.642 0,-0.343 0.112,-0.648 0.118,-0.306 0.343,-0.543 0.224,-0.236 0.548,-0.374 0.331,-0.137 0.749,-0.137 0.417,0 0.741,0.137 0.325,0.138 0.549,0.374 0.225,0.237 0.343,0.543 0.119,0.305 0.119,0.648 0,0.337 -0.119,0.642 -0.118,0.306 -0.343,0.543 -0.224,0.237 -0.549,0.374 -0.324,0.137 -0.741,0.137 z m -0.73,-1.696 q 0,0.256 0.09,0.449 0.1,0.193 0.261,0.299 0.163,0.106 0.375,0.106 0.205,0 0.367,-0.106 0.169,-0.112 0.262,-0.305 0.09,-0.193 0.09,-0.443 0,-0.255 -0.09,-0.449 -0.09,-0.193 -0.262,-0.299 -0.162,-0.106 -0.367,-0.106 -0.212,0 -0.375,0.106 -0.162,0.106 -0.261,0.299 -0.09,0.194 -0.09,0.449 z m 3.17,1.634 v -2.251 h -0.418 v -0.754 h 0.418 v -0.268 q 0,-0.412 0.137,-0.711 0.143,-0.299 0.399,-0.462 0.262,-0.168 0.605,-0.168 0.211,0 0.423,0.05 0.212,0.05 0.431,0.143 l -0.181,0.749 q -0.09,-0.04 -0.218,-0.07 -0.125,-0.03 -0.231,-0.03 -0.181,0 -0.274,0.118 -0.09,0.112 -0.09,0.343 v 0.306 h 0.761 v 0.754 h -0.761 v 2.251 z m 4.62,-2.532 v 2.532 h -1.022 v -4.427 h 0.81 l 2.052,2.606 v -2.606 h 1.022 v 4.427 h -0.835 z m 5.138,2.594 q -0.418,0 -0.742,-0.131 -0.324,-0.137 -0.555,-0.368 -0.225,-0.23 -0.343,-0.53 -0.118,-0.305 -0.118,-0.636 0,-0.473 0.205,-0.86 0.212,-0.393 0.605,-0.63 0.393,-0.243 0.948,-0.243 0.555,0 0.941,0.237 0.393,0.237 0.599,0.624 0.206,0.38 0.206,0.829 0,0.09 -0.01,0.174 -0,0.08 -0.01,0.144 h -2.42 q 0.02,0.218 0.119,0.368 0.106,0.149 0.268,0.23 0.162,0.08 0.343,0.08 0.224,0 0.418,-0.106 0.199,-0.106 0.274,-0.287 l 0.848,0.237 q -0.125,0.256 -0.355,0.455 -0.225,0.194 -0.537,0.306 -0.305,0.112 -0.679,0.112 z m -0.723,-2.001 h 1.421 q -0.03,-0.206 -0.118,-0.356 -0.09,-0.155 -0.25,-0.237 -0.156,-0.09 -0.343,-0.09 -0.193,0 -0.349,0.09 -0.149,0.08 -0.243,0.237 -0.09,0.15 -0.118,0.356 z m 6.857,-1.334 h 0.948 l -1.353,3.273 h -0.823 l -0.499,-1.334 -0.499,1.334 h -0.823 l -1.353,-3.273 h 0.942 l 0.879,2.331 0.312,-0.91 -0.586,-1.421 h 0.816 l 0.312,0.985 0.312,-0.985 h 0.81 l -0.58,1.421 0.312,0.91 z m 3.086,-1.154 0.954,1.958 0.967,-1.958 h 1.116 l -1.578,2.918 v 1.509 h -1.016 v -1.521 l -1.552,-2.906 z m 4.35,4.489 q -0.418,0 -0.749,-0.137 -0.324,-0.137 -0.548,-0.374 -0.225,-0.237 -0.343,-0.543 -0.112,-0.305 -0.112,-0.642 0,-0.343 0.112,-0.648 0.118,-0.306 0.343,-0.543 0.224,-0.236 0.548,-0.374 0.331,-0.137 0.749,-0.137 0.417,0 0.742,0.137 0.324,0.138 0.548,0.374 0.225,0.237 0.343,0.543 0.119,0.305 0.119,0.648 0,0.337 -0.119,0.642 -0.118,0.306 -0.343,0.543 -0.224,0.237 -0.548,0.374 -0.325,0.137 -0.742,0.137 z m -0.73,-1.696 q 0,0.256 0.09,0.449 0.1,0.193 0.262,0.299 0.162,0.106 0.374,0.106 0.205,0 0.368,-0.106 0.168,-0.112 0.261,-0.305 0.09,-0.193 0.09,-0.443 0,-0.255 -0.09,-0.449 -0.09,-0.193 -0.261,-0.299 -0.163,-0.106 -0.368,-0.106 -0.212,0 -0.374,0.106 -0.163,0.106 -0.262,0.299 -0.09,0.194 -0.09,0.449 z m 5.05,-0.785 q -0.361,0 -0.654,0.118 -0.293,0.112 -0.424,0.337 v 1.964 h -0.998 v -3.273 h 0.917 v 0.66 q 0.168,-0.33 0.436,-0.517 0.268,-0.187 0.561,-0.193 0.07,0 0.1,0 0.04,0 0.06,0 z m 2.619,2.419 -0.854,-1.309 -0.349,0.355 v 0.954 h -0.998 v -4.552 h 0.998 v 2.632 l 1.109,-1.353 h 1.054 l -1.178,1.409 1.278,1.864 z" aria-label="The City College of New York"/></g></svg>