<?xml version="1.0" encoding="UTF-8" standalone="no"?>
<!-- Created with Inkscape (http://www.inkscape.org/) -->

<svg
   width="135.79565mm"
   height="135.79565mm"
   viewBox="0 0 135.79565 135.79565"
   version="1.1"
   id="svg1"
   inkscape:version="1.4.3 (0d15f75, 2025-12-25)"
   sodipodi:docname="acmccny.svg"
   inkscape:export-filename="./acmccny.png"
   inkscape:export-xdpi="95.767426"
   inkscape:export-ydpi="95.767426"
   xmlns:inkscape="http://www.inkscape.org/namespaces/inkscape"
   xmlns:sodipodi="http://sodipodi.sourceforge.net/DTD/sodipodi-0.dtd"
   xmlns="http://www.w3.org/2000/svg"
   xmlns:svg="http://www.w3.org/2000/svg">
  <sodipodi:namedview
     id="namedview1"
     pagecolor="#000000"
     bordercolor="#eeeeee"
     borderopacity="1"
     inkscape:showpageshadow="0"
     inkscape:pageopacity="0"
     inkscape:pagecheckerboard="0"
     inkscape:deskcolor="#000000"
     inkscape:document-units="mm"
     inkscape:zoom="16"
     inkscape:cx="181.84375"
     inkscape:cy="357.15625"
     inkscape:window-width="1920"
     inkscape:window-height="1057"
     inkscape:window-x="1912"
     inkscape:window-y="-8"
     inkscape:window-maximized="1"
     inkscape:current-layer="g61"
     showgrid="true"
     showguides="true">
    <inkscape:page
       x="0"
       y="2.8054964e-10"
       width="135.79565"
       height="135.79565"
       id="page2"
       margin="0"
       bleed="0"
       inkscape:export-filename="logos.png"
       inkscape:export-xdpi="8"
       inkscape:export-ydpi="8" />
    <inkscape:grid
       id="grid5"
       units="mm"
       originx="0.0015625"
       originy="-0.0040756309"
       spacingx="1"
       spacingy="1"
       empcolor="#3297bc"
       empopacity="0.30196078"
       color="#81d0ed"
       opacity="0.14901961"
       empspacing="5"
       enabled="true"
       visible="true"
       dotted="false" />
    <inkscape:grid
       type="axonomgrid"
       id="grid8"
       units="mm"
       originx="0.0015625"
       originy="-0.0040756309"
       spacingx="1"
       spacingy="1"
       empcolor="#253700"
       empopacity="0.14901961"
       color="#3a5700"
       opacity="0.14901961"
       empspacing="5"
       dotted="false"
       gridanglex="45"
       gridanglez="45"
       enabled="true"
       visible="true" />
  </sodipodi:namedview>
  <defs
     id="defs1">
    <linearGradient
       id="swatch145"
       inkscape:swatch="solid">
      <stop
         style="stop-color:#000000;stop-opacity:1;"
         offset="0"
         id="stop145" />
    </linearGradient>
    <linearGradient
       id="swatch15"
       inkscape:swatch="solid">
      <stop
         style="stop-color:#e0a6f9;stop-opacity:0.95914745;"
         offset="0"
         id="stop15" />
    </linearGradient>
    <linearGradient
       id="swatch262"
       inkscape:swatch="solid">
      <stop
         style="stop-color:#985dff;stop-opacity:1;"
         offset="0"
         id="stop262" />
    </linearGradient>
    <linearGradient
       id="swatch369"
       inkscape:swatch="solid">
      <stop
         style="stop-color:#000000;stop-opacity:1;"
         offset="0"
         id="stop369" />
    </linearGradient>
    <linearGradient
       id="swatch1"
       inkscape:swatch="solid">
      <stop
         style="stop-color:#ffffff;stop-opacity:1;"
         offset="0"
         id="stop1" />
    </linearGradient>
    <inkscape:path-effect
       effect="fillet_chamfer"
       id="path-effect619-9-3-9-3"
       is_visible="true"
       lpeversion="1"
       nodesatellites_param="F,0,0,1,0,1589.9254,0,1 @ F,0,0,1,0,1589.9254,0,1 @ F,0,0,1,0,1589.9254,0,1 @ F,0,0,1,0,1589.9254,0,1 @ F,0,0,1,0,1589.9254,0,1 @ F,0,0,1,0,1589.9254,0,1 @ F,0,0,1,0,1589.9254,0,1 @ F,0,0,1,0,1589.9254,0,1 @ F,0,0,1,0,1589.9254,0,1 @ F,0,0,1,0,1589.9254,0,1 @ F,0,0,1,0,1589.9254,0,1 @ F,0,0,1,0,1589.9254,0,1 @ F,0,0,1,0,1589.9254,0,1 @ F,0,0,1,0,1589.9254,0,1 @ F,0,0,1,0,1589.9254,0,1 @ F,0,0,1,0,1589.9254,0,1"
       radius="308"
       unit="px"
       method="auto"
       mode="F"
       chamfer_steps="1"
       flexible="false"
       use_knot_distance="true"
       apply_no_radius="true"
       apply_with_radius="true"
       only_selected="false"
       hide_knots="false" />
    <linearGradient
       id="swatch140"
       inkscape:swatch="solid">
      <stop
         style="stop-color:#aad5ec;stop-opacity:1;"
         offset="0"
         id="stop140" />
    </linearGradient>
    <linearGradient
       id="swatch41"
       inkscape:swatch="solid"
       inkscape:label="Purple">
      <stop
         style="stop-color:#634da0;stop-opacity:1;"
         offset="0"
         id="stop41" />
    </linearGradient>
    <inkscape:path-effect
       effect="fillet_chamfer"
       id="path-effect619-9-3-9-3-1"
       is_visible="true"
       lpeversion="1"
       nodesatellites_param="F,0,0,1,0,1589.9254,0,1 @ F,0,0,1,0,1589.9254,0,1 @ F,0,0,1,0,1589.9254,0,1 @ F,0,0,1,0,1589.9254,0,1 @ F,0,0,1,0,1589.9254,0,1 @ F,0,0,1,0,1589.9254,0,1 @ F,0,0,1,0,1589.9254,0,1 @ F,0,0,1,0,1589.9254,0,1 @ F,0,0,1,0,1589.9254,0,1 @ F,0,0,1,0,1589.9254,0,1 @ F,0,0,1,0,1589.9254,0,1 @ F,0,0,1,0,1589.9254,0,1 @ F,0,0,1,0,1589.9254,0,1 @ F,0,0,1,0,1589.9254,0,1 @ F,0,0,1,0,1589.9254,0,1 @ F,0,0,1,0,1589.9254,0,1"
       radius="308"
       unit="px"
       method="auto"
       mode="F"
       chamfer_steps="1"
       flexible="false"
       use_knot_distance="true"
       apply_no_radius="true"
       apply_with_radius="true"
       only_selected="false"
       hide_knots="false" />
  </defs>
  <g
     inkscape:label="Layer 1"
     inkscape:groupmode="layer"
     id="layer1"
     transform="translate(-30339.074,-15659.348)">
    <path
       sodipodi:type="star"
       style="fill:#7d55c7;fill-opacity:1;stroke:none;stroke-width:51.3105;stroke-linecap:round;stroke-linejoin:round;stroke-dasharray:none;stroke-opacity:1;paint-order:stroke fill markers"
       id="path31993"
       inkscape:flatsided="true"
       sodipodi:sides="6"
       sodipodi:cx="-4266.3281"
       sodipodi:cy="7040.104"
       sodipodi:r1="2240"
       sodipodi:r2="1939.8969"
       sodipodi:arg1="-1.5707963"
       sodipodi:arg2="-1.0471976"
       inkscape:rounded="0.05"
       inkscape:randomized="0"
       d="m -4266.3281,4800.104 c 112,0 1883.8969,1023.0052 1939.8969,1120.0001 56,96.9948 56,2143.0051 -1e-4,2240 -56,96.9948 -1827.8969,1119.9999 -1939.8969,1119.9999 -112,0 -1883.8969,-1023.0052 -1939.8969,-1120 -56,-96.9949 -55.9999,-2143.0052 10e-5,-2240 56,-96.9949 1827.8969,-1120 1939.8969,-1120 z"
       transform="matrix(0.03027428,0,0,0.03026214,30536.235,15514.082)"
       inkscape:transform-center-x="0.00048113084"
       inkscape:transform-center-y="-0.00082589096"
       inkscape:export-filename="..\..\path9332.png"
       inkscape:export-xdpi="96"
       inkscape:export-ydpi="96" />
    <path
       d="m 30366.079,15714.924 v -4.935 l 3.985,-3.983 h 10.952 v -2.728 l -1.34,-1.343 h -6.494 l -1.299,1.343 v 1.212 h -5.629 v -2.466 l 4.632,-4.677 h 11.127 l 4.63,4.677 v 16.885 h -5.15 v -3.074 l -3.202,3.074 h -8.227 z m 11.821,-0.432 3.116,-2.988 v -1.43 h -8.138 l -1.17,1.167 v 2.167 l 1.082,1.084 z m 13.292,0 v -12.728 l 4.37,-4.417 h 11.862 l 4.461,4.503 v 3.981 h -5.715 v -2.119 l -1.516,-1.517 h -6.235 l -1.514,1.517 v 8.83 l 1.514,1.516 h 6.235 l 1.516,-1.516 v -2.119 h 5.715 v 3.983 l -4.461,4.503 h -11.862 z m 24.589,-17.145 h 5.282 v 3.55 l 3.508,-3.55 h 5.454 l 2.945,2.988 2.941,-2.988 h 7.536 l 4.63,4.677 v 16.885 h -5.713 v -15.197 l -1.472,-1.517 h -3.635 l -2.296,2.295 v 14.419 h -5.542 v -15.284 l -1.387,-1.43 h -2.595 l -3.94,3.984 v 12.73 h -5.716 z"
       id="path31999"
       style="font-weight:bold;font-size:975.867px;font-family:'Chakra Petch';-inkscape-font-specification:'Chakra Petch, Bold';fill:#ede3fa;fill-opacity:1;stroke:none;stroke-width:0;stroke-linecap:round;stroke-linejoin:round;stroke-opacity:1"
       aria-label="acm" />
    <path
       sodipodi:type="star"
       style="fill:none;fill-opacity:1;stroke:#ede3fa;stroke-width:60.1314;stroke-linecap:round;stroke-linejoin:round;stroke-dasharray:none;stroke-opacity:1;paint-order:stroke fill markers"
       id="path32015"
       inkscape:flatsided="true"
       sodipodi:sides="6"
       sodipodi:cx="-4266.3281"
       sodipodi:cy="7040.104"
       sodipodi:r1="2240"
       sodipodi:r2="1939.8969"
       sodipodi:arg1="-1.5707963"
       sodipodi:arg2="-1.0471976"
       inkscape:rounded="0.05"
       inkscape:randomized="0"
       d="m -4266.3281,4800.104 c 112,0 1883.8969,1023.0052 1939.8969,1120.0001 56,96.9948 56,2143.0051 -1e-4,2240 -56,96.9948 -1827.8969,1119.9999 -1939.8969,1119.9999 -112,0 -1883.8969,-1023.0052 -1939.8969,-1120 -56,-96.9949 -55.9999,-2143.0052 10e-5,-2240 56,-96.9949 1827.8969,-1120 1939.8969,-1120 z"
       transform="matrix(0.02494586,0,0,0.02494485,30513.503,15551.516)"
       inkscape:transform-center-x="-0.00053887557"
       inkscape:transform-center-y="-0.00080926534" />
    <g
       aria-label="The City College of New York "
       id="g32079"
       style="font-weight:bold;font-size:6.76207px;font-family:Raleway;-inkscape-font-specification:'Raleway Bold';fill:#ede3fa;fill-opacity:1;stroke-width:1.62859;stroke-linecap:round;stroke-linejoin:round;stroke-dasharray:none;paint-order:stroke fill markers"
       transform="matrix(0.92235206,0,0,0.91972398,30387.831,14276.907)">
      <path
         d="m -21.787011,1572.5916 h -1.53499 v 3.9829 h -0.926403 v -3.9829 h -1.53499 v -0.8182 h 3.996383 z"
         style="fill:#ede3fa;fill-opacity:1;stroke-width:1.62859;stroke-dasharray:none"
         id="path32033" />
      <path
         d="m -17.986731,1576.5745 h -0.906117 v -1.9881 q 0,-0.4125 -0.16229,-0.6153 -0.155527,-0.2029 -0.432772,-0.2029 -0.16229,0 -0.344866,0.095 -0.182576,0.095 -0.331341,0.2637 -0.142004,0.1623 -0.209624,0.3787 v 2.0692 h -0.906118 v -4.9363 h 0.906118 v 2.0489 q 0.1961,-0.3381 0.534203,-0.5275 0.338104,-0.1893 0.737066,-0.1893 0.344865,0 0.561252,0.1217 0.216386,0.115 0.338103,0.3178 0.121717,0.1961 0.169052,0.4463 0.04733,0.2434 0.04733,0.5072 z"
         style="fill:#ede3fa;fill-opacity:1;stroke-width:1.62859;stroke-dasharray:none"
         id="path32035" />
      <path
         d="m -15.552385,1576.6421 q -0.42601,0 -0.770876,-0.142 -0.344865,-0.1488 -0.5883,-0.399 -0.243434,-0.2569 -0.378676,-0.5815 -0.128479,-0.3314 -0.128479,-0.6965 0,-0.5072 0.223148,-0.9264 0.229911,-0.4193 0.649159,-0.6695 0.42601,-0.2569 1.000786,-0.2569 0.581538,0 0.994025,0.2569 0.412486,0.2502 0.628872,0.6695 0.223148,0.4125 0.223148,0.8926 0,0.081 -0.0068,0.169 -0.0068,0.081 -0.01352,0.1353 h -2.738638 q 0.02705,0.2705 0.155527,0.4733 0.135242,0.2029 0.338104,0.3111 0.209624,0.1014 0.446297,0.1014 0.270482,0 0.507155,-0.1285 0.243434,-0.1352 0.331341,-0.3516 l 0.777638,0.2164 q -0.128479,0.2705 -0.371914,0.4801 -0.236672,0.2096 -0.561251,0.3313 -0.32458,0.115 -0.71678,0.115 z m -0.926403,-2.1233 h 1.852807 q -0.02705,-0.2705 -0.155528,-0.4666 -0.121717,-0.2029 -0.324579,-0.311 -0.202862,-0.115 -0.453059,-0.115 -0.243434,0 -0.446297,0.115 -0.1961,0.1081 -0.324579,0.311 -0.121717,0.1961 -0.148765,0.4666 z"
         style="fill:#ede3fa;fill-opacity:1;stroke-width:1.62859;stroke-dasharray:none"
         id="path32037" />
      <path
         d="m -11.725048,1574.1401 q 0,-0.4395 0.155527,-0.8588 0.16229,-0.426 0.466583,-0.7708 0.304293,-0.3517 0.743828,-0.5545 0.4395346,-0.2097 1.0007864,-0.2097 0.6626829,0 1.1427898,0.2908 0.4868691,0.2908 0.7235416,0.7574 l -0.7167795,0.4936 q -0.1217173,-0.2705 -0.3178173,-0.426 -0.1961,-0.1623 -0.4192483,-0.2232 -0.2231484,-0.068 -0.4395346,-0.068 -0.3516276,0 -0.6153481,0.142 -0.256959,0.142 -0.432773,0.3719 -0.175814,0.2299 -0.263721,0.514 -0.08114,0.284 -0.08114,0.568 0,0.3178 0.101431,0.6153 0.101431,0.2908 0.284007,0.5207 0.189338,0.2231 0.4462963,0.3584 0.2637207,0.1285 0.5747759,0.1285 0.2231484,0 0.4530587,-0.074 0.2299104,-0.074 0.4260105,-0.2367 0.1961,-0.1623 0.3042931,-0.4192 l 0.764114,0.4395 q -0.1420035,0.3584 -0.4665829,0.6086 -0.3178173,0.2502 -0.7167794,0.3787 -0.3989622,0.1284 -0.7911622,0.1284 -0.5139174,0 -0.939928,-0.2096 -0.42601,-0.2164 -0.737065,-0.568 -0.304294,-0.3584 -0.480107,-0.7979 -0.169052,-0.4463 -0.169052,-0.8994 z"
         style="fill:#ede3fa;fill-opacity:1;stroke-width:1.62859;stroke-dasharray:none"
         id="path32039" />
      <path
         d="m -6.8834007,1576.5745 v -3.5434 h 0.9061174 v 3.5434 z m 0,-4.037 v -0.8993 h 0.9061174 v 0.8993 z"
         style="fill:#ede3fa;fill-opacity:1;stroke-width:1.62859;stroke-dasharray:none"
         id="path32041" />
      <path
         d="m -3.0357874,1576.3919 q -0.1149552,0.047 -0.2772449,0.1082 -0.1622897,0.061 -0.3516276,0.095 -0.1825759,0.041 -0.3719139,0.041 -0.2501966,0 -0.4598208,-0.088 -0.2096241,-0.088 -0.3381035,-0.2772 -0.1217172,-0.1961 -0.1217172,-0.5072 v -2.0354 h -0.4665829 v -0.6965 h 0.4665829 v -1.1495 h 0.9061174 v 1.1495 h 0.7438277 v 0.6965 h -0.7438277 v 1.7311 q 0.00676,0.1826 0.101431,0.2637 0.094669,0.081 0.2366725,0.081 0.1420035,0 0.2772449,-0.047 0.1352414,-0.047 0.2163862,-0.081 z"
         style="fill:#ede3fa;fill-opacity:1;stroke-width:1.62859;stroke-dasharray:none"
         id="path32043" />
      <path
         d="m -2.5033005,1577.2642 q 0.1217173,0.027 0.2231483,0.047 0.1081932,0.02 0.1825759,0.02 0.1284794,0 0.2096242,-0.068 0.087907,-0.061 0.1690518,-0.2299 0.081145,-0.1623 0.1690517,-0.4598 l -1.3997485,-3.5434 h 0.9399278 l 0.9534518,2.617 0.83849675,-2.617 h 0.86554498 l -1.48765544,4.2466 q -0.0811448,0.2367 -0.25019659,0.426 -0.1622897,0.1961 -0.4124863,0.3043 -0.2434345,0.115 -0.5477277,0.115 -0.1081931,0 -0.2163862,-0.02 -0.1081931,-0.014 -0.2366725,-0.054 z"
         style="fill:#ede3fa;fill-opacity:1;stroke-width:1.62859;stroke-dasharray:none"
         id="path32045" />
      <path
         d="m 2.3911065,1574.1401 q 0,-0.4395 0.1555276,-0.8588 0.1622897,-0.426 0.4665828,-0.7708 0.3042932,-0.3517 0.7438278,-0.5545 0.4395345,-0.2097 1.0007864,-0.2097 0.6626828,0 1.1427898,0.2908 0.4868691,0.2908 0.7235415,0.7574 l -0.7167794,0.4936 q -0.1217173,-0.2705 -0.3178173,-0.426 -0.1961,-0.1623 -0.4192484,-0.2232 -0.2231483,-0.068 -0.4395345,-0.068 -0.3516277,0 -0.6153484,0.142 -0.2569587,0.142 -0.4327725,0.3719 -0.1758138,0.2299 -0.2637207,0.514 -0.081145,0.284 -0.081145,0.568 0,0.3178 0.1014311,0.6153 0.101431,0.2908 0.2840069,0.5207 0.189338,0.2231 0.4462966,0.3584 0.2637208,0.1285 0.574776,0.1285 0.2231483,0 0.4530587,-0.074 0.2299104,-0.074 0.4260104,-0.2367 0.1961001,-0.1623 0.3042932,-0.4192 l 0.7641139,0.4395 q -0.1420034,0.3584 -0.4665828,0.6086 -0.3178173,0.2502 -0.7167795,0.3787 -0.3989621,0.1284 -0.7911622,0.1284 -0.5139173,0 -0.9399277,-0.2096 -0.4260104,-0.2164 -0.7370657,-0.568 -0.3042931,-0.3584 -0.480107,-0.7979 -0.1690517,-0.4463 -0.1690516,-0.8994 z"
         style="fill:#ede3fa;fill-opacity:1;stroke-width:1.62859;stroke-dasharray:none"
         id="path32047" />
      <path
         d="m 8.8539305,1576.6421 q -0.4327725,0 -0.7776381,-0.142 -0.3448656,-0.1488 -0.5883001,-0.4057 -0.2366725,-0.257 -0.3651518,-0.5883 -0.1284793,-0.3314 -0.1284793,-0.6965 0,-0.372 0.1284793,-0.7033 0.1284793,-0.3313 0.3651518,-0.5883 0.2434345,-0.257 0.5883001,-0.399 0.3448656,-0.1487 0.7776381,-0.1487 0.4327724,0 0.770876,0.1487 0.3448655,0.142 0.5883005,0.399 0.243434,0.257 0.365151,0.5883 0.12848,0.3313 0.12848,0.7033 0,0.3651 -0.12848,0.6965 -0.121717,0.3313 -0.365151,0.5883 -0.2366729,0.2569 -0.5815385,0.4057 -0.3448656,0.142 -0.777638,0.142 z m -0.9264037,-1.8325 q 0,0.311 0.1217173,0.5545 0.1217173,0.2366 0.3313414,0.3719 0.2096242,0.1352 0.473345,0.1352 0.2569586,0 0.4665828,-0.1352 0.2096242,-0.142 0.3313414,-0.3787 0.1284794,-0.2434 0.1284794,-0.5545 0,-0.3043 -0.1284794,-0.5477 -0.1217172,-0.2435 -0.3313414,-0.3787 -0.2096242,-0.1352 -0.4665828,-0.1352 -0.2637208,0 -0.473345,0.142 -0.2096241,0.1352 -0.3313414,0.3786 -0.1217173,0.2367 -0.1217173,0.5478 z"
         style="fill:#ede3fa;fill-opacity:1;stroke-width:1.62859;stroke-dasharray:none"
         id="path32049" />
      <path
         d="m 11.308568,1571.6382 h 0.906117 v 3.8002 q 0,0.2435 0.08115,0.3314 0.08114,0.081 0.223148,0.081 0.108193,0 0.223149,-0.027 0.114955,-0.027 0.202862,-0.068 l 0.121717,0.6897 q -0.182576,0.088 -0.42601,0.1352 -0.243435,0.047 -0.439535,0.047 -0.42601,0 -0.662683,-0.2232 -0.22991,-0.2299 -0.22991,-0.6491 z"
         style="fill:#ede3fa;fill-opacity:1;stroke-width:1.62859;stroke-dasharray:none"
         id="path32051" />
      <path
         d="m 13.452141,1571.6382 h 0.906118 v 3.8002 q 0,0.2435 0.08114,0.3314 0.08115,0.081 0.223148,0.081 0.108193,0 0.223148,-0.027 0.114956,-0.027 0.202862,-0.068 l 0.121718,0.6897 q -0.182576,0.088 -0.426011,0.1352 -0.243434,0.047 -0.439534,0.047 -0.426011,0 -0.662683,-0.2232 -0.229911,-0.2299 -0.229911,-0.6491 z"
         style="fill:#ede3fa;fill-opacity:1;stroke-width:1.62859;stroke-dasharray:none"
         id="path32053" />
      <path
         d="m 17.245657,1576.6421 q -0.426011,0 -0.770876,-0.142 -0.344866,-0.1488 -0.588301,-0.399 -0.243434,-0.2569 -0.378676,-0.5815 -0.128479,-0.3314 -0.128479,-0.6965 0,-0.5072 0.223148,-0.9264 0.229911,-0.4193 0.649159,-0.6695 0.426011,-0.2569 1.000787,-0.2569 0.581538,0 0.994024,0.2569 0.412486,0.2502 0.628872,0.6695 0.223149,0.4125 0.223149,0.8926 0,0.081 -0.0068,0.169 -0.0068,0.081 -0.01352,0.1353 h -2.738639 q 0.02705,0.2705 0.155528,0.4733 0.135241,0.2029 0.338103,0.3111 0.209624,0.1014 0.446297,0.1014 0.270483,0 0.507155,-0.1285 0.243435,-0.1352 0.331342,-0.3516 l 0.777638,0.2164 q -0.12848,0.2705 -0.371914,0.4801 -0.236673,0.2096 -0.561252,0.3313 -0.324579,0.115 -0.716779,0.115 z m -0.926404,-2.1233 h 1.852807 q -0.02705,-0.2705 -0.155527,-0.4666 -0.121718,-0.2029 -0.32458,-0.311 -0.202862,-0.115 -0.453059,-0.115 -0.243434,0 -0.446296,0.115 -0.1961,0.1081 -0.32458,0.311 -0.121717,0.1961 -0.148765,0.4666 z"
         style="fill:#ede3fa;fill-opacity:1;stroke-width:1.62859;stroke-dasharray:none"
         id="path32055" />
      <path
         d="m 21.039185,1576.5947 q -0.351627,0 -0.649158,-0.1352 -0.290769,-0.142 -0.507156,-0.3922 -0.209624,-0.2502 -0.324579,-0.5748 -0.114955,-0.3245 -0.114955,-0.6897 0,-0.3854 0.121717,-0.7168 0.121717,-0.3313 0.338104,-0.5815 0.223148,-0.257 0.520679,-0.3922 0.304293,-0.142 0.669445,-0.142 0.412486,0 0.723541,0.1893 0.311056,0.1826 0.513918,0.4936 v -0.6221 h 0.791162 v 3.3743 q 0,0.5275 -0.256959,0.8994 -0.250196,0.3786 -0.696493,0.5747 -0.446297,0.2029 -1.01431,0.2029 -0.574776,0 -0.973739,-0.1961 -0.398962,-0.1893 -0.682969,-0.541 l 0.493631,-0.4801 q 0.202863,0.2502 0.507156,0.3922 0.311055,0.142 0.655921,0.142 0.290769,0 0.527441,-0.1082 0.243435,-0.1014 0.385438,-0.3245 0.148766,-0.2164 0.148766,-0.5613 v -0.4463 q -0.175814,0.3043 -0.500394,0.4734 -0.317817,0.1622 -0.676207,0.1622 z m 0.304294,-0.7235 q 0.148765,0 0.284006,-0.047 0.135242,-0.047 0.250197,-0.1285 0.114955,-0.081 0.202862,-0.1893 0.08791,-0.115 0.135242,-0.23 v -0.8452 q -0.08115,-0.2096 -0.229911,-0.3652 -0.142003,-0.1555 -0.324579,-0.2366 -0.175814,-0.088 -0.371914,-0.088 -0.209624,0 -0.378676,0.088 -0.169052,0.088 -0.290769,0.2502 -0.121717,0.1555 -0.189338,0.3516 -0.06086,0.1893 -0.06086,0.3989 0,0.2164 0.07438,0.4058 0.07438,0.1893 0.202862,0.3313 0.135242,0.142 0.311056,0.2232 0.182575,0.081 0.385438,0.081 z"
         style="fill:#ede3fa;fill-opacity:1;stroke-width:1.62859;stroke-dasharray:none"
         id="path32057" />
      <path
         d="m 25.583303,1576.6421 q -0.42601,0 -0.770876,-0.142 -0.344866,-0.1488 -0.5883,-0.399 -0.243435,-0.2569 -0.378676,-0.5815 -0.128479,-0.3314 -0.128479,-0.6965 0,-0.5072 0.223148,-0.9264 0.22991,-0.4193 0.649159,-0.6695 0.42601,-0.2569 1.000786,-0.2569 0.581538,0 0.994024,0.2569 0.412487,0.2502 0.628873,0.6695 0.223148,0.4125 0.223148,0.8926 0,0.081 -0.0068,0.169 -0.0068,0.081 -0.01352,0.1353 h -2.738638 q 0.02705,0.2705 0.155527,0.4733 0.135242,0.2029 0.338104,0.3111 0.209624,0.1014 0.446296,0.1014 0.270483,0 0.507156,-0.1285 0.243434,-0.1352 0.331341,-0.3516 l 0.777638,0.2164 q -0.128479,0.2705 -0.371914,0.4801 -0.236672,0.2096 -0.561252,0.3313 -0.324579,0.115 -0.716779,0.115 z m -0.926404,-2.1233 h 1.852808 q -0.02705,-0.2705 -0.155528,-0.4666 -0.121717,-0.2029 -0.324579,-0.311 -0.202862,-0.115 -0.453059,-0.115 -0.243435,0 -0.446297,0.115 -0.1961,0.1081 -0.324579,0.311 -0.121717,0.1961 -0.148766,0.4666 z"
         style="fill:#ede3fa;fill-opacity:1;stroke-width:1.62859;stroke-dasharray:none"
         id="path32059" />
      <path
         d="m 31.249923,1576.6421 q -0.432773,0 -0.777638,-0.142 -0.344866,-0.1488 -0.5883,-0.4057 -0.236673,-0.257 -0.365152,-0.5883 -0.12848,-0.3314 -0.12848,-0.6965 0,-0.372 0.12848,-0.7033 0.128479,-0.3313 0.365152,-0.5883 0.243434,-0.257 0.5883,-0.399 0.344865,-0.1487 0.777638,-0.1487 0.432772,0 0.770876,0.1487 0.344865,0.142 0.5883,0.399 0.243434,0.257 0.365152,0.5883 0.128479,0.3313 0.128479,0.7033 0,0.3651 -0.128479,0.6965 -0.121718,0.3313 -0.365152,0.5883 -0.236673,0.2569 -0.581538,0.4057 -0.344866,0.142 -0.777638,0.142 z m -0.926404,-1.8325 q 0,0.311 0.121717,0.5545 0.121718,0.2366 0.331342,0.3719 0.209624,0.1352 0.473345,0.1352 0.256958,0 0.466583,-0.1352 0.209624,-0.142 0.331341,-0.3787 0.128479,-0.2434 0.128479,-0.5545 0,-0.3043 -0.128479,-0.5477 -0.121717,-0.2435 -0.331341,-0.3787 -0.209625,-0.1352 -0.466583,-0.1352 -0.263721,0 -0.473345,0.142 -0.209624,0.1352 -0.331342,0.3786 -0.121717,0.2367 -0.121717,0.5478 z"
         style="fill:#ede3fa;fill-opacity:1;stroke-width:1.62859;stroke-dasharray:none"
         id="path32061" />
      <path
         d="m 33.894303,1576.5745 v -2.6643 H 33.42772 v -0.6897 h 0.466583 v -0.2164 q 0,-0.4395 0.142003,-0.7574 0.148766,-0.3245 0.412487,-0.5004 0.270483,-0.1758 0.628872,-0.1758 0.216387,0 0.432773,0.054 0.223148,0.054 0.439534,0.1556 l -0.182576,0.6829 q -0.101431,-0.054 -0.236672,-0.088 -0.135241,-0.041 -0.256959,-0.041 -0.22991,0 -0.351627,0.1623 -0.121718,0.1623 -0.121718,0.4734 v 0.2502 h 0.865545 v 0.6897 H 34.80042 v 2.6643 z"
         style="fill:#ede3fa;fill-opacity:1;stroke-width:1.62859;stroke-dasharray:none"
         id="path32063" />
      <path
         d="m 38.684238,1573.491 v 3.0835 h -0.933166 v -4.8011 H 38.4949 l 2.48168,3.1646 v -3.1578 h 0.933165 v 4.7943 h -0.777638 z"
         style="fill:#ede3fa;fill-opacity:1;stroke-width:1.62859;stroke-dasharray:none"
         id="path32065" />
      <path
         d="m 44.404947,1576.6421 q -0.426011,0 -0.770876,-0.142 -0.344866,-0.1488 -0.5883,-0.399 -0.243435,-0.2569 -0.378676,-0.5815 -0.12848,-0.3314 -0.12848,-0.6965 0,-0.5072 0.223149,-0.9264 0.22991,-0.4193 0.649159,-0.6695 0.42601,-0.2569 1.000786,-0.2569 0.581538,0 0.994024,0.2569 0.412486,0.2502 0.628873,0.6695 0.223148,0.4125 0.223148,0.8926 0,0.081 -0.0068,0.169 -0.0068,0.081 -0.01352,0.1353 h -2.738639 q 0.02705,0.2705 0.155528,0.4733 0.135241,0.2029 0.338104,0.3111 0.209624,0.1014 0.446296,0.1014 0.270483,0 0.507155,-0.1285 0.243435,-0.1352 0.331342,-0.3516 l 0.777638,0.2164 q -0.128479,0.2705 -0.371914,0.4801 -0.236672,0.2096 -0.561252,0.3313 -0.324579,0.115 -0.716779,0.115 z m -0.926404,-2.1233 h 1.852807 q -0.02705,-0.2705 -0.155527,-0.4666 -0.121717,-0.2029 -0.32458,-0.311 -0.202862,-0.115 -0.453058,-0.115 -0.243435,0 -0.446297,0.115 -0.1961,0.1081 -0.324579,0.311 -0.121718,0.1961 -0.148766,0.4666 z"
         style="fill:#ede3fa;fill-opacity:1;stroke-width:1.62859;stroke-dasharray:none"
         id="path32067" />
      <path
         d="m 51.103788,1573.0311 h 0.858782 l -1.480893,3.5434 h -0.757352 l -0.595062,-1.5215 -0.581538,1.5215 h -0.764114 l -1.474131,-3.5434 h 0.852021 l 1.054883,2.6778 0.412486,-1.1563 -0.615349,-1.5147 h 0.75059 l 0.365152,1.0819 0.371914,-1.0819 h 0.75059 l -0.615349,1.5147 0.419249,1.1563 z"
         style="fill:#ede3fa;fill-opacity:1;stroke-width:1.62859;stroke-dasharray:none"
         id="path32069" />
      <path
         d="m 54.200809,1571.7734 1.183363,2.2585 1.203648,-2.2585 h 1.007549 l -1.744615,3.1241 v 1.677 h -0.926403 v -1.6906 l -1.737852,-3.1105 z"
         style="fill:#ede3fa;fill-opacity:1;stroke-width:1.62859;stroke-dasharray:none"
         id="path32071" />
      <path
         d="m 59.049872,1576.6421 q -0.432772,0 -0.777638,-0.142 -0.344865,-0.1488 -0.5883,-0.4057 -0.236672,-0.257 -0.365152,-0.5883 -0.128479,-0.3314 -0.128479,-0.6965 0,-0.372 0.128479,-0.7033 0.12848,-0.3313 0.365152,-0.5883 0.243435,-0.257 0.5883,-0.399 0.344866,-0.1487 0.777638,-0.1487 0.432773,0 0.770876,0.1487 0.344866,0.142 0.5883,0.399 0.243435,0.257 0.365152,0.5883 0.12848,0.3313 0.12848,0.7033 0,0.3651 -0.12848,0.6965 -0.121717,0.3313 -0.365152,0.5883 -0.236672,0.2569 -0.581538,0.4057 -0.344865,0.142 -0.777638,0.142 z m -0.926403,-1.8325 q 0,0.311 0.121717,0.5545 0.121717,0.2366 0.331341,0.3719 0.209625,0.1352 0.473345,0.1352 0.256959,0 0.466583,-0.1352 0.209624,-0.142 0.331342,-0.3787 0.128479,-0.2434 0.128479,-0.5545 0,-0.3043 -0.128479,-0.5477 -0.121718,-0.2435 -0.331342,-0.3787 -0.209624,-0.1352 -0.466583,-0.1352 -0.26372,0 -0.473345,0.142 -0.209624,0.1352 -0.331341,0.3786 -0.121717,0.2367 -0.121717,0.5478 z"
         style="fill:#ede3fa;fill-opacity:1;stroke-width:1.62859;stroke-dasharray:none"
         id="path32073" />
      <path
         d="m 63.621041,1573.8155 q -0.412486,0 -0.737065,0.1623 -0.32458,0.1556 -0.466583,0.4531 v 2.1436 h -0.906118 v -3.5434 h 0.831735 v 0.7574 q 0.189338,-0.3652 0.480107,-0.5748 0.290769,-0.2096 0.615348,-0.2299 0.07438,0 0.114956,0 0.04057,0 0.06762,0.01 z"
         style="fill:#ede3fa;fill-opacity:1;stroke-width:1.62859;stroke-dasharray:none"
         id="path32075" />
      <path
         d="m 66.549009,1576.5745 -1.034596,-1.5283 -0.480107,0.4734 v 1.0549 h -0.906118 v -4.9363 h 0.906118 v 2.9888 l 1.426797,-1.5891 h 0.960214 l -1.318604,1.5012 1.413272,2.0354 z"
         style="fill:#ede3fa;fill-opacity:1;stroke-width:1.62859;stroke-dasharray:none"
         id="path32077" />
    </g>
    <g
       id="g32011-8-1"
       style="fill:#ede3fa;fill-opacity:1;stroke:none;stroke-width:0;stroke-dasharray:none;stroke-opacity:1"
       transform="matrix(0.08756138,4.360079e-5,-4.360079e-5,0.08756138,30328.225,15579.646)" />
    <g
       id="g61">
      <circle
         style="fill:#ede3fa;fill-opacity:1;stroke:none;stroke-width:1.5;stroke-linecap:round;stroke-linejoin:round;stroke-dasharray:none;stroke-opacity:1"
         id="path23-8"
         cx="30424.076"
         cy="15737.845"
         r="1.0008439" />
      <circle
         style="fill:#81d0ed;fill-opacity:1;stroke:none;stroke-width:1.5;stroke-linecap:round;stroke-linejoin:round;stroke-dasharray:none;stroke-opacity:1;paint-order:stroke fill markers"
         id="circle32003-7"
         cx="30412.576"
         cy="15745.844"
         r="1.4998275" />
      <circle
         style="fill:none;fill-opacity:1;stroke:#ede3fa;stroke-width:1.5;stroke-linecap:round;stroke-linejoin:round;stroke-dasharray:none;stroke-opacity:1"
         id="path33-8-4"
         cx="30412.576"
         cy="15745.844"
         r="1.7498264" />
      <path
         style="fill:#f763b7;fill-opacity:1;stroke:#ede3fa;stroke-width:1.5;stroke-linecap:round;stroke-linejoin:round;stroke-dasharray:none;stroke-opacity:1"
         d="m 30387.576,15754.844 -6,6"
         id="path24-9"
         sodipodi:nodetypes="cc" />
      <path
         style="fill:none;fill-opacity:1;stroke:#ede3fa;stroke-width:1.5;stroke-linecap:round;stroke-linejoin:round;stroke-dasharray:none;stroke-opacity:1"
         d="m 30383.076,15755.344 7,7"
         id="path25-6"
         sodipodi:nodetypes="cc" />
      <path
         style="fill:none;fill-opacity:1;stroke:#ede3fa;stroke-width:1.5;stroke-linecap:round;stroke-linejoin:round;stroke-dasharray:none;stroke-opacity:1"
         d="m 30391.576,15755.844 -6.5,6.5"
         id="path26-3"
         sodipodi:nodetypes="cc" />
      <path
         style="fill:none;fill-opacity:1;stroke:#ede3fa;stroke-width:1.5;stroke-linecap:round;stroke-linejoin:round;stroke-dasharray:none;stroke-opacity:1"
         d="m 30411.076,15744.344 -3,-3 v -5"
         id="path27-7" />
      <path
         style="fill:none;fill-opacity:1;stroke:#ede3fa;stroke-width:1.5;stroke-linecap:round;stroke-linejoin:round;stroke-dasharray:none;stroke-opacity:1"
         d="m 30398.576,15755.844 -2,2 v 4"
         id="path28-8"
         sodipodi:nodetypes="ccc" />
      <path
         style="fill:none;fill-opacity:1;stroke:#ede3fa;stroke-width:1.5;stroke-linecap:round;stroke-linejoin:round;stroke-dasharray:none;stroke-opacity:1"
         d="m 30405.576,15759.344 c 3,-0.356 6.5,-2 9.5,-4.5"
         id="path29-8"
         sodipodi:nodetypes="cc" />
      <path
         style="fill:none;fill-opacity:1;stroke:#ede3fa;stroke-width:1.5;stroke-linecap:round;stroke-linejoin:round;stroke-dasharray:none;stroke-opacity:1"
         d="m 30414.576,15750.844 c -0.5,1 0.229,2.915 0.5,4 0.5,2 1.806,3.721 4,7.5 l 6.5,0.126 c 0,-1.845 -1.333,-2.721 -4,-2.626 -2.5,-1.5 -1,-11 3.5,-14 1.5,0 4,-0.5 4.5,-2"
         id="path30-2"
         sodipodi:nodetypes="csccccc" />
      <path
         style="fill:none;fill-opacity:1;stroke:#ede3fa;stroke-width:1.5;stroke-linecap:round;stroke-linejoin:round;stroke-dasharray:none;stroke-opacity:1"
         d="m 30400.076,15747.344 c 10,-2 9.5,8.5 6.5,10.856 -1,0.311 -1.333,0.359 -1,1.144 5.5,-0.5 7,0.5 7.5,3 0,0 -15,0.5 -16.5,-0.5"
         id="path31-9"
         sodipodi:nodetypes="ccccc" />
      <path
         style="fill:none;fill-opacity:1;stroke:#ede3fa;stroke-width:1.5;stroke-linecap:round;stroke-linejoin:round;stroke-dasharray:none;stroke-opacity:1"
         d="m 30428.076,15743.344 c 3,0.5 4.5,-1.85 4.5,-4.5 0,-1 0.5,-1.5 -1,-2 -6.206,-3.206 -10,-4 -13.5,-3 -1,-2.5 -4.5,-0.631 -4,1 0,1.5 -4,1.5 -6,1.5 -12.24,0 -20.127,8.555 -16.5,19.5 0.03,0.09 -2.419,-1 -4,-1 -3,0 -3.101,0.08 -4.5,0.5 -3.105,0.927 -1.959,4.962 -1.5,5.5 1.065,1.247 3.49,1.525 3.5,1.5 h 6 c 3.259,0 3.688,-0.688 5.5,-0.5"
         id="path32-1" />
      <circle
         style="fill:#81d0ed;fill-opacity:1;stroke:none;stroke-width:1.5;stroke-linecap:round;stroke-linejoin:round;stroke-dasharray:none;stroke-opacity:1;paint-order:stroke fill markers"
         id="circle32003"
         cx="30400.078"
         cy="15754.345"
         r="1.4978746" />
      <circle
         style="fill:none;fill-opacity:1;stroke:#ede3fa;stroke-width:1.5;stroke-linecap:round;stroke-linejoin:round;stroke-dasharray:none;stroke-opacity:1"
         id="path33-3"
         cx="30400.078"
         cy="15754.344"
         r="1.7498264" />
      <path
         style="fill:none;fill-opacity:1;stroke:#ede3fa;stroke-width:1.5;stroke-linecap:round;stroke-linejoin:round;stroke-dasharray:none;stroke-opacity:1"
         d="m 30431.576,15736.844 c -0.777,1.556 -0.444,2.723 1,2.5"
         id="path34-5"
         sodipodi:nodetypes="cc" />
    </g>
    <g
       id="g62">
      <circle
         style="fill:#81d0ed;fill-opacity:1;stroke:none;stroke-width:1.55309;stroke-linecap:round;stroke-linejoin:round;stroke-dasharray:none;stroke-opacity:1;paint-order:stroke fill markers"
         id="circle48"
         cx="-30440.076"
         cy="15745.344"
         r="1.4998274"
         transform="scale(-1,1)" />
      <circle
         style="fill:#81d0ed;fill-opacity:1;stroke:none;stroke-width:1.5;stroke-linecap:round;stroke-linejoin:round;stroke-dasharray:none;stroke-opacity:1;paint-order:stroke fill markers"
         id="circle49"
         cx="-30443.576"
         cy="15737.844"
         r="1.4997799"
         inkscape:transform-center-x="-0.62500002"
         inkscape:transform-center-y="-0.076950962"
         transform="scale(-1,1)" />
      <circle
         style="fill:#81d0ed;fill-opacity:1;stroke:none;stroke-width:1.5;stroke-linecap:round;stroke-linejoin:round;stroke-dasharray:none;stroke-opacity:1;paint-order:stroke fill markers"
         id="circle53"
         cx="-30443.576"
         cy="-15752.845"
         r="1.4997799"
         inkscape:transform-center-x="-0.62500002"
         inkscape:transform-center-y="0.077345905"
         transform="scale(-1)" />
      <g
         id="g52"
         transform="matrix(-0.95756783,0,0,0.95756783,30408.372,15124.891)"
         style="stroke:#ede3fa;stroke-width:1.56647;stroke-dasharray:none;stroke-opacity:1">
        <path
           style="fill:none;stroke:#ede3fa;stroke-width:1.56647;stroke-linecap:round;stroke-linejoin:round;stroke-dasharray:none;stroke-opacity:1;paint-order:stroke fill markers"
           d="m -49.817425,644.81377 h 8.354499 l 3.132938,-3.13294"
           id="path49"
           sodipodi:nodetypes="ccc" />
        <circle
           style="fill:none;stroke:#ede3fa;stroke-width:1.56647;stroke-linecap:round;stroke-linejoin:round;stroke-dasharray:none;stroke-opacity:1;paint-order:stroke fill markers"
           id="circle50"
           cx="-36.763767"
           cy="640.11414"
           r="1.8275465" />
        <circle
           style="fill:none;stroke:#ede3fa;stroke-width:1.56647;stroke-linecap:round;stroke-linejoin:round;stroke-dasharray:none;stroke-opacity:1;paint-order:stroke fill markers"
           id="circle51"
           cx="-33.108673"
           cy="647.94672"
           r="1.8274232" />
        <path
           style="fill:none;fill-opacity:1;stroke:#ede3fa;stroke-width:1.56647;stroke-linecap:round;stroke-linejoin:round;stroke-dasharray:none;stroke-opacity:1;paint-order:stroke fill markers"
           d="m -49.817425,647.94671 h 14.620373"
           id="path51"
           sodipodi:nodetypes="cc" />
        <path
           style="fill:none;stroke:#ede3fa;stroke-width:1.56647;stroke-linecap:round;stroke-linejoin:round;stroke-dasharray:none;stroke-opacity:1;paint-order:stroke fill markers"
           d="m -49.817425,651.07941 h 8.354499 l 3.132938,3.13294"
           id="path53"
           sodipodi:nodetypes="ccc" />
        <circle
           style="fill:none;stroke:#ede3fa;stroke-width:1.56647;stroke-linecap:round;stroke-linejoin:round;stroke-dasharray:none;stroke-opacity:1;paint-order:stroke fill markers"
           id="circle54"
           cx="-36.763767"
           cy="-655.77905"
           r="1.8275465"
           transform="scale(1,-1)" />
      </g>
    </g>
    <g
       id="g63"
       transform="translate(0.28439596)">
      <circle
         style="fill:#81d0ed;fill-opacity:1;stroke:none;stroke-width:1.55309;stroke-linecap:round;stroke-linejoin:round;stroke-dasharray:none;stroke-opacity:1;paint-order:stroke fill markers"
         id="circle55"
         cx="30373.791"
         cy="15745.344"
         r="1.4998274" />
      <circle
         style="fill:#81d0ed;fill-opacity:1;stroke:none;stroke-width:1.5;stroke-linecap:round;stroke-linejoin:round;stroke-dasharray:none;stroke-opacity:1;paint-order:stroke fill markers"
         id="circle56"
         cx="30370.291"
         cy="15737.844"
         r="1.4997799"
         inkscape:transform-center-x="0.62453865"
         inkscape:transform-center-y="-0.076950962" />
      <circle
         style="fill:#81d0ed;fill-opacity:1;stroke:none;stroke-width:1.5;stroke-linecap:round;stroke-linejoin:round;stroke-dasharray:none;stroke-opacity:1;paint-order:stroke fill markers"
         id="circle57"
         cx="30370.291"
         cy="-15752.845"
         r="1.4997799"
         inkscape:transform-center-x="0.62453865"
         inkscape:transform-center-y="0.077345905"
         transform="scale(1,-1)" />
      <g
         id="g60"
         transform="matrix(0.95756783,0,0,0.95756783,30405.356,15124.891)"
         style="stroke:#ede3fa;stroke-width:1.56647;stroke-dasharray:none;stroke-opacity:1">
        <path
           style="fill:none;stroke:#ede3fa;stroke-width:1.56647;stroke-linecap:round;stroke-linejoin:round;stroke-dasharray:none;stroke-opacity:1;paint-order:stroke fill markers"
           d="m -49.672475,644.81408 h 8.354499 l 3.132938,-3.13294"
           id="path57"
           sodipodi:nodetypes="ccc" />
        <circle
           style="fill:none;stroke:#ede3fa;stroke-width:1.56647;stroke-linecap:round;stroke-linejoin:round;stroke-dasharray:none;stroke-opacity:1;paint-order:stroke fill markers"
           id="circle58"
           cx="-36.618816"
           cy="640.11444"
           r="1.8275465" />
        <circle
           style="fill:none;stroke:#ede3fa;stroke-width:1.56647;stroke-linecap:round;stroke-linejoin:round;stroke-dasharray:none;stroke-opacity:1;paint-order:stroke fill markers"
           id="circle59"
           cx="-32.963722"
           cy="647.94702"
           r="1.8274232" />
        <path
           style="fill:none;fill-opacity:1;stroke:#ede3fa;stroke-width:1.56647;stroke-linecap:round;stroke-linejoin:round;stroke-dasharray:none;stroke-opacity:1;paint-order:stroke fill markers"
           d="m -49.672475,647.94702 h 14.620373"
           id="path59"
           sodipodi:nodetypes="cc" />
        <path
           style="fill:none;stroke:#ede3fa;stroke-width:1.56647;stroke-linecap:round;stroke-linejoin:round;stroke-dasharray:none;stroke-opacity:1;paint-order:stroke fill markers"
           d="m -49.672475,651.07972 h 8.354499 l 3.132938,3.13294"
           id="path60"
           sodipodi:nodetypes="ccc" />
        <circle
           style="fill:none;stroke:#ede3fa;stroke-width:1.56647;stroke-linecap:round;stroke-linejoin:round;stroke-dasharray:none;stroke-opacity:1;paint-order:stroke fill markers"
           id="circle60"
           cx="-36.618816"
           cy="-655.77936"
           r="1.8275465"
           transform="scale(1,-1)" />
      </g>
    </g>
  </g>
</svg>
