<?xml version="1.0" encoding="UTF-8" standalone="no"?>
<!-- Created with Inkscape (http://www.inkscape.org/) -->

<svg
   width="135.5741mm"
   height="135.5741mm"
   viewBox="0 0 135.57409 135.57409"
   version="1.1"
   id="svg1"
   inkscape:version="1.4.3 (0d15f75, 2025-12-25)"
   sodipodi:docname="acmccny.svg"
   inkscape:export-filename="./acmccny.png"
   inkscape:export-xdpi="96"
   inkscape:export-ydpi="96"
   xmlns:inkscape="http://www.inkscape.org/namespaces/inkscape"
   xmlns:sodipodi="http://sodipodi.sourceforge.net/DTD/sodipodi-0.dtd"
   xmlns="http://www.w3.org/2000/svg"
   xmlns:svg="http://www.w3.org/2000/svg">
  <sodipodi:namedview
     id="namedview1"
     pagecolor="#505050"
     bordercolor="#eeeeee"
     borderopacity="1"
     inkscape:showpageshadow="0"
     inkscape:pageopacity="0"
     inkscape:pagecheckerboard="0"
     inkscape:deskcolor="#505050"
     inkscape:document-units="mm"
     inkscape:zoom="2"
     inkscape:cx="112.75"
     inkscape:cy="121.75"
     inkscape:window-width="1920"
     inkscape:window-height="1057"
     inkscape:window-x="1912"
     inkscape:window-y="-8"
     inkscape:window-maximized="1"
     inkscape:current-layer="layer1"
     showgrid="true">
    <inkscape:page
       x="0"
       y="0"
       width="135.5741"
       height="135.5741"
       id="page2"
       margin="0"
       bleed="0"
       inkscape:export-filename="logos.png"
       inkscape:export-xdpi="8"
       inkscape:export-ydpi="8" />
    <inkscape:grid
       id="grid5"
       units="mm"
       originx="-3512.2132"
       originy="-2919.9985"
       spacingx="0.99999995"
       spacingy="1"
       empcolor="#0099e5"
       empopacity="0.30196078"
       color="#0099e5"
       opacity="0.14901961"
       empspacing="5"
       enabled="true"
       visible="true" />
  </sodipodi:namedview>
  <defs
     id="defs1">
    <linearGradient
       id="swatch145"
       inkscape:swatch="solid">
      <stop
         style="stop-color:#000000;stop-opacity:1;"
         offset="0"
         id="stop145" />
    </linearGradient>
    <linearGradient
       id="swatch15"
       inkscape:swatch="solid">
      <stop
         style="stop-color:#e0a6f9;stop-opacity:0.95914745;"
         offset="0"
         id="stop15" />
    </linearGradient>
    <linearGradient
       id="swatch262"
       inkscape:swatch="solid">
      <stop
         style="stop-color:#985dff;stop-opacity:1;"
         offset="0"
         id="stop262" />
    </linearGradient>
    <linearGradient
       id="swatch369"
       inkscape:swatch="solid">
      <stop
         style="stop-color:#000000;stop-opacity:1;"
         offset="0"
         id="stop369" />
    </linearGradient>
    <linearGradient
       id="swatch1"
       inkscape:swatch="solid">
      <stop
         style="stop-color:#ffffff;stop-opacity:1;"
         offset="0"
         id="stop1" />
    </linearGradient>
    <inkscape:path-effect
       effect="fillet_chamfer"
       id="path-effect619-9-3-9-3"
       is_visible="true"
       lpeversion="1"
       nodesatellites_param="F,0,0,1,0,1589.9254,0,1 @ F,0,0,1,0,1589.9254,0,1 @ F,0,0,1,0,1589.9254,0,1 @ F,0,0,1,0,1589.9254,0,1 @ F,0,0,1,0,1589.9254,0,1 @ F,0,0,1,0,1589.9254,0,1 @ F,0,0,1,0,1589.9254,0,1 @ F,0,0,1,0,1589.9254,0,1 @ F,0,0,1,0,1589.9254,0,1 @ F,0,0,1,0,1589.9254,0,1 @ F,0,0,1,0,1589.9254,0,1 @ F,0,0,1,0,1589.9254,0,1 @ F,0,0,1,0,1589.9254,0,1 @ F,0,0,1,0,1589.9254,0,1 @ F,0,0,1,0,1589.9254,0,1 @ F,0,0,1,0,1589.9254,0,1"
       radius="308"
       unit="px"
       method="auto"
       mode="F"
       chamfer_steps="1"
       flexible="false"
       use_knot_distance="true"
       apply_no_radius="true"
       apply_with_radius="true"
       only_selected="false"
       hide_knots="false" />
    <linearGradient
       id="swatch140"
       inkscape:swatch="solid">
      <stop
         style="stop-color:#aad5ec;stop-opacity:1;"
         offset="0"
         id="stop140" />
    </linearGradient>
    <linearGradient
       id="swatch41"
       inkscape:swatch="solid"
       inkscape:label="Purple">
      <stop
         style="stop-color:#634da0;stop-opacity:1;"
         offset="0"
         id="stop41" />
    </linearGradient>
    <inkscape:path-effect
       effect="fillet_chamfer"
       id="path-effect619-9-3-9-3-1"
       is_visible="true"
       lpeversion="1"
       nodesatellites_param="F,0,0,1,0,1589.9254,0,1 @ F,0,0,1,0,1589.9254,0,1 @ F,0,0,1,0,1589.9254,0,1 @ F,0,0,1,0,1589.9254,0,1 @ F,0,0,1,0,1589.9254,0,1 @ F,0,0,1,0,1589.9254,0,1 @ F,0,0,1,0,1589.9254,0,1 @ F,0,0,1,0,1589.9254,0,1 @ F,0,0,1,0,1589.9254,0,1 @ F,0,0,1,0,1589.9254,0,1 @ F,0,0,1,0,1589.9254,0,1 @ F,0,0,1,0,1589.9254,0,1 @ F,0,0,1,0,1589.9254,0,1 @ F,0,0,1,0,1589.9254,0,1 @ F,0,0,1,0,1589.9254,0,1 @ F,0,0,1,0,1589.9254,0,1"
       radius="308"
       unit="px"
       method="auto"
       mode="F"
       chamfer_steps="1"
       flexible="false"
       use_knot_distance="true"
       apply_no_radius="true"
       apply_with_radius="true"
       only_selected="false"
       hide_knots="false" />
  </defs>
  <g
     inkscape:label="Layer 1"
     inkscape:groupmode="layer"
     id="layer1"
     transform="translate(-30339.076,-15659.344)">
    <path
       sodipodi:type="star"
       style="fill:#7d55c7;fill-opacity:1;stroke:none;stroke-width:51.3107;stroke-linecap:round;stroke-linejoin:round;stroke-dasharray:none;stroke-opacity:1;paint-order:stroke fill markers"
       id="path31993"
       inkscape:flatsided="true"
       sodipodi:sides="6"
       sodipodi:cx="-4266.3281"
       sodipodi:cy="7040.104"
       sodipodi:r1="2240"
       sodipodi:r2="1939.8969"
       sodipodi:arg1="-1.5707963"
       sodipodi:arg2="-1.0471976"
       inkscape:rounded="0.05"
       inkscape:randomized="0"
       d="m -4266.3281,4800.104 c 112,0 1883.8969,1023.0052 1939.8969,1120.0001 56,96.9948 56,2143.0051 -1e-4,2240 -56,96.9948 -1827.8969,1119.9999 -1939.8969,1119.9999 -112,0 -1883.8969,-1023.0052 -1939.8969,-1120 -56,-96.9949 -55.9999,-2143.0052 10e-5,-2240 56,-96.9949 1827.8969,-1120 1939.8969,-1120 z"
       transform="matrix(0.03027416,0,0,0.03026202,30536.022,15514.083)"
       inkscape:transform-center-x="0.00073315821"
       inkscape:transform-center-y="-0.00040406278"
       inkscape:export-filename="..\..\path9332.png"
       inkscape:export-xdpi="96"
       inkscape:export-ydpi="96" />
    <path
       d="m 30368.3,15713.768 v -4.631 l 3.739,-3.738 h 10.276 v -2.559 l -1.259,-1.259 h -6.092 l -1.219,1.259 v 1.137 h -5.281 v -2.314 l 4.346,-4.388 h 10.44 l 4.345,4.388 v 15.842 h -4.833 v -2.883 l -3.005,2.883 h -7.718 z m 11.091,-0.406 2.924,-2.804 v -1.34 h -7.637 l -1.097,1.095 v 2.032 l 1.014,1.017 z m 12.47,0 v -11.943 l 4.102,-4.144 h 11.13 l 4.185,4.225 v 3.737 h -5.362 v -1.99 l -1.423,-1.423 h -5.849 l -1.422,1.423 v 8.287 l 1.422,1.421 h 5.849 l 1.423,-1.421 v -1.99 h 5.362 v 3.736 l -4.185,4.225 h -11.13 z m 23.072,-16.087 h 4.956 v 3.332 l 3.291,-3.332 h 5.118 l 2.762,2.804 2.761,-2.804 h 7.07 l 4.346,4.388 v 15.842 h -5.361 v -14.258 l -1.382,-1.423 h -3.411 l -2.154,2.153 v 13.528 h -5.199 v -14.339 l -1.301,-1.342 h -2.436 l -3.697,3.738 v 11.943 h -5.363 z"
       id="path31999"
       style="font-weight:bold;font-size:975.867px;font-family:'Chakra Petch';-inkscape-font-specification:'Chakra Petch, Bold';fill:#ede3fa;fill-opacity:1;stroke:none;stroke-width:0;stroke-linecap:round;stroke-linejoin:round;stroke-opacity:1"
       aria-label="acm" />
    <circle
       style="fill:#81d0ed;fill-opacity:1;stroke:none;stroke-width:1.55308;stroke-linecap:round;stroke-linejoin:round;stroke-dasharray:none;stroke-opacity:1;paint-order:stroke fill markers"
       id="circle32001"
       cx="30412.301"
       cy="15745.504"
       r="1.5722023" />
    <circle
       style="fill:#81d0ed;fill-opacity:1;stroke:none;stroke-width:1.55308;stroke-linecap:round;stroke-linejoin:round;stroke-dasharray:none;stroke-opacity:1;paint-order:stroke fill markers"
       id="circle32003"
       cx="30399.598"
       cy="15754.845"
       r="1.5722023" />
    <g
       id="g32011"
       style="fill:#ede3fa;fill-opacity:1;stroke:none;stroke-width:0;stroke-dasharray:none;stroke-opacity:1"
       transform="matrix(0.05430932,2.7043077e-5,-2.7043077e-5,0.05430932,30280.737,15674.317)">
      <path
         style="fill:#ede3fa;fill-opacity:1;stroke:none;stroke-width:0;stroke-dasharray:none;stroke-opacity:1"
         d="m 2033.7448,1490.3612 c -46.9476,-22.8823 -120.8909,-26.1055 -166.7433,0.4295 -50.3748,29.1521 -55.8356,94.7899 -5.5213,127.634 27.5413,17.9784 62.0011,19.9074 93.8621,19.9074 38.091,0 75.9265,-2.9539 113.7388,-6.7177 21.8563,-2.1755 44.2519,-8.1017 66.1636,-8.834 5.2273,-0.1747 11.7481,5.6531 16.6559,7.6071 10.6882,4.2555 21.7116,6.7161 33.1278,7.8525 39.2663,3.9085 80.8818,0.092 120.3644,0.092 h 98.2791 c 10.8359,0 29.5855,3.6576 38.4037,-3.8343 14.9378,-12.6909 -5.6188,-40.8583 -15.2142,-50.2745 -21.8669,-21.4581 -51.0124,-20.9809 -79.5068,-20.9809 -10.0424,0 -21.0371,-1.3702 -30.9192,0 9.7809,-15.4163 35.4367,-13.3728 51.9002,-16.9934 23.1172,-5.0836 46.5359,-14.0612 67.3598,-25.2446 10.7044,-5.7486 20.9199,-13.7376 32.0236,-18.4963 1.2662,10.3921 9.1624,21.7637 14.0793,30.9193 13.2068,24.5918 27.4688,48.5189 42.9741,71.7769 6.191,9.2864 13.3715,26.2694 23.5576,31.4101 6.3438,3.2015 15.1755,1.7177 22.0852,1.7177 h 45.2746 50.796 c 7.5644,0 15.6463,0.045 19.57,-7.7298 3.8622,-7.6531 0.3531,-17.02 -2.5766,-24.2938 -8.3829,-20.8127 -26.5862,-38.3271 -49.0169,-42.6366 -8.2659,-1.5882 -24.9274,1.9636 -31.7475,-2.3313 -4.9609,-3.1241 -6.9483,-13.8138 -8.4354,-19.0791 -4.7116,-16.6838 -9.3425,-35.5709 -8.3739,-53.0045 2.1129,-38.0312 15.9463,-74.4067 32.8517,-108.2175 7.9341,-15.8682 17.2856,-33.3756 31.1647,-44.8452 22.9225,-18.943 50.6126,-14.3195 76.1939,-26.1035 10.7873,-4.9691 20.7308,-11.3586 28.2813,-20.7049 4.0812,-5.0517 6.3568,-11.7722 10.6439,-16.4719 7.17,-7.8598 18.5599,-11.5354 26.1342,-19.9686 17.043,-18.9759 24.6404,-47.0343 27.7905,-71.777 1.3128,-10.3116 1.4763,-21.5016 -3.8648,-30.9192 -4.2925,-7.5686 -12.1556,-11.6872 -19.4167,-15.8891 -14.9956,-8.6781 -30.4288,-16.4329 -46.3789,-23.1895 -46.8024,-19.8259 -93.81,-36.3791 -144.6581,-41.4404 -16.4601,-1.6384 -33.2259,-1.0142 -49.6917,-0.061 -5.3057,0.307 -11.2866,2.6108 -16.5639,2.0244 -6.0272,-0.6696 -12.1454,-6.9648 -17.6681,-9.5088 -13.7041,-6.3128 -31.5866,-6.4005 -45.2747,0 -12.9608,6.0602 -23.5102,17.7224 -27.1464,31.7474 -1.3881,5.3543 0.4761,15.2123 -2.3619,19.6006 -3.9369,6.0877 -22.2635,8.4248 -29.0175,9.785 -40.237,8.1033 -81.8488,1.4162 -122.5728,3.7729 -23.4762,1.3586 -47.1165,6.1004 -69.5684,13.2205 -143.4714,45.4981 -217.7947,208.5327 -191.037,350.0504 m 733.2287,-340.1121 c -2.1196,5.4241 -5.6876,10.4865 -5.4907,16.5639 0.4262,13.1486 15.1014,26.0865 27.5759,27.6065 -5.5051,19.2686 -12.125,43.7741 -33.1278,51.164 -12.0719,4.2475 -32.6091,-1.832 -41.8699,7.4538 -11.7378,11.7693 4.5307,21.9932 15.3676,21.9932 -8.2347,12.7612 -27.1387,14.7768 -40.8576,16.8093 -18.2427,2.7026 -36.1646,8.4099 -50.796,20.0607 -22.7939,18.1507 -36.8336,44.2586 -48.8635,70.2432 -26.8489,57.9939 -45.6077,132.2473 -11.7788,192.1413 10.3365,18.3007 28.6739,13.7985 46.287,15.5517 14.2739,1.4207 26.2777,7.9499 33.1278,20.8889 h -68.4642 c -6.8719,0 -20.3639,2.5947 -26.4102,-0.7976 -7.5333,-4.2265 -14.4426,-19.6241 -19.2325,-26.809 -16.3336,-24.5003 -32.247,-49.4454 -44.6305,-76.1939 -12.4671,-26.9289 -24.5698,-56.0991 -24.5698,-86.1323 0,-9.0906 1.3616,-22.5937 -11.0426,-24.2016 -8.6264,-1.1183 -14.2827,6.415 -14.3554,14.2633 -0.1551,16.7549 0.9625,32.1888 4.417,48.5874 0.9561,4.5382 5.744,13.4018 2.9141,17.5761 -5.0551,7.4569 -18.4595,12.6618 -26.1035,17.0854 -25.8041,14.9329 -54.7414,23.8679 -83.9238,29.3856 6.1067,-15.628 13.8663,-29.6332 17.2387,-46.3789 9.613,-47.7327 -6.5724,-94.507 -42.6367,-126.8979 -26.3174,-23.637 -63.6588,-33.3025 -98.2791,-28.8948 -10.5767,1.3466 -29.7653,2.6817 -35.3977,13.3431 -3.8901,7.3635 1.7365,17.7623 9.9997,18.6805 8.4235,0.9359 19.1225,-4.4178 27.6065,-5.6747 11.7307,-1.7379 23.7196,-1.1509 35.3363,1.1349 76.7754,15.1064 95.9665,100.8009 62.6668,162.5409 -8.637,16.0138 -21.5747,31.9352 -35.0603,44.0784 -7.0553,6.353 -15.2233,14.2735 -8.9874,24.3858 7.159,11.6093 28.0953,9.9383 39.9067,9.9383 28.4032,0 80.3515,-7.8242 97.1749,20.981 -52.9345,0 -106.1022,-1.4699 -159.0134,0 -26.6189,0.7394 -56.6508,5.0384 -82.8196,-1.5644 -6.7947,-1.7145 -19.8195,-5.2257 -23.4961,-11.7788 -2.0393,-3.6347 -0.7976,-10.2132 -0.7976,-14.2634 v -32.0235 c 0,-4.2348 -1.1417,-10.4769 0.7976,-14.3554 4.104,-8.2082 14.8149,-15.6125 21.2876,-22.0852 -7.107,-3.1355 -14.4822,-9.4107 -17.6681,-16.5639 -8.7868,5.5748 -26.7772,20.9778 -30.3672,30.9193 -2.139,5.9234 -0.5521,14.7303 -0.5521,20.9809 v 47.4832 c -26.1844,0.4401 -53.4049,6.328 -79.5067,8.9262 -8.6961,0.8655 -21.288,4.6105 -29.8151,1.7484 -11.9509,-4.0113 -25.3232,-23.851 -34.232,-32.7598 v -1.1042 c 16.8806,-16.8806 34.6668,-41.4394 55.213,-53.71 9.1308,-5.4531 20.8366,11.0183 28.7721,-4.8158 5.1105,-10.1974 -4.3472,-32.9444 -5.4906,-44.1704 -2.9715,-29.1739 -3.0492,-58.1655 1.2576,-87.2366 14.27,-96.323 77.4613,-183.9212 170.9149,-216.803 32.1684,-11.3186 65.5861,-13.9874 99.3834,-13.9874 v 50.796 l 0.5215,24.2937 16.0424,18.7725 43.0662,43.0661 c 1.7785,-7.2981 8.404,-15.089 15.4596,-17.6682 l -47.7899,-50.7959 -0.7975,-19.8767 v -47.4832 c 36.1244,0 85.3478,1.8365 114.843,-23.4349 13.8304,-11.8498 -6.6978,-38.7223 19.8767,-45.6734 8.8248,-2.3083 18.9164,-0.8774 26.5022,4.4784 4.5804,3.2339 7.8021,9.3739 13.9259,9.6623 10.7044,0.5041 21.7782,-2.9097 32.4531,-3.5275 20.919,-1.2106 42.3084,0.4706 62.9428,3.5275 51.5509,7.6371 93.8756,32.0016 141.3453,50.5506 m -129.1985,-10.5825 c -24.7611,5.7318 -14.5288,43.7562 9.9384,36.5632 22.8727,-6.7241 12.9012,-41.8502 -9.9384,-36.5632 m -700.1009,360.6329 -17.6681,16.5639 -11.0426,-13.2511 28.7107,-3.3128 m 69.5684,8.8341 c -5.7333,12.7186 -24.2596,25.3639 -34.232,35.3363 -2.7292,2.7292 -7.9475,10.3065 -12.1469,10.3065 -6.1605,0 -16.7393,-14.8989 -20.9809,-19.1405 l 24.2937,-24.2938 9.9383,-8.374 33.1278,6.1655 m -103.8004,25.398 v 1.1043 l -29.815,29.815 -15.4597,13.2511 c -7.9829,-20.4293 -9.0067,-37.4887 7.7298,-54.1087 3.2382,-3.2156 10.3332,-10.9562 15.4597,-10.3984 7.0352,0.7653 17.1706,15.4221 22.0852,20.3367 m 18.7724,18.7724 c 4.2416,4.2416 19.1405,14.8205 19.1405,20.981 0,4.7101 -9.4077,11.2481 -12.5149,14.3553 -5.3024,5.3024 -12.7458,16.3248 -19.8767,18.8338 -8.7002,3.0612 -24.2231,-6.9516 -32.0236,-9.9997 9.5671,-15.0791 30.1911,-34.6006 45.2747,-44.1704 m 38.6491,39.7534 17.6682,17.6682 h -36.4406 v -1.1043 z"
         id="path32005"
         sodipodi:nodetypes="csssssssssssscsscsssscsssssssssssssssssssssssssssccscsscssssscsssssssssscssssssssssscssssssccsscssccssssscccccccccssssssccsccccccssccccccccssccsssccccccc" />
      <path
         d="m 2182.5066,1527.039 c -12.4892,-2.096 -31.8884,-18.1257 -36.4939,-30.1553 -17.3948,-45.4357 41.6591,-82.2348 76.3179,-47.5572 31.2106,31.2274 3.6503,85.0084 -39.824,77.7125 z m 16.5439,-27.9366 c 12.6176,-6.437 14.8847,-23.0156 4.438,-32.4536 -16.378,-14.7965 -41.3312,2.6046 -32.7189,22.8166 4.3837,10.2882 17.9458,14.9096 28.2809,9.637 z"
         style="fill:#ede3fa;fill-opacity:1;stroke:none;stroke-width:0;stroke-dasharray:none;stroke-opacity:1"
         id="path32007"
         sodipodi:nodetypes="ssssssss" />
      <path
         d="m 2377.7971,1302.7936 c 2.096,-12.4892 18.1257,-31.8884 30.1553,-36.4939 45.4357,-17.3948 82.2348,41.6591 47.5572,76.3179 -31.2274,31.2106 -85.0084,3.6503 -77.7125,-39.824 z m 27.9366,16.5439 c 6.437,12.6176 23.0156,14.8847 32.4536,4.438 14.7965,-16.378 -2.6046,-41.3312 -22.8166,-32.7189 -10.2882,4.3837 -14.9096,17.9458 -9.637,28.2809 z"
         style="fill:#ede3fa;fill-opacity:1;stroke:none;stroke-width:0;stroke-dasharray:none;stroke-opacity:1"
         id="path32009" />
    </g>
    <path
       sodipodi:type="star"
       style="fill:none;fill-opacity:1;stroke:#ede3fa;stroke-width:62.2591;stroke-linecap:round;stroke-linejoin:round;stroke-dasharray:none;stroke-opacity:1;paint-order:stroke fill markers"
       id="path32015"
       inkscape:flatsided="true"
       sodipodi:sides="6"
       sodipodi:cx="-4266.3281"
       sodipodi:cy="7040.104"
       sodipodi:r1="2240"
       sodipodi:r2="1939.8969"
       sodipodi:arg1="-1.5707963"
       sodipodi:arg2="-1.0471976"
       inkscape:rounded="0.05"
       inkscape:randomized="0"
       d="m -4266.3281,4800.104 c 112,0 1883.8969,1023.0052 1939.8969,1120.0001 56,96.9948 56,2143.0051 -1e-4,2240 -56,96.9948 -1827.8969,1119.9999 -1939.8969,1119.9999 -112,0 -1883.8969,-1023.0052 -1939.8969,-1120 -56,-96.9949 -55.9999,-2143.0052 10e-5,-2240 56,-96.9949 1827.8969,-1120 1939.8969,-1120 z"
       transform="matrix(0.02494586,0,0,0.02494485,30513.291,15551.516)"
       inkscape:transform-center-x="-0.00053887557"
       inkscape:transform-center-y="-0.00080926534" />
    <g
       aria-label="The City College of New York "
       id="g32079"
       style="font-weight:bold;font-size:6.76207px;font-family:Raleway;-inkscape-font-specification:'Raleway Bold';fill:#ede3fa;fill-opacity:1;stroke-width:1.73879;stroke-linecap:round;stroke-linejoin:round;paint-order:stroke fill markers"
       transform="matrix(0.8931898,0,0,0.8931898,30388.226,14317.783)">
      <path
         d="m -21.787011,1572.5916 h -1.53499 v 3.9829 h -0.926403 v -3.9829 h -1.53499 v -0.8182 h 3.996383 z"
         style="fill:#ede3fa;fill-opacity:1;stroke-width:1.7388"
         id="path32033" />
      <path
         d="m -17.986731,1576.5745 h -0.906117 v -1.9881 q 0,-0.4125 -0.16229,-0.6153 -0.155527,-0.2029 -0.432772,-0.2029 -0.16229,0 -0.344866,0.095 -0.182576,0.095 -0.331341,0.2637 -0.142004,0.1623 -0.209624,0.3787 v 2.0692 h -0.906118 v -4.9363 h 0.906118 v 2.0489 q 0.1961,-0.3381 0.534203,-0.5275 0.338104,-0.1893 0.737066,-0.1893 0.344865,0 0.561252,0.1217 0.216386,0.115 0.338103,0.3178 0.121717,0.1961 0.169052,0.4463 0.04733,0.2434 0.04733,0.5072 z"
         style="fill:#ede3fa;fill-opacity:1;stroke-width:1.7388"
         id="path32035" />
      <path
         d="m -15.552385,1576.6421 q -0.42601,0 -0.770876,-0.142 -0.344865,-0.1488 -0.5883,-0.399 -0.243434,-0.2569 -0.378676,-0.5815 -0.128479,-0.3314 -0.128479,-0.6965 0,-0.5072 0.223148,-0.9264 0.229911,-0.4193 0.649159,-0.6695 0.42601,-0.2569 1.000786,-0.2569 0.581538,0 0.994025,0.2569 0.412486,0.2502 0.628872,0.6695 0.223148,0.4125 0.223148,0.8926 0,0.081 -0.0068,0.169 -0.0068,0.081 -0.01352,0.1353 h -2.738638 q 0.02705,0.2705 0.155527,0.4733 0.135242,0.2029 0.338104,0.3111 0.209624,0.1014 0.446297,0.1014 0.270482,0 0.507155,-0.1285 0.243434,-0.1352 0.331341,-0.3516 l 0.777638,0.2164 q -0.128479,0.2705 -0.371914,0.4801 -0.236672,0.2096 -0.561251,0.3313 -0.32458,0.115 -0.71678,0.115 z m -0.926403,-2.1233 h 1.852807 q -0.02705,-0.2705 -0.155528,-0.4666 -0.121717,-0.2029 -0.324579,-0.311 -0.202862,-0.115 -0.453059,-0.115 -0.243434,0 -0.446297,0.115 -0.1961,0.1081 -0.324579,0.311 -0.121717,0.1961 -0.148765,0.4666 z"
         style="fill:#ede3fa;fill-opacity:1;stroke-width:1.7388"
         id="path32037" />
      <path
         d="m -11.725048,1574.1401 q 0,-0.4395 0.155527,-0.8588 0.16229,-0.426 0.466583,-0.7708 0.304293,-0.3517 0.743828,-0.5545 0.4395346,-0.2097 1.0007864,-0.2097 0.6626829,0 1.1427898,0.2908 0.4868691,0.2908 0.7235416,0.7574 l -0.7167795,0.4936 q -0.1217173,-0.2705 -0.3178173,-0.426 -0.1961,-0.1623 -0.4192483,-0.2232 -0.2231484,-0.068 -0.4395346,-0.068 -0.3516276,0 -0.6153481,0.142 -0.256959,0.142 -0.432773,0.3719 -0.175814,0.2299 -0.263721,0.514 -0.08114,0.284 -0.08114,0.568 0,0.3178 0.101431,0.6153 0.101431,0.2908 0.284007,0.5207 0.189338,0.2231 0.4462963,0.3584 0.2637207,0.1285 0.5747759,0.1285 0.2231484,0 0.4530587,-0.074 0.2299104,-0.074 0.4260105,-0.2367 0.1961,-0.1623 0.3042931,-0.4192 l 0.764114,0.4395 q -0.1420035,0.3584 -0.4665829,0.6086 -0.3178173,0.2502 -0.7167794,0.3787 -0.3989622,0.1284 -0.7911622,0.1284 -0.5139174,0 -0.939928,-0.2096 -0.42601,-0.2164 -0.737065,-0.568 -0.304294,-0.3584 -0.480107,-0.7979 -0.169052,-0.4463 -0.169052,-0.8994 z"
         style="fill:#ede3fa;fill-opacity:1;stroke-width:1.7388"
         id="path32039" />
      <path
         d="m -6.8834007,1576.5745 v -3.5434 h 0.9061174 v 3.5434 z m 0,-4.037 v -0.8993 h 0.9061174 v 0.8993 z"
         style="fill:#ede3fa;fill-opacity:1;stroke-width:1.7388"
         id="path32041" />
      <path
         d="m -3.0357874,1576.3919 q -0.1149552,0.047 -0.2772449,0.1082 -0.1622897,0.061 -0.3516276,0.095 -0.1825759,0.041 -0.3719139,0.041 -0.2501966,0 -0.4598208,-0.088 -0.2096241,-0.088 -0.3381035,-0.2772 -0.1217172,-0.1961 -0.1217172,-0.5072 v -2.0354 h -0.4665829 v -0.6965 h 0.4665829 v -1.1495 h 0.9061174 v 1.1495 h 0.7438277 v 0.6965 h -0.7438277 v 1.7311 q 0.00676,0.1826 0.101431,0.2637 0.094669,0.081 0.2366725,0.081 0.1420035,0 0.2772449,-0.047 0.1352414,-0.047 0.2163862,-0.081 z"
         style="fill:#ede3fa;fill-opacity:1;stroke-width:1.7388"
         id="path32043" />
      <path
         d="m -2.5033005,1577.2642 q 0.1217173,0.027 0.2231483,0.047 0.1081932,0.02 0.1825759,0.02 0.1284794,0 0.2096242,-0.068 0.087907,-0.061 0.1690518,-0.2299 0.081145,-0.1623 0.1690517,-0.4598 l -1.3997485,-3.5434 h 0.9399278 l 0.9534518,2.617 0.83849675,-2.617 h 0.86554498 l -1.48765544,4.2466 q -0.0811448,0.2367 -0.25019659,0.426 -0.1622897,0.1961 -0.4124863,0.3043 -0.2434345,0.115 -0.5477277,0.115 -0.1081931,0 -0.2163862,-0.02 -0.1081931,-0.014 -0.2366725,-0.054 z"
         style="fill:#ede3fa;fill-opacity:1;stroke-width:1.7388"
         id="path32045" />
      <path
         d="m 2.3911065,1574.1401 q 0,-0.4395 0.1555276,-0.8588 0.1622897,-0.426 0.4665828,-0.7708 0.3042932,-0.3517 0.7438278,-0.5545 0.4395345,-0.2097 1.0007864,-0.2097 0.6626828,0 1.1427898,0.2908 0.4868691,0.2908 0.7235415,0.7574 l -0.7167794,0.4936 q -0.1217173,-0.2705 -0.3178173,-0.426 -0.1961,-0.1623 -0.4192484,-0.2232 -0.2231483,-0.068 -0.4395345,-0.068 -0.3516277,0 -0.6153484,0.142 -0.2569587,0.142 -0.4327725,0.3719 -0.1758138,0.2299 -0.2637207,0.514 -0.081145,0.284 -0.081145,0.568 0,0.3178 0.1014311,0.6153 0.101431,0.2908 0.2840069,0.5207 0.189338,0.2231 0.4462966,0.3584 0.2637208,0.1285 0.574776,0.1285 0.2231483,0 0.4530587,-0.074 0.2299104,-0.074 0.4260104,-0.2367 0.1961001,-0.1623 0.3042932,-0.4192 l 0.7641139,0.4395 q -0.1420034,0.3584 -0.4665828,0.6086 -0.3178173,0.2502 -0.7167795,0.3787 -0.3989621,0.1284 -0.7911622,0.1284 -0.5139173,0 -0.9399277,-0.2096 -0.4260104,-0.2164 -0.7370657,-0.568 -0.3042931,-0.3584 -0.480107,-0.7979 -0.1690517,-0.4463 -0.1690516,-0.8994 z"
         style="fill:#ede3fa;fill-opacity:1;stroke-width:1.7388"
         id="path32047" />
      <path
         d="m 8.8539305,1576.6421 q -0.4327725,0 -0.7776381,-0.142 -0.3448656,-0.1488 -0.5883001,-0.4057 -0.2366725,-0.257 -0.3651518,-0.5883 -0.1284793,-0.3314 -0.1284793,-0.6965 0,-0.372 0.1284793,-0.7033 0.1284793,-0.3313 0.3651518,-0.5883 0.2434345,-0.257 0.5883001,-0.399 0.3448656,-0.1487 0.7776381,-0.1487 0.4327724,0 0.770876,0.1487 0.3448655,0.142 0.5883005,0.399 0.243434,0.257 0.365151,0.5883 0.12848,0.3313 0.12848,0.7033 0,0.3651 -0.12848,0.6965 -0.121717,0.3313 -0.365151,0.5883 -0.2366729,0.2569 -0.5815385,0.4057 -0.3448656,0.142 -0.777638,0.142 z m -0.9264037,-1.8325 q 0,0.311 0.1217173,0.5545 0.1217173,0.2366 0.3313414,0.3719 0.2096242,0.1352 0.473345,0.1352 0.2569586,0 0.4665828,-0.1352 0.2096242,-0.142 0.3313414,-0.3787 0.1284794,-0.2434 0.1284794,-0.5545 0,-0.3043 -0.1284794,-0.5477 -0.1217172,-0.2435 -0.3313414,-0.3787 -0.2096242,-0.1352 -0.4665828,-0.1352 -0.2637208,0 -0.473345,0.142 -0.2096241,0.1352 -0.3313414,0.3786 -0.1217173,0.2367 -0.1217173,0.5478 z"
         style="fill:#ede3fa;fill-opacity:1;stroke-width:1.7388"
         id="path32049" />
      <path
         d="m 11.308568,1571.6382 h 0.906117 v 3.8002 q 0,0.2435 0.08115,0.3314 0.08114,0.081 0.223148,0.081 0.108193,0 0.223149,-0.027 0.114955,-0.027 0.202862,-0.068 l 0.121717,0.6897 q -0.182576,0.088 -0.42601,0.1352 -0.243435,0.047 -0.439535,0.047 -0.42601,0 -0.662683,-0.2232 -0.22991,-0.2299 -0.22991,-0.6491 z"
         style="fill:#ede3fa;fill-opacity:1;stroke-width:1.7388"
         id="path32051" />
      <path
         d="m 13.452141,1571.6382 h 0.906118 v 3.8002 q 0,0.2435 0.08114,0.3314 0.08115,0.081 0.223148,0.081 0.108193,0 0.223148,-0.027 0.114956,-0.027 0.202862,-0.068 l 0.121718,0.6897 q -0.182576,0.088 -0.426011,0.1352 -0.243434,0.047 -0.439534,0.047 -0.426011,0 -0.662683,-0.2232 -0.229911,-0.2299 -0.229911,-0.6491 z"
         style="fill:#ede3fa;fill-opacity:1;stroke-width:1.7388"
         id="path32053" />
      <path
         d="m 17.245657,1576.6421 q -0.426011,0 -0.770876,-0.142 -0.344866,-0.1488 -0.588301,-0.399 -0.243434,-0.2569 -0.378676,-0.5815 -0.128479,-0.3314 -0.128479,-0.6965 0,-0.5072 0.223148,-0.9264 0.229911,-0.4193 0.649159,-0.6695 0.426011,-0.2569 1.000787,-0.2569 0.581538,0 0.994024,0.2569 0.412486,0.2502 0.628872,0.6695 0.223149,0.4125 0.223149,0.8926 0,0.081 -0.0068,0.169 -0.0068,0.081 -0.01352,0.1353 h -2.738639 q 0.02705,0.2705 0.155528,0.4733 0.135241,0.2029 0.338103,0.3111 0.209624,0.1014 0.446297,0.1014 0.270483,0 0.507155,-0.1285 0.243435,-0.1352 0.331342,-0.3516 l 0.777638,0.2164 q -0.12848,0.2705 -0.371914,0.4801 -0.236673,0.2096 -0.561252,0.3313 -0.324579,0.115 -0.716779,0.115 z m -0.926404,-2.1233 h 1.852807 q -0.02705,-0.2705 -0.155527,-0.4666 -0.121718,-0.2029 -0.32458,-0.311 -0.202862,-0.115 -0.453059,-0.115 -0.243434,0 -0.446296,0.115 -0.1961,0.1081 -0.32458,0.311 -0.121717,0.1961 -0.148765,0.4666 z"
         style="fill:#ede3fa;fill-opacity:1;stroke-width:1.7388"
         id="path32055" />
      <path
         d="m 21.039185,1576.5947 q -0.351627,0 -0.649158,-0.1352 -0.290769,-0.142 -0.507156,-0.3922 -0.209624,-0.2502 -0.324579,-0.5748 -0.114955,-0.3245 -0.114955,-0.6897 0,-0.3854 0.121717,-0.7168 0.121717,-0.3313 0.338104,-0.5815 0.223148,-0.257 0.520679,-0.3922 0.304293,-0.142 0.669445,-0.142 0.412486,0 0.723541,0.1893 0.311056,0.1826 0.513918,0.4936 v -0.6221 h 0.791162 v 3.3743 q 0,0.5275 -0.256959,0.8994 -0.250196,0.3786 -0.696493,0.5747 -0.446297,0.2029 -1.01431,0.2029 -0.574776,0 -0.973739,-0.1961 -0.398962,-0.1893 -0.682969,-0.541 l 0.493631,-0.4801 q 0.202863,0.2502 0.507156,0.3922 0.311055,0.142 0.655921,0.142 0.290769,0 0.527441,-0.1082 0.243435,-0.1014 0.385438,-0.3245 0.148766,-0.2164 0.148766,-0.5613 v -0.4463 q -0.175814,0.3043 -0.500394,0.4734 -0.317817,0.1622 -0.676207,0.1622 z m 0.304294,-0.7235 q 0.148765,0 0.284006,-0.047 0.135242,-0.047 0.250197,-0.1285 0.114955,-0.081 0.202862,-0.1893 0.08791,-0.115 0.135242,-0.23 v -0.8452 q -0.08115,-0.2096 -0.229911,-0.3652 -0.142003,-0.1555 -0.324579,-0.2366 -0.175814,-0.088 -0.371914,-0.088 -0.209624,0 -0.378676,0.088 -0.169052,0.088 -0.290769,0.2502 -0.121717,0.1555 -0.189338,0.3516 -0.06086,0.1893 -0.06086,0.3989 0,0.2164 0.07438,0.4058 0.07438,0.1893 0.202862,0.3313 0.135242,0.142 0.311056,0.2232 0.182575,0.081 0.385438,0.081 z"
         style="fill:#ede3fa;fill-opacity:1;stroke-width:1.7388"
         id="path32057" />
      <path
         d="m 25.583303,1576.6421 q -0.42601,0 -0.770876,-0.142 -0.344866,-0.1488 -0.5883,-0.399 -0.243435,-0.2569 -0.378676,-0.5815 -0.128479,-0.3314 -0.128479,-0.6965 0,-0.5072 0.223148,-0.9264 0.22991,-0.4193 0.649159,-0.6695 0.42601,-0.2569 1.000786,-0.2569 0.581538,0 0.994024,0.2569 0.412487,0.2502 0.628873,0.6695 0.223148,0.4125 0.223148,0.8926 0,0.081 -0.0068,0.169 -0.0068,0.081 -0.01352,0.1353 h -2.738638 q 0.02705,0.2705 0.155527,0.4733 0.135242,0.2029 0.338104,0.3111 0.209624,0.1014 0.446296,0.1014 0.270483,0 0.507156,-0.1285 0.243434,-0.1352 0.331341,-0.3516 l 0.777638,0.2164 q -0.128479,0.2705 -0.371914,0.4801 -0.236672,0.2096 -0.561252,0.3313 -0.324579,0.115 -0.716779,0.115 z m -0.926404,-2.1233 h 1.852808 q -0.02705,-0.2705 -0.155528,-0.4666 -0.121717,-0.2029 -0.324579,-0.311 -0.202862,-0.115 -0.453059,-0.115 -0.243435,0 -0.446297,0.115 -0.1961,0.1081 -0.324579,0.311 -0.121717,0.1961 -0.148766,0.4666 z"
         style="fill:#ede3fa;fill-opacity:1;stroke-width:1.7388"
         id="path32059" />
      <path
         d="m 31.249923,1576.6421 q -0.432773,0 -0.777638,-0.142 -0.344866,-0.1488 -0.5883,-0.4057 -0.236673,-0.257 -0.365152,-0.5883 -0.12848,-0.3314 -0.12848,-0.6965 0,-0.372 0.12848,-0.7033 0.128479,-0.3313 0.365152,-0.5883 0.243434,-0.257 0.5883,-0.399 0.344865,-0.1487 0.777638,-0.1487 0.432772,0 0.770876,0.1487 0.344865,0.142 0.5883,0.399 0.243434,0.257 0.365152,0.5883 0.128479,0.3313 0.128479,0.7033 0,0.3651 -0.128479,0.6965 -0.121718,0.3313 -0.365152,0.5883 -0.236673,0.2569 -0.581538,0.4057 -0.344866,0.142 -0.777638,0.142 z m -0.926404,-1.8325 q 0,0.311 0.121717,0.5545 0.121718,0.2366 0.331342,0.3719 0.209624,0.1352 0.473345,0.1352 0.256958,0 0.466583,-0.1352 0.209624,-0.142 0.331341,-0.3787 0.128479,-0.2434 0.128479,-0.5545 0,-0.3043 -0.128479,-0.5477 -0.121717,-0.2435 -0.331341,-0.3787 -0.209625,-0.1352 -0.466583,-0.1352 -0.263721,0 -0.473345,0.142 -0.209624,0.1352 -0.331342,0.3786 -0.121717,0.2367 -0.121717,0.5478 z"
         style="fill:#ede3fa;fill-opacity:1;stroke-width:1.7388"
         id="path32061" />
      <path
         d="m 33.894303,1576.5745 v -2.6643 H 33.42772 v -0.6897 h 0.466583 v -0.2164 q 0,-0.4395 0.142003,-0.7574 0.148766,-0.3245 0.412487,-0.5004 0.270483,-0.1758 0.628872,-0.1758 0.216387,0 0.432773,0.054 0.223148,0.054 0.439534,0.1556 l -0.182576,0.6829 q -0.101431,-0.054 -0.236672,-0.088 -0.135241,-0.041 -0.256959,-0.041 -0.22991,0 -0.351627,0.1623 -0.121718,0.1623 -0.121718,0.4734 v 0.2502 h 0.865545 v 0.6897 H 34.80042 v 2.6643 z"
         style="fill:#ede3fa;fill-opacity:1;stroke-width:1.7388"
         id="path32063" />
      <path
         d="m 38.684238,1573.491 v 3.0835 h -0.933166 v -4.8011 H 38.4949 l 2.48168,3.1646 v -3.1578 h 0.933165 v 4.7943 h -0.777638 z"
         style="fill:#ede3fa;fill-opacity:1;stroke-width:1.7388"
         id="path32065" />
      <path
         d="m 44.404947,1576.6421 q -0.426011,0 -0.770876,-0.142 -0.344866,-0.1488 -0.5883,-0.399 -0.243435,-0.2569 -0.378676,-0.5815 -0.12848,-0.3314 -0.12848,-0.6965 0,-0.5072 0.223149,-0.9264 0.22991,-0.4193 0.649159,-0.6695 0.42601,-0.2569 1.000786,-0.2569 0.581538,0 0.994024,0.2569 0.412486,0.2502 0.628873,0.6695 0.223148,0.4125 0.223148,0.8926 0,0.081 -0.0068,0.169 -0.0068,0.081 -0.01352,0.1353 h -2.738639 q 0.02705,0.2705 0.155528,0.4733 0.135241,0.2029 0.338104,0.3111 0.209624,0.1014 0.446296,0.1014 0.270483,0 0.507155,-0.1285 0.243435,-0.1352 0.331342,-0.3516 l 0.777638,0.2164 q -0.128479,0.2705 -0.371914,0.4801 -0.236672,0.2096 -0.561252,0.3313 -0.324579,0.115 -0.716779,0.115 z m -0.926404,-2.1233 h 1.852807 q -0.02705,-0.2705 -0.155527,-0.4666 -0.121717,-0.2029 -0.32458,-0.311 -0.202862,-0.115 -0.453058,-0.115 -0.243435,0 -0.446297,0.115 -0.1961,0.1081 -0.324579,0.311 -0.121718,0.1961 -0.148766,0.4666 z"
         style="fill:#ede3fa;fill-opacity:1;stroke-width:1.7388"
         id="path32067" />
      <path
         d="m 51.103788,1573.0311 h 0.858782 l -1.480893,3.5434 h -0.757352 l -0.595062,-1.5215 -0.581538,1.5215 h -0.764114 l -1.474131,-3.5434 h 0.852021 l 1.054883,2.6778 0.412486,-1.1563 -0.615349,-1.5147 h 0.75059 l 0.365152,1.0819 0.371914,-1.0819 h 0.75059 l -0.615349,1.5147 0.419249,1.1563 z"
         style="fill:#ede3fa;fill-opacity:1;stroke-width:1.7388"
         id="path32069" />
      <path
         d="m 54.200809,1571.7734 1.183363,2.2585 1.203648,-2.2585 h 1.007549 l -1.744615,3.1241 v 1.677 h -0.926403 v -1.6906 l -1.737852,-3.1105 z"
         style="fill:#ede3fa;fill-opacity:1;stroke-width:1.7388"
         id="path32071" />
      <path
         d="m 59.049872,1576.6421 q -0.432772,0 -0.777638,-0.142 -0.344865,-0.1488 -0.5883,-0.4057 -0.236672,-0.257 -0.365152,-0.5883 -0.128479,-0.3314 -0.128479,-0.6965 0,-0.372 0.128479,-0.7033 0.12848,-0.3313 0.365152,-0.5883 0.243435,-0.257 0.5883,-0.399 0.344866,-0.1487 0.777638,-0.1487 0.432773,0 0.770876,0.1487 0.344866,0.142 0.5883,0.399 0.243435,0.257 0.365152,0.5883 0.12848,0.3313 0.12848,0.7033 0,0.3651 -0.12848,0.6965 -0.121717,0.3313 -0.365152,0.5883 -0.236672,0.2569 -0.581538,0.4057 -0.344865,0.142 -0.777638,0.142 z m -0.926403,-1.8325 q 0,0.311 0.121717,0.5545 0.121717,0.2366 0.331341,0.3719 0.209625,0.1352 0.473345,0.1352 0.256959,0 0.466583,-0.1352 0.209624,-0.142 0.331342,-0.3787 0.128479,-0.2434 0.128479,-0.5545 0,-0.3043 -0.128479,-0.5477 -0.121718,-0.2435 -0.331342,-0.3787 -0.209624,-0.1352 -0.466583,-0.1352 -0.26372,0 -0.473345,0.142 -0.209624,0.1352 -0.331341,0.3786 -0.121717,0.2367 -0.121717,0.5478 z"
         style="fill:#ede3fa;fill-opacity:1;stroke-width:1.7388"
         id="path32073" />
      <path
         d="m 63.621041,1573.8155 q -0.412486,0 -0.737065,0.1623 -0.32458,0.1556 -0.466583,0.4531 v 2.1436 h -0.906118 v -3.5434 h 0.831735 v 0.7574 q 0.189338,-0.3652 0.480107,-0.5748 0.290769,-0.2096 0.615348,-0.2299 0.07438,0 0.114956,0 0.04057,0 0.06762,0.01 z"
         style="fill:#ede3fa;fill-opacity:1;stroke-width:1.7388"
         id="path32075" />
      <path
         d="m 66.549009,1576.5745 -1.034596,-1.5283 -0.480107,0.4734 v 1.0549 h -0.906118 v -4.9363 h 0.906118 v 2.9888 l 1.426797,-1.5891 h 0.960214 l -1.318604,1.5012 1.413272,2.0354 z"
         style="fill:#ede3fa;fill-opacity:1;stroke-width:1.7388"
         id="path32077" />
    </g>
    <circle
       style="fill:#81d0ed;fill-opacity:1;stroke:none;stroke-width:1.55308;stroke-linecap:round;stroke-linejoin:round;stroke-dasharray:none;stroke-opacity:1;paint-order:stroke fill markers"
       id="circle32083"
       cx="-30439.881"
       cy="15745.346"
       transform="scale(-1,1)"
       r="1.5722023" />
    <circle
       style="fill:#81d0ed;fill-opacity:1;stroke:none;stroke-width:1.55308;stroke-linecap:round;stroke-linejoin:round;stroke-dasharray:none;stroke-opacity:1;paint-order:stroke fill markers"
       id="circle32087"
       cx="-30443.291"
       cy="15737.773"
       transform="scale(-1,1)"
       r="1.5722023" />
    <circle
       style="fill:#81d0ed;fill-opacity:1;stroke:none;stroke-width:1.55308;stroke-linecap:round;stroke-linejoin:round;stroke-dasharray:none;stroke-opacity:1;paint-order:stroke fill markers"
       id="circle5"
       cx="-30443.291"
       cy="-15752.917"
       transform="scale(-1)"
       r="1.5722023" />
    <g
       id="g32101"
       transform="matrix(-0.95756783,0,0,0.95756783,30408.298,15124.892)"
       style="stroke:#ede3fa;stroke-width:1.6219;stroke-dasharray:none;stroke-opacity:1">
      <path
         style="fill:none;stroke:#ede3fa;stroke-width:1.6219;stroke-linecap:round;stroke-linejoin:round;stroke-dasharray:none;stroke-opacity:1;paint-order:stroke fill markers"
         d="m -49.672475,644.81408 h 8.354499 l 3.132938,-3.13294"
         id="path32089"
         sodipodi:nodetypes="ccc" />
      <circle
         style="fill:none;stroke:#ede3fa;stroke-width:1.6219;stroke-linecap:round;stroke-linejoin:round;stroke-dasharray:none;stroke-opacity:1;paint-order:stroke fill markers"
         id="circle32091"
         cx="-36.540649"
         cy="640.03979"
         r="2.0705724" />
      <circle
         style="fill:none;stroke:#ede3fa;stroke-width:1.6219;stroke-linecap:round;stroke-linejoin:round;stroke-dasharray:none;stroke-opacity:1;paint-order:stroke fill markers"
         id="circle32093"
         cx="-32.981529"
         cy="647.94702"
         r="2.0705724" />
      <path
         style="fill:none;fill-opacity:1;stroke:#ede3fa;stroke-width:1.6219;stroke-linecap:round;stroke-linejoin:round;stroke-dasharray:none;stroke-opacity:1;paint-order:stroke fill markers"
         d="m -49.672475,647.94702 h 14.620373"
         id="path32095"
         sodipodi:nodetypes="cc" />
      <path
         style="fill:none;stroke:#ede3fa;stroke-width:1.6219;stroke-linecap:round;stroke-linejoin:round;stroke-dasharray:none;stroke-opacity:1;paint-order:stroke fill markers"
         d="m -49.672475,651.07995 h 8.354499 l 3.132938,3.13294"
         id="path5"
         sodipodi:nodetypes="ccc" />
      <circle
         style="fill:none;stroke:#ede3fa;stroke-width:1.6219;stroke-linecap:round;stroke-linejoin:round;stroke-dasharray:none;stroke-opacity:1;paint-order:stroke fill markers"
         id="circle6"
         cx="-36.540649"
         cy="-655.85425"
         r="2.0705724"
         transform="scale(1,-1)" />
    </g>
    <circle
       style="fill:#81d0ed;fill-opacity:1;stroke:none;stroke-width:1.55308;stroke-linecap:round;stroke-linejoin:round;stroke-dasharray:none;stroke-opacity:1;paint-order:stroke fill markers"
       id="circle7"
       cx="30373.771"
       cy="15745.346"
       r="1.5722023" />
    <circle
       style="fill:#81d0ed;fill-opacity:1;stroke:none;stroke-width:1.55308;stroke-linecap:round;stroke-linejoin:round;stroke-dasharray:none;stroke-opacity:1;paint-order:stroke fill markers"
       id="circle8"
       cx="30370.361"
       cy="15737.773"
       r="1.5722023" />
    <circle
       style="fill:#81d0ed;fill-opacity:1;stroke:none;stroke-width:1.55308;stroke-linecap:round;stroke-linejoin:round;stroke-dasharray:none;stroke-opacity:1;paint-order:stroke fill markers"
       id="circle9"
       cx="30370.361"
       cy="-15752.917"
       transform="scale(1,-1)"
       r="1.5722023" />
    <g
       id="g12"
       transform="matrix(0.95756783,0,0,0.95756783,30405.356,15124.892)"
       style="stroke:#ede3fa;stroke-width:1.6219;stroke-dasharray:none;stroke-opacity:1">
      <path
         style="fill:none;stroke:#ede3fa;stroke-width:1.6219;stroke-linecap:round;stroke-linejoin:round;stroke-dasharray:none;stroke-opacity:1;paint-order:stroke fill markers"
         d="m -49.672475,644.81408 h 8.354499 l 3.132938,-3.13294"
         id="path9"
         sodipodi:nodetypes="ccc" />
      <circle
         style="fill:none;stroke:#ede3fa;stroke-width:1.6219;stroke-linecap:round;stroke-linejoin:round;stroke-dasharray:none;stroke-opacity:1;paint-order:stroke fill markers"
         id="circle10"
         cx="-36.540649"
         cy="640.03979"
         r="2.0705724" />
      <circle
         style="fill:none;stroke:#ede3fa;stroke-width:1.6219;stroke-linecap:round;stroke-linejoin:round;stroke-dasharray:none;stroke-opacity:1;paint-order:stroke fill markers"
         id="circle11"
         cx="-32.981529"
         cy="647.94702"
         r="2.0705724" />
      <path
         style="fill:none;fill-opacity:1;stroke:#ede3fa;stroke-width:1.6219;stroke-linecap:round;stroke-linejoin:round;stroke-dasharray:none;stroke-opacity:1;paint-order:stroke fill markers"
         d="m -49.672475,647.94702 h 14.620373"
         id="path11"
         sodipodi:nodetypes="cc" />
      <path
         style="fill:none;stroke:#ede3fa;stroke-width:1.6219;stroke-linecap:round;stroke-linejoin:round;stroke-dasharray:none;stroke-opacity:1;paint-order:stroke fill markers"
         d="m -49.672475,651.07995 h 8.354499 l 3.132938,3.13294"
         id="path12"
         sodipodi:nodetypes="ccc" />
      <circle
         style="fill:none;stroke:#ede3fa;stroke-width:1.6219;stroke-linecap:round;stroke-linejoin:round;stroke-dasharray:none;stroke-opacity:1;paint-order:stroke fill markers"
         id="circle12"
         cx="-36.540649"
         cy="-655.85425"
         r="2.0705724"
         transform="scale(1,-1)" />
    </g>
  </g>
</svg>
