<?xml version="1.0" encoding="UTF-8" standalone="no"?>
<!-- Created with Inkscape (http://www.inkscape.org/) -->

<svg
   width="135.79565mm"
   height="135.79565mm"
   viewBox="0 0 135.79565 135.79565"
   version="1.1"
   id="svg1"
   inkscape:version="1.4.3 (0d15f75, 2025-12-25)"
   sodipodi:docname="acmccny-icon.svg"
   inkscape:export-filename="./acmccny-icon.png"
   inkscape:export-xdpi="95.767426"
   inkscape:export-ydpi="95.767426"
   xmlns:inkscape="http://www.inkscape.org/namespaces/inkscape"
   xmlns:sodipodi="http://sodipodi.sourceforge.net/DTD/sodipodi-0.dtd"
   xmlns="http://www.w3.org/2000/svg"
   xmlns:svg="http://www.w3.org/2000/svg">
  <style
     id="style592">
.measure-arrow
{
}
.measure-label
{

}
.measure-line
{
}</style>
  <sodipodi:namedview
     id="namedview1"
     pagecolor="#000000"
     bordercolor="#eeeeee"
     borderopacity="1"
     inkscape:showpageshadow="0"
     inkscape:pageopacity="0"
     inkscape:pagecheckerboard="0"
     inkscape:deskcolor="#000000"
     inkscape:document-units="mm"
     inkscape:zoom="0.99999999"
     inkscape:cx="324"
     inkscape:cy="203.5"
     inkscape:window-width="1920"
     inkscape:window-height="1057"
     inkscape:window-x="1912"
     inkscape:window-y="-8"
     inkscape:window-maximized="1"
     inkscape:current-layer="layer1"
     showgrid="true"
     showguides="true">
    <inkscape:page
       x="0"
       y="2.8054964e-10"
       width="135.79565"
       height="135.79565"
       id="page2"
       margin="0"
       bleed="0"
       inkscape:export-filename="logos.png"
       inkscape:export-xdpi="8"
       inkscape:export-ydpi="8" />
    <inkscape:grid
       id="grid5"
       units="mm"
       originx="0.0015625"
       originy="-0.0040756309"
       spacingx="1"
       spacingy="1"
       empcolor="#3297bc"
       empopacity="0.30196078"
       color="#81d0ed"
       opacity="0.14902"
       empspacing="5"
       enabled="true"
       visible="true"
       dotted="false" />
    <inkscape:grid
       type="axonomgrid"
       id="grid8"
       units="mm"
       originx="0.0015625"
       originy="-0.0040756309"
       spacingx="1"
       spacingy="1"
       empcolor="#253700"
       empopacity="0.14901961"
       color="#3a5700"
       opacity="0.14902"
       empspacing="5"
       dotted="false"
       gridanglex="45"
       gridanglez="45"
       enabled="true"
       visible="true" />
  </sodipodi:namedview>
  <defs
     id="defs1">
    <linearGradient
       id="swatch145"
       inkscape:swatch="solid">
      <stop
         style="stop-color:#000000;stop-opacity:1;"
         offset="0"
         id="stop145" />
    </linearGradient>
    <linearGradient
       id="swatch15"
       inkscape:swatch="solid">
      <stop
         style="stop-color:#e0a6f9;stop-opacity:0.95914745;"
         offset="0"
         id="stop15" />
    </linearGradient>
    <linearGradient
       id="swatch262"
       inkscape:swatch="solid">
      <stop
         style="stop-color:#985dff;stop-opacity:1;"
         offset="0"
         id="stop262" />
    </linearGradient>
    <linearGradient
       id="swatch369"
       inkscape:swatch="solid">
      <stop
         style="stop-color:#000000;stop-opacity:1;"
         offset="0"
         id="stop369" />
    </linearGradient>
    <linearGradient
       id="swatch1"
       inkscape:swatch="solid">
      <stop
         style="stop-color:#ffffff;stop-opacity:1;"
         offset="0"
         id="stop1" />
    </linearGradient>
    <inkscape:path-effect
       effect="fillet_chamfer"
       id="path-effect619-9-3-9-3"
       is_visible="true"
       lpeversion="1"
       nodesatellites_param="F,0,0,1,0,1589.9254,0,1 @ F,0,0,1,0,1589.9254,0,1 @ F,0,0,1,0,1589.9254,0,1 @ F,0,0,1,0,1589.9254,0,1 @ F,0,0,1,0,1589.9254,0,1 @ F,0,0,1,0,1589.9254,0,1 @ F,0,0,1,0,1589.9254,0,1 @ F,0,0,1,0,1589.9254,0,1 @ F,0,0,1,0,1589.9254,0,1 @ F,0,0,1,0,1589.9254,0,1 @ F,0,0,1,0,1589.9254,0,1 @ F,0,0,1,0,1589.9254,0,1 @ F,0,0,1,0,1589.9254,0,1 @ F,0,0,1,0,1589.9254,0,1 @ F,0,0,1,0,1589.9254,0,1 @ F,0,0,1,0,1589.9254,0,1"
       radius="308"
       unit="px"
       method="auto"
       mode="F"
       chamfer_steps="1"
       flexible="false"
       use_knot_distance="true"
       apply_no_radius="true"
       apply_with_radius="true"
       only_selected="false"
       hide_knots="false" />
    <linearGradient
       id="swatch140"
       inkscape:swatch="solid">
      <stop
         style="stop-color:#aad5ec;stop-opacity:1;"
         offset="0"
         id="stop140" />
    </linearGradient>
    <linearGradient
       id="swatch41"
       inkscape:swatch="solid"
       inkscape:label="Purple">
      <stop
         style="stop-color:#634da0;stop-opacity:1;"
         offset="0"
         id="stop41" />
    </linearGradient>
    <inkscape:path-effect
       effect="fillet_chamfer"
       id="path-effect619-9-3-9-3-1"
       is_visible="true"
       lpeversion="1"
       nodesatellites_param="F,0,0,1,0,1589.9254,0,1 @ F,0,0,1,0,1589.9254,0,1 @ F,0,0,1,0,1589.9254,0,1 @ F,0,0,1,0,1589.9254,0,1 @ F,0,0,1,0,1589.9254,0,1 @ F,0,0,1,0,1589.9254,0,1 @ F,0,0,1,0,1589.9254,0,1 @ F,0,0,1,0,1589.9254,0,1 @ F,0,0,1,0,1589.9254,0,1 @ F,0,0,1,0,1589.9254,0,1 @ F,0,0,1,0,1589.9254,0,1 @ F,0,0,1,0,1589.9254,0,1 @ F,0,0,1,0,1589.9254,0,1 @ F,0,0,1,0,1589.9254,0,1 @ F,0,0,1,0,1589.9254,0,1 @ F,0,0,1,0,1589.9254,0,1"
       radius="308"
       unit="px"
       method="auto"
       mode="F"
       chamfer_steps="1"
       flexible="false"
       use_knot_distance="true"
       apply_no_radius="true"
       apply_with_radius="true"
       only_selected="false"
       hide_knots="false" />
    <filter
       id="mask-powermask-path-effect131_inverse"
       inkscape:label="filtermask-powermask-path-effect131"
       style="color-interpolation-filters:sRGB"
       height="100"
       width="100"
       x="-50"
       y="-50">
      <feColorMatrix
         id="mask-powermask-path-effect131_primitive1"
         values="1"
         type="saturate"
         result="fbSourceGraphic" />
      <feColorMatrix
         id="mask-powermask-path-effect131_primitive2"
         values="-1 0 0 0 1 0 -1 0 0 1 0 0 -1 0 1 0 0 0 1 0 "
         in="fbSourceGraphic" />
    </filter>
    <filter
       id="mask-powermask-path-effect462_inverse"
       inkscape:label="filtermask-powermask-path-effect462"
       style="color-interpolation-filters:sRGB"
       height="100"
       width="100"
       x="-50"
       y="-50">
      <feColorMatrix
         id="mask-powermask-path-effect462_primitive1"
         values="1"
         type="saturate"
         result="fbSourceGraphic" />
      <feColorMatrix
         id="mask-powermask-path-effect462_primitive2"
         values="-1 0 0 0 1 0 -1 0 0 1 0 0 -1 0 1 0 0 0 1 0 "
         in="fbSourceGraphic" />
    </filter>
    <filter
       id="mask-powermask-path-effect871_inverse"
       inkscape:label="filtermask-powermask-path-effect871"
       style="color-interpolation-filters:sRGB"
       height="100"
       width="100"
       x="-50"
       y="-50">
      <feColorMatrix
         id="mask-powermask-path-effect871_primitive1"
         values="1"
         type="saturate"
         result="fbSourceGraphic" />
      <feColorMatrix
         id="mask-powermask-path-effect871_primitive2"
         values="-1 0 0 0 1 0 -1 0 0 1 0 0 -1 0 1 0 0 0 1 0 "
         in="fbSourceGraphic" />
    </filter>
  </defs>
  <g
     inkscape:label="Layer 1"
     inkscape:groupmode="layer"
     id="layer1"
     transform="translate(-30339.074,-15659.348)">
    <path
       id="path31993"
       style="fill:#000000;fill-opacity:1;stroke:none;stroke-width:51.3105;stroke-linecap:round;stroke-linejoin:round;stroke-dasharray:none;stroke-opacity:1;paint-order:stroke fill markers"
       inkscape:transform-center-x="0.00048113084"
       inkscape:transform-center-y="-0.00082589096"
       d="M -4266.3272 4800.1017 C -4378.3272 4800.1017 -6150.2323 5823.1049 -6206.2323 5920.0998 C -6262.2323 6017.0946 -6262.2323 8063.101 -6206.2323 8160.0959 C -6150.2323 8257.0907 -4378.3272 9280.111 -4266.3272 9280.111 C -4154.3272 9280.111 -2382.4391 8257.0907 -2326.4391 8160.0959 C -2270.4391 8063.1011 -2270.4391 6017.0946 -2326.4391 5920.0998 C -2382.4391 5823.1049 -4154.3272 4800.1017 -4266.3272 4800.1017 z M -4266.3101 5168.8978 C -4251.1136 5168.8978 -4241.27 5173.5493 -4224.5924 5180.0998 C -4207.9148 5186.6502 -4187.1208 5195.9252 -4162.3915 5207.678 C -4112.9327 5231.1836 -4047.9271 5264.5683 -3972.443 5304.8248 C -3821.4748 5385.3378 -3628.7282 5493.3354 -3437.385 5603.8473 C -3246.0418 5714.3591 -3056.1665 5827.3469 -2910.9813 5917.8798 C -2838.3886 5963.1463 -2777.0015 6002.7666 -2731.9231 6033.8618 C -2709.3839 6049.4095 -2690.9521 6062.8008 -2676.9425 6073.974 C -2662.9328 6085.1472 -2653.9865 6091.324 -2646.3882 6104.4893 C -2638.7899 6117.6546 -2637.8928 6128.5 -2635.2248 6146.2237 C -2632.5569 6163.9473 -2630.1946 6186.6136 -2628.0045 6213.914 C -2623.6242 6268.5147 -2620.0057 6341.5199 -2617.1142 6427.0428 C -2611.3312 6598.0888 -2608.46 6819.0741 -2608.46 7040.0978 C -2608.46 7261.1215 -2611.3312 7482.1069 -2617.1142 7653.1528 C -2620.0057 7738.6759 -2623.6242 7811.6639 -2628.0045 7866.2646 C -2630.1946 7893.5649 -2632.5569 7916.2312 -2635.2248 7933.9549 C -2637.8928 7951.6785 -2638.79 7962.524 -2646.3882 7975.6893 C -2653.9865 7988.8547 -2662.9328 7995.0485 -2676.9425 8006.2217 C -2690.9521 8017.3949 -2709.3839 8030.7863 -2731.9231 8046.3338 C -2777.0015 8077.429 -2838.3886 8117.0493 -2910.9813 8162.3158 C -3056.1666 8252.8487 -3246.0418 8365.8365 -3437.385 8476.3483 C -3628.7282 8586.8602 -3821.4748 8694.8578 -3972.443 8775.3708 C -4047.9271 8815.6273 -4112.9327 8848.9951 -4162.3915 8872.5006 C -4187.1208 8884.2534 -4207.9148 8893.5454 -4224.5924 8900.0958 C -4241.27 8906.6463 -4251.1136 8911.2979 -4266.3101 8911.2979 C -4281.5066 8911.2979 -4291.3331 8906.6463 -4308.0107 8900.0958 C -4324.6882 8893.5454 -4345.4993 8884.2534 -4370.2287 8872.5006 C -4419.6874 8848.9951 -4484.676 8815.6273 -4560.1601 8775.3708 C -4711.1284 8694.8578 -4903.8749 8586.8602 -5095.2181 8476.3483 C -5286.5612 8365.8365 -5476.4365 8252.8487 -5621.6218 8162.3158 C -5694.2145 8117.0493 -5755.6016 8077.429 -5800.68 8046.3338 C -5823.2192 8030.7863 -5841.6681 8017.3949 -5855.6777 8006.2217 C -5869.6872 7995.0485 -5878.6336 7988.8547 -5886.2319 7975.6893 C -5893.8302 7962.524 -5894.7103 7951.6785 -5897.3783 7933.9549 C -5900.0463 7916.2312 -5902.4084 7893.5649 -5904.5986 7866.2646 C -5908.979 7811.6639 -5912.5975 7738.6759 -5915.4889 7653.1528 C -5921.2719 7482.1069 -5924.1431 7261.1215 -5924.1431 7040.0978 C -5924.1431 6819.0741 -5921.2719 6598.0888 -5915.4889 6427.0428 C -5912.5974 6341.5199 -5908.979 6268.5147 -5904.5986 6213.914 C -5902.4084 6186.6136 -5900.0463 6163.9473 -5897.3783 6146.2237 C -5894.7103 6128.5 -5893.8132 6117.6546 -5886.2149 6104.4893 C -5878.6166 6091.324 -5869.6872 6085.1472 -5855.6777 6073.974 C -5841.6681 6062.8008 -5823.2192 6049.4095 -5800.68 6033.8618 C -5755.6016 6002.7666 -5694.2145 5963.1463 -5621.6218 5917.8798 C -5476.4366 5827.3469 -5286.5612 5714.3591 -5095.2181 5603.8473 C -4903.8749 5493.3354 -4711.1284 5385.3378 -4560.1601 5304.8248 C -4484.676 5264.5683 -4419.6874 5231.1836 -4370.2287 5207.678 C -4345.4993 5195.9252 -4324.6882 5186.6502 -4308.0107 5180.0998 C -4291.3331 5173.5493 -4281.5066 5168.8978 -4266.3101 5168.8978 z M -4266.3101 5218.8288 C -4268.8009 5219.6227 -4278.609 5221.8051 -4289.9 5226.2399 C -4304.7712 5232.0808 -4324.8444 5240.9908 -4348.9602 5252.4519 C -4397.1918 5275.3743 -4461.7673 5308.5092 -4536.8603 5348.5572 C -4687.0464 5428.6531 -4879.481 5536.4641 -5070.4503 5646.76 C -5261.4198 5757.056 -5450.9872 5869.8748 -5595.4203 5959.9387 C -5667.6369 6004.9707 -5728.5896 6044.3504 -5772.5496 6074.6741 C -5794.5295 6089.836 -5812.2899 6102.757 -5824.782 6112.72 C -5834.2668 6120.2845 -5841.0623 6127.711 -5842.9951 6129.4718 C -5843.5528 6132.0257 -5846.5826 6141.6174 -5848.389 6153.6177 C -5850.768 6169.4217 -5853.0809 6191.2527 -5855.2168 6217.8757 C -5859.4884 6271.1216 -5863.0941 6343.6364 -5865.9705 6428.7163 C -5871.7235 6598.8761 -5874.6076 6819.5059 -5874.6077 7040.0978 C -5874.6077 7206.6427 -5872.956 7373.2107 -5869.6746 7518.0625 L -5630.8564 7518.0625 L -5540.5421 7427.712 C -5546.0237 7416.6922 -5554.5561 7407.1928 -5554.5561 7394.14 C -5554.5561 7348.8084 -5517.2876 7311.5251 -5471.9742 7311.5251 C -5426.6608 7311.5251 -5389.3753 7348.8088 -5389.3753 7394.14 C -5389.3753 7439.4716 -5426.6608 7476.7208 -5471.9742 7476.7208 C -5485.0179 7476.7208 -5494.5026 7468.2336 -5505.5156 7462.7525 L -5603.0674 7560.3262 A 24.776003 24.785942 0 0 1 -5620.5977 7567.6178 L -5868.4797 7567.6178 C -5868.0364 7584.5075 -5867.5542 7601.0496 -5867.063 7617.1902 L -5428.6009 7617.1902 C -5417.1714 7585.2215 -5392.0157 7559.3358 -5356.3289 7559.3358 C -5311.0178 7559.3358 -5273.7813 7596.6385 -5273.7812 7641.9679 C -5273.7813 7687.2969 -5311.0178 7724.5999 -5356.3289 7724.5999 C -5392.007 7724.5999 -5417.1648 7698.7192 -5428.6009 7666.7626 L -5865.4414 7666.7626 C -5864.8352 7683.8463 -5864.196 7700.3775 -5863.5296 7716.3179 L -5620.5977 7716.3179 A 24.776003 24.785942 0 0 1 -5603.0674 7723.5583 L -5505.4474 7821.2003 C -5494.4451 7815.7325 -5485.0011 7807.1636 -5471.9742 7807.1636 C -5426.6608 7807.1636 -5389.3753 7844.4641 -5389.3753 7889.7957 C -5389.3755 7935.127 -5426.661 7972.4277 -5471.9742 7972.4277 C -5517.2875 7972.4281 -5554.5559 7935.127 -5554.5561 7889.7957 C -5554.5561 7876.7226 -5546.0398 7867.2053 -5540.5421 7856.1725 L -5630.8564 7765.8903 L -5861.2594 7765.8903 C -5859.4248 7802.5089 -5857.4116 7834.9446 -5855.2168 7862.3029 C -5853.0809 7888.9259 -5850.768 7910.7741 -5848.389 7926.578 C -5846.5826 7938.5783 -5843.5528 7948.17 -5842.9951 7950.7238 C -5841.0625 7952.4846 -5834.267 7959.9111 -5824.782 7967.4756 C -5812.2899 7977.4386 -5794.5295 7990.3597 -5772.5496 8005.5215 C -5728.5896 8035.8452 -5667.6369 8075.225 -5595.4203 8120.257 C -5450.9872 8210.3209 -5261.4197 8323.1226 -5070.4503 8433.4186 C -4879.481 8543.7145 -4687.0464 8651.5426 -4536.8603 8731.6385 C -4461.7673 8771.6864 -4397.1918 8804.8043 -4348.9602 8827.7266 C -4324.8444 8839.1878 -4304.7712 8848.1148 -4289.9 8853.9558 C -4278.6091 8858.3905 -4268.801 8860.5558 -4266.3101 8861.3498 C -4263.8191 8860.5558 -4253.994 8858.3905 -4242.7031 8853.9558 C -4227.8319 8848.1148 -4207.7587 8839.1878 -4183.6429 8827.7266 C -4135.4113 8804.8043 -4070.8528 8771.6864 -3995.7598 8731.6385 C -3845.5737 8651.5426 -3653.1221 8543.7145 -3462.1528 8433.4186 C -3271.1834 8323.1226 -3081.633 8210.3209 -2937.1999 8120.257 C -2864.9834 8075.225 -2804.0134 8035.8452 -2760.0535 8005.5215 C -2738.0735 7990.3597 -2720.3132 7977.4386 -2707.8211 7967.4756 C -2698.3362 7959.9111 -2691.5406 7952.4846 -2689.608 7950.7238 C -2689.0503 7948.17 -2686.0375 7938.5783 -2684.2311 7926.578 C -2681.8521 7910.7741 -2679.5221 7888.9259 -2677.3863 7862.3029 C -2675.1914 7834.9446 -2673.1783 7802.5089 -2671.3437 7765.8903 L -2901.7638 7765.8903 L -2992.0951 7856.2408 C -2986.6228 7867.253 -2978.0641 7876.7549 -2978.0641 7889.7957 C -2978.064 7935.1273 -3015.3496 7972.4281 -3060.663 7972.4277 C -3105.9764 7972.4277 -3143.262 7935.1273 -3143.2619 7889.7957 C -3143.2617 7844.4641 -3105.9762 7807.1636 -3060.663 7807.1636 C -3047.6194 7807.1636 -3038.1346 7815.6512 -3027.1216 7821.132 L -2929.5699 7723.5583 A 24.776003 24.785942 0 0 1 -2912.0225 7716.3179 L -2669.0735 7716.3179 C -2668.4071 7700.3775 -2667.7679 7683.8463 -2667.1617 7666.7626 L -3104.0193 7666.7626 C -3115.4553 7698.7192 -3140.5619 7724.5316 -3176.24 7724.5316 C -3221.5511 7724.5316 -3258.8389 7687.2969 -3258.8389 7641.9679 C -3258.8391 7596.6382 -3221.5513 7559.3358 -3176.24 7559.3358 C -3140.5531 7559.3358 -3115.4486 7585.2212 -3104.0193 7617.1902 L -2665.5401 7617.1902 C -2665.0489 7601.0496 -2664.5667 7584.5075 -2664.1234 7567.6178 L -2912.0225 7567.6178 A 24.776003 24.785942 0 0 1 -2929.5699 7560.3262 L -3027.1216 7462.7525 C -3038.1346 7468.2336 -3047.6194 7476.7208 -3060.663 7476.7208 C -3105.9762 7476.7208 -3143.2617 7439.4204 -3143.2619 7394.0888 C -3143.262 7348.7572 -3105.9764 7311.5251 -3060.663 7311.5251 C -3015.3496 7311.5251 -2978.064 7348.7572 -2978.0641 7394.0888 C -2978.0641 7407.1296 -2986.6228 7416.6315 -2992.0951 7427.6437 L -2901.7638 7518.0625 L -2662.9285 7518.0625 C -2659.6471 7373.2107 -2657.9954 7206.6427 -2657.9954 7040.0978 C -2657.9954 6819.5059 -2660.8796 6598.8761 -2666.6326 6428.7163 C -2669.509 6343.6364 -2673.1146 6271.1216 -2677.3863 6217.8757 C -2679.5221 6191.2527 -2681.8521 6169.4217 -2684.2311 6153.6177 C -2686.0375 6141.6174 -2689.0503 6132.0257 -2689.608 6129.4718 C -2691.5407 6127.711 -2698.3364 6120.2845 -2707.8211 6112.72 C -2720.3132 6102.757 -2738.0735 6089.836 -2760.0535 6074.6741 C -2804.0134 6044.3504 -2864.9834 6004.9707 -2937.1999 5959.9387 C -3081.633 5869.8748 -3271.1834 5757.056 -3462.1528 5646.76 C -3653.1221 5536.464 -3845.5738 5428.6531 -3995.7598 5348.5572 C -4070.8528 5308.5092 -4135.4113 5275.3743 -4183.6429 5252.4519 C -4207.7587 5240.9908 -4227.8319 5232.0808 -4242.7031 5226.2399 C -4253.9941 5221.8051 -4263.8193 5219.6227 -4266.3101 5218.8288 z M -5461.6985 6055.9244 L -5094.1598 6055.9244 L -4941.2178 6210.4646 L -4941.2178 6768.4315 L -5111.3316 6768.4315 L -5111.3316 6666.8448 L -5217.0937 6768.4315 L -5488.8559 6768.4315 L -5620.4782 6636.7394 L -5620.4782 6473.661 L -5488.8559 6342.0543 L -5127.0867 6342.0543 L -5127.0867 6251.9087 L -5171.3477 6207.5274 L -5385.859 6207.5274 L -5428.7715 6251.9087 L -5428.7715 6291.9525 L -5614.6916 6291.9525 L -5614.6916 6210.4646 L -5461.6985 6055.9244 z M -4646.6167 6055.9244 L -4254.8053 6055.9244 L -4107.445 6204.7099 L -4107.445 6336.2654 L -4296.2157 6336.2654 L -4296.2157 6266.2527 L -4346.2974 6216.1168 L -4552.2399 6216.1168 L -4602.2533 6266.2527 L -4602.2533 6558.0349 L -4552.2399 6608.1195 L -4346.2974 6608.1195 L -4296.2157 6558.0349 L -4296.2157 6488.0051 L -4107.445 6488.0051 L -4107.445 6619.6289 L -4254.8053 6768.4315 L -4646.6167 6768.4315 L -4790.9728 6622.4636 L -4790.9728 6201.8752 L -4646.6167 6055.9244 z M -3978.7587 6055.9244 L -3804.2922 6055.9244 L -3804.2922 6173.2212 L -3688.4079 6055.9244 L -3508.2573 6055.9244 L -3410.9786 6154.6593 L -3313.8366 6055.9244 L -3064.9133 6055.9244 L -2911.9713 6210.4646 L -2911.9713 6768.4315 L -3100.6908 6768.4315 L -3100.6908 6266.2527 L -3149.3045 6216.1168 L -3269.3708 6216.1168 L -3345.2102 6291.9525 L -3345.2102 6768.4315 L -3528.2797 6768.4315 L -3528.2797 6263.3668 L -3574.094 6216.1168 L -3659.7995 6216.1168 L -3789.9538 6347.7748 L -3789.9538 6768.4315 L -3978.7587 6768.4315 L -3978.7587 6055.9244 z M -5395.8959 6476.4786 L -5434.541 6515.0368 L -5434.541 6586.6376 L -5398.8147 6622.4636 L -5230.0153 6622.4636 L -5127.0867 6523.7286 L -5127.0867 6476.4786 L -5395.8959 6476.4786 z M -3833.2931 6881.0836 C -3828.8981 6881.0836 -3824.4935 6881.6289 -3820.0984 6882.723 C -3815.5661 6883.8171 -3811.111 6885.3945 -3806.716 6887.4531 L -3812.2806 6908.2008 C -3814.3408 6907.1066 -3816.7371 6906.2087 -3819.4839 6905.5198 C -3822.2308 6904.6891 -3824.8466 6904.2732 -3827.3188 6904.2732 C -3831.9885 6904.2732 -3835.5491 6905.9198 -3838.0213 6909.2083 C -3840.4935 6912.4967 -3841.7425 6917.3003 -3841.7425 6923.6035 L -3841.7425 6931.2025 L -3815.3702 6931.2025 L -3815.3702 6952.1721 L -3841.7425 6952.1721 L -3841.7425 7033.1307 L -3869.3437 7033.1649 L -3869.3437 6952.1892 L -3883.5625 6952.1892 L -3883.5625 6931.2196 L -3869.3437 6931.2196 L -3869.3437 6924.6452 C -3869.3437 6915.7404 -3867.8923 6908.0674 -3865.0081 6901.6264 C -3861.9865 6895.0516 -3857.8014 6889.9754 -3852.445 6886.4114 C -3846.9512 6882.8495 -3840.5723 6881.0836 -3833.2931 6881.0836 z M -2948.2267 6883.1328 L -2920.6084 6883.1328 L -2920.6084 6973.9614 L -2877.1497 6925.6698 L -2847.8927 6925.6698 L -2888.057 6971.2976 L -2845.008 7033.1649 L -2874.4698 7033.1649 L -2905.9799 6986.7003 L -2920.6084 7001.0956 L -2920.6084 7033.1649 L -2948.2267 7033.1649 L -2948.2267 6883.1328 z M -5550.3058 6883.1499 L -5522.7046 6883.1499 L -5522.7046 6945.427 C -5518.7216 6938.5767 -5513.2875 6933.2299 -5506.4203 6929.3924 C -5499.5531 6925.5569 -5492.0774 6923.6377 -5483.974 6923.6377 C -5476.9695 6923.6377 -5471.2655 6924.8774 -5466.8705 6927.3432 C -5462.4755 6929.6733 -5459.0328 6932.8824 -5456.5606 6936.9913 C -5454.0884 6940.9646 -5452.3841 6945.4976 -5451.4227 6950.567 C -5450.4613 6955.4986 -5449.9718 6960.6248 -5449.9718 6965.9698 L -5449.9718 7033.1649 L -5477.5901 7033.1649 L -5477.5901 6972.749 C -5477.5901 6964.3913 -5479.2269 6958.1595 -5482.5231 6954.0505 C -5485.6821 6949.9395 -5490.0867 6947.886 -5495.7178 6947.886 C -5499.0141 6947.886 -5502.5072 6948.8471 -5506.2155 6950.7719 C -5509.9238 6952.6967 -5513.299 6955.3626 -5516.3206 6958.7806 C -5519.2048 6962.0691 -5521.3311 6965.9055 -5522.7046 6970.2901 L -5522.7046 7033.1819 L -5550.3058 7033.1819 L -5550.3058 6883.1499 z M -5111.69 6883.1499 L -5084.0888 6883.1499 L -5084.0888 6910.4719 L -5111.69 6910.4719 L -5111.69 6883.1499 z M -4557.4461 6883.1499 L -4529.8448 6883.1499 L -4529.8448 6998.6367 C -4529.8448 7003.5703 -4529.018 7006.9307 -4527.3698 7008.7116 C -4525.7217 7010.3528 -4523.4605 7011.1706 -4520.5761 7011.1706 C -4518.3786 7011.1706 -4516.1174 7010.898 -4513.7825 7010.351 C -4511.4476 7009.8039 -4509.3718 7009.1155 -4507.5863 7008.2847 L -4503.8822 7029.2544 C -4507.5905 7031.0374 -4511.9277 7032.3964 -4516.8721 7033.3527 C -4521.8165 7034.305 -4526.2715 7034.7871 -4530.2545 7034.7871 C -4538.9072 7034.7871 -4545.6405 7032.5301 -4550.4476 7028.0078 C -4555.1173 7023.3498 -4557.4461 7016.7612 -4557.4461 7008.2677 L -4557.4461 6883.1499 z M -4492.1385 6883.1499 L -4464.5372 6883.1499 L -4464.5372 6998.6367 C -4464.5372 7003.5703 -4463.7102 7006.9307 -4462.0622 7008.7116 C -4460.4139 7010.3528 -4458.1527 7011.1706 -4455.2685 7011.1706 C -4453.071 7011.1706 -4450.8098 7010.898 -4448.4749 7010.351 C -4446.14 7009.8039 -4444.0642 7009.1155 -4442.2787 7008.2847 L -4438.5746 7029.2544 C -4442.2829 7031.0374 -4446.6201 7032.3964 -4451.5645 7033.3527 C -4456.5089 7034.305 -4460.9639 7034.7871 -4464.9469 7034.7871 C -4473.5996 7034.7871 -4480.333 7032.5301 -4485.14 7028.0078 C -4489.8097 7023.3498 -4492.1385 7016.7612 -4492.1385 7008.2677 L -4492.1385 6883.1499 z M -5187.1027 6886.4285 C -5173.643 6886.4285 -5162.0326 6889.382 -5152.2811 6895.274 C -5142.3923 6901.166 -5135.0516 6908.8389 -5130.2445 6918.2928 L -5152.0763 6933.2858 C -5154.5485 6927.8051 -5157.7717 6923.4926 -5161.7547 6920.342 C -5165.7376 6917.0536 -5170.0073 6914.7966 -5174.5396 6913.5627 C -5179.072 6912.1849 -5183.527 6911.4965 -5187.9221 6911.4965 C -5195.064 6911.4965 -5201.3079 6912.9226 -5206.6643 6915.7997 C -5211.8834 6918.6768 -5216.288 6922.4461 -5219.8589 6927.1042 C -5223.4299 6931.7622 -5226.0961 6936.9727 -5227.8816 6942.729 C -5229.5296 6948.4832 -5230.3566 6954.2389 -5230.3566 6959.9931 C -5230.3566 6966.4321 -5229.3272 6972.6638 -5227.2671 6978.6916 C -5225.2069 6984.5836 -5222.3212 6989.8632 -5218.6129 6994.5213 C -5214.7672 6999.0416 -5210.2447 7002.6746 -5205.0256 7005.4159 C -5199.6692 7008.0195 -5193.8302 7009.3093 -5187.5124 7009.3093 C -5182.98 7009.3093 -5178.373 7008.5717 -5173.7032 7007.0723 C -5169.0335 7005.573 -5164.7135 7003.1627 -5160.7305 6999.8661 C -5156.7475 6996.5777 -5153.6593 6992.3324 -5151.4618 6987.1272 L -5128.1791 7000.498 C -5131.0633 7007.7596 -5135.8054 7013.9222 -5142.3979 7018.9916 C -5148.8531 7024.0609 -5156.1264 7027.8974 -5164.2297 7030.501 C -5172.333 7033.1025 -5180.3658 7034.3944 -5188.3317 7034.3944 C -5198.7699 7034.3944 -5208.3215 7032.2717 -5216.9742 7028.0249 C -5225.6269 7023.6404 -5233.1027 7017.8847 -5239.4205 7010.7608 C -5245.601 7003.4992 -5250.4781 6995.4173 -5254.049 6986.5125 C -5257.4826 6977.4699 -5259.204 6968.3709 -5259.204 6959.1905 C -5259.204 6950.2857 -5257.6176 6941.5764 -5254.4587 6933.0809 C -5251.1624 6924.4496 -5246.4374 6916.6383 -5240.2569 6909.6522 C -5234.0764 6902.5263 -5226.5161 6896.9069 -5217.5887 6892.798 C -5208.6613 6888.5492 -5198.5023 6886.4285 -5187.1027 6886.4285 z M -4757.0217 6886.4285 C -4743.5619 6886.4285 -4731.9686 6889.382 -4722.2172 6895.274 C -4712.3283 6901.166 -4704.9705 6908.8389 -4700.1635 6918.2928 L -4722.0123 6933.2858 C -4724.4845 6927.8051 -4727.7077 6923.4926 -4731.6907 6920.342 C -4735.6737 6917.0536 -4739.9262 6914.7966 -4744.4586 6913.5627 C -4748.991 6912.1849 -4753.4631 6911.4965 -4757.8581 6911.4965 C -4765 6911.4965 -4771.2439 6912.9226 -4776.6003 6915.7997 C -4781.8194 6918.6768 -4786.2069 6922.4461 -4789.7779 6927.1042 C -4793.3489 6931.7622 -4796.0321 6936.9727 -4797.8176 6942.729 C -4799.4657 6948.4832 -4800.2927 6954.2389 -4800.2927 6959.9931 C -4800.2927 6966.4321 -4799.2633 6972.6638 -4797.2031 6978.6916 C -4795.1429 6984.5836 -4792.2572 6989.8632 -4788.5489 6994.5213 C -4784.7033 6999.0416 -4780.1637 7002.6746 -4774.9446 7005.4159 C -4769.5881 7008.0195 -4763.7663 7009.3093 -4757.4484 7009.3093 C -4752.9161 7009.3093 -4748.309 7008.5717 -4743.6393 7007.0723 C -4738.9696 7005.573 -4734.6495 7003.1627 -4730.6665 6999.8661 C -4726.6835 6996.5777 -4723.5783 6992.3324 -4721.3808 6987.1272 L -4698.1151 7000.498 C -4700.9994 7007.7596 -4705.7244 7013.9222 -4712.3169 7018.9916 C -4718.7721 7024.0609 -4726.0624 7027.8974 -4734.1657 7030.501 C -4742.2691 7033.1025 -4750.3018 7034.3944 -4758.2678 7034.3944 C -4768.7059 7034.3944 -4778.2405 7032.2717 -4786.8932 7028.0249 C -4795.5459 7023.6404 -4803.0387 7017.8847 -4809.3565 7010.7608 C -4815.537 7003.4992 -4820.4141 6995.4173 -4823.985 6986.5125 C -4827.4186 6977.4699 -4829.14 6968.3709 -4829.14 6959.1905 C -4829.14 6950.2857 -4827.5536 6941.5764 -4824.3947 6933.0809 C -4821.0984 6924.4496 -4816.3564 6916.6383 -4810.1759 6909.6522 C -4803.9954 6902.5263 -4796.4521 6896.9069 -4787.5247 6892.798 C -4778.5974 6888.5492 -4768.4213 6886.4285 -4757.0217 6886.4285 z M -5687.5098 6887.2482 L -5565.7536 6887.2482 L -5565.7536 6912.1283 L -5612.5238 6912.1283 L -5612.5238 7033.1649 L -5640.7396 7033.1649 L -5640.7396 6912.1283 L -5687.5098 6912.1283 L -5687.5098 6887.2482 z M -3751.8378 6887.2482 L -3729.1697 6887.2482 L -3653.5692 6983.4217 L -3653.5692 6887.4531 L -3625.1316 6887.4531 L -3625.1316 7033.1649 L -3648.8239 7033.1649 L -3723.4002 6939.4503 L -3723.4002 7033.1649 L -3751.8378 7033.1649 L -3751.8378 6887.2482 z M -3281.5754 6887.2482 L -3250.6797 6887.2482 L -3214.6121 6955.8777 L -3177.947 6887.2482 L -3147.2561 6887.2482 L -3200.4103 6982.1922 L -3200.4103 7033.1649 L -3228.6261 7033.1649 L -3228.6261 6981.7824 L -3281.5754 6887.2482 z M -5052.9883 6890.561 L -5025.37 6890.561 L -5025.37 6925.499 L -5002.7189 6925.499 L -5002.7189 6946.6736 L -5025.37 6946.6736 L -5025.37 6999.2855 C -5025.2327 7002.9853 -5024.2033 7005.6511 -5022.2804 7007.2943 C -5020.3576 7008.9355 -5017.9614 7009.7533 -5015.0771 7009.7533 C -5012.1929 7009.7533 -5009.3747 7009.2712 -5006.6278 7008.3189 C -5003.8809 7007.3666 -5001.6871 7006.5488 -5000.039 7005.8599 L -4994.4744 7027.6151 C -4996.8092 7028.5674 -4999.6275 7029.6708 -5002.9237 7030.9108 C -5006.22 7032.1467 -5009.7806 7033.1078 -5013.6262 7033.7967 C -5017.3345 7034.6274 -5021.1147 7035.0432 -5024.9603 7035.0432 C -5030.0421 7035.0432 -5034.7167 7034.1453 -5038.9743 7032.3623 C -5043.232 7030.5793 -5046.6576 7027.7771 -5049.2672 7023.9437 C -5051.7394 7019.9704 -5052.9883 7014.8271 -5052.9883 7008.5238 L -5052.9883 6946.6736 L -5067.1901 6946.6736 L -5067.1901 6925.499 L -5052.9883 6925.499 L -5052.9883 6890.561 z M -3548.9166 6923.6206 C -3537.105 6923.6206 -3527.0135 6926.2194 -3518.6355 6931.4245 C -3510.2574 6936.4938 -3503.8615 6943.2838 -3499.4665 6951.7794 C -3494.9341 6960.1372 -3492.6729 6969.1691 -3492.6729 6978.8965 C -3492.6729 6980.5377 -3492.7396 6982.2535 -3492.8777 6984.0364 C -3493.0158 6985.6776 -3493.1509 6987.0516 -3493.2874 6988.1518 L -3576.7227 6988.1518 C -3576.1733 6993.6325 -3574.604 6998.4211 -3571.9945 7002.53 C -3569.2476 7006.6411 -3565.8049 7009.798 -3561.6845 7011.9903 C -3557.4269 7014.0448 -3552.9043 7015.064 -3548.0973 7015.064 C -3542.6035 7015.064 -3537.4394 7013.7742 -3532.6324 7011.1706 C -3527.688 7008.4313 -3524.3298 7004.8654 -3522.5444 7000.4809 L -3498.852 7007.0553 C -3501.4615 7012.5359 -3505.2417 7017.4087 -3510.1861 7021.6555 C -3514.9931 7025.9022 -3520.6971 7029.2476 -3527.2897 7031.7134 C -3533.882 7034.0434 -3541.1557 7035.214 -3549.1214 7035.214 C -3557.774 7035.214 -3565.6045 7033.7708 -3572.609 7030.8937 C -3579.6135 7027.8788 -3585.5875 7023.8389 -3590.5318 7018.7696 C -3595.4763 7013.5644 -3599.3239 7007.6724 -3602.0708 7001.0956 C -3604.6803 6994.381 -3605.9797 6987.3185 -3605.9797 6979.9211 C -3605.9797 6969.6446 -3603.7184 6960.2729 -3599.186 6951.7794 C -3594.5163 6943.2838 -3587.918 6936.4938 -3579.4026 6931.4245 C -3570.7499 6926.2194 -3560.5909 6923.6206 -3548.9166 6923.6206 z M -3102.9439 6923.6206 C -3094.1539 6923.6206 -3086.3236 6925.133 -3079.4564 6928.1458 C -3072.4518 6931.0229 -3066.4779 6935.0628 -3061.5335 6940.27 C -3056.5891 6945.4771 -3052.8765 6951.4363 -3050.4043 6958.1488 C -3047.7947 6964.8614 -3046.4954 6971.974 -3046.4954 6979.5112 C -3046.4954 6986.9086 -3047.7947 6993.9712 -3050.4043 7000.6858 C -3052.8765 7007.3984 -3056.5891 7013.3575 -3061.5335 7018.5647 C -3066.3406 7023.7698 -3072.247 7027.8788 -3079.2516 7030.8937 C -3086.2561 7033.7708 -3094.1539 7035.214 -3102.9439 7035.214 C -3111.734 7035.214 -3119.6317 7033.7708 -3126.6363 7030.8937 C -3133.6408 7027.8788 -3139.6148 7023.7698 -3144.5592 7018.5647 C -3149.3662 7013.3575 -3153.0618 7007.3984 -3155.6714 7000.6858 C -3158.2809 6993.9712 -3159.5973 6986.9086 -3159.5973 6979.5112 C -3159.5973 6971.974 -3158.2809 6964.8614 -3155.6714 6958.1488 C -3153.0618 6951.4363 -3149.3662 6945.4771 -3144.5592 6940.27 C -3139.6148 6935.0628 -3133.6408 6931.0229 -3126.6363 6928.1458 C -3119.6317 6925.133 -3111.734 6923.6206 -3102.9439 6923.6206 z M -5375.6003 6923.6377 C -5363.7887 6923.6377 -5353.6972 6926.2364 -5345.3192 6931.4415 C -5336.9412 6936.5109 -5330.5623 6943.2838 -5326.1673 6951.7794 C -5321.6349 6960.1372 -5319.3566 6969.1861 -5319.3566 6978.9136 C -5319.3566 6980.5547 -5319.4233 6982.2705 -5319.5614 6984.0535 C -5319.6995 6985.6947 -5319.8517 6987.0687 -5319.9882 6988.1689 L -5403.4235 6988.1689 C -5402.8741 6993.6496 -5401.2877 6998.4381 -5398.6782 7002.5471 C -5395.9313 7006.6581 -5392.5056 7009.8151 -5388.3853 7012.0074 C -5384.1276 7014.0619 -5379.588 7015.0811 -5374.781 7015.0811 C -5369.2872 7015.0811 -5364.1402 7013.7742 -5359.3332 7011.1706 C -5354.3888 7008.4313 -5351.0135 7004.8825 -5349.2281 7000.498 L -5325.5357 7007.0723 C -5328.1453 7012.553 -5331.9254 7017.4087 -5336.8698 7021.6555 C -5341.6769 7025.9022 -5347.3808 7029.2647 -5353.9734 7031.7305 C -5360.5659 7034.0605 -5367.8392 7035.2311 -5375.8051 7035.2311 C -5384.4578 7035.2311 -5392.2881 7033.7879 -5399.2927 7030.9108 C -5406.2972 7027.8959 -5412.2711 7023.856 -5417.2156 7018.7866 C -5422.1599 7013.5815 -5426.0076 7007.6895 -5428.7545 7001.1127 C -5431.364 6994.3981 -5432.6634 6987.3355 -5432.6634 6979.9381 C -5432.6634 6969.6616 -5430.4021 6960.2729 -5425.8697 6951.7794 C -5421.2 6943.2838 -5414.6016 6936.5109 -5406.0863 6931.4415 C -5397.4336 6926.2364 -5387.2746 6923.6377 -5375.6003 6923.6377 z M -4632.2272 6923.6377 C -4623.4371 6923.6377 -4615.624 6925.133 -4608.7567 6928.1458 C -4601.7522 6931.0229 -4595.7612 6935.0628 -4590.8168 6940.27 C -4585.8724 6945.4771 -4582.1768 6951.4363 -4579.7046 6958.1488 C -4577.095 6964.8614 -4575.7786 6971.9911 -4575.7786 6979.5283 C -4575.7786 6986.9257 -4577.095 6993.9883 -4579.7046 7000.7029 C -4582.1768 7007.4154 -4585.8724 7013.3746 -4590.8168 7018.5817 C -4595.6238 7023.7868 -4601.5303 7027.8959 -4608.5348 7030.9108 C -4615.5394 7033.7879 -4623.4371 7035.2311 -4632.2272 7035.2311 C -4641.0172 7035.2311 -4648.915 7033.7879 -4655.9195 7030.9108 C -4662.9241 7027.8959 -4668.898 7023.7868 -4673.8424 7018.5817 C -4678.6495 7013.3746 -4682.3621 7007.4154 -4684.9717 7000.7029 C -4687.5812 6993.9883 -4688.8806 6986.9257 -4688.8806 6979.5283 C -4688.8806 6971.9911 -4687.5812 6964.8614 -4684.9717 6958.1488 C -4682.3621 6951.4363 -4678.6495 6945.4771 -4673.8424 6940.27 C -4668.898 6935.0628 -4662.9241 6931.0229 -4655.9195 6928.1458 C -4648.915 6925.133 -4641.0172 6923.6377 -4632.2272 6923.6377 z M -4376.3566 6923.6377 C -4364.545 6923.6377 -4354.4535 6926.2364 -4346.0755 6931.4415 C -4337.6975 6936.5109 -4331.3186 6943.2838 -4326.9236 6951.7794 C -4322.3912 6960.1372 -4320.1129 6969.1861 -4320.1129 6978.9136 C -4320.1129 6980.5547 -4320.1796 6982.2705 -4320.3177 6984.0535 C -4320.4558 6985.6947 -4320.608 6987.0687 -4320.7445 6988.1689 L -4404.1798 6988.1689 C -4403.6304 6993.6496 -4402.044 6998.4381 -4399.4345 7002.5471 C -4396.6876 7006.6581 -4393.2619 7009.8151 -4389.1416 7012.0074 C -4384.8839 7014.0619 -4380.3444 7015.0811 -4375.5373 7015.0811 C -4370.0435 7015.0811 -4364.8965 7013.7742 -4360.0895 7011.1706 C -4355.145 7008.4313 -4351.7698 7004.8825 -4349.9844 7000.498 L -4326.292 7007.0723 C -4328.9016 7012.553 -4332.6817 7017.4087 -4337.6261 7021.6555 C -4342.4332 7025.9022 -4348.1371 7029.2647 -4354.7297 7031.7305 C -4361.3222 7034.0605 -4368.5955 7035.2311 -4376.5614 7035.2311 C -4385.2142 7035.2311 -4393.0444 7033.7879 -4400.049 7030.9108 C -4407.0535 7027.8959 -4413.0274 7023.856 -4417.9719 7018.7866 C -4422.9162 7013.5815 -4426.7639 7007.6895 -4429.5108 7001.1127 C -4432.1203 6994.3981 -4433.4367 6987.3355 -4433.4367 6979.9381 C -4433.4367 6969.6616 -4431.1584 6960.2729 -4426.6261 6951.7794 C -4421.9563 6943.2838 -4415.375 6936.5109 -4406.8597 6931.4415 C -4398.2069 6926.2364 -4388.0309 6923.6377 -4376.3566 6923.6377 z M -4259.3458 6923.6377 C -4250.9677 6923.6377 -4243.6099 6925.5399 -4237.2921 6929.3753 C -4230.9742 6933.075 -4225.7597 6938.0841 -4221.6394 6944.3854 L -4221.6394 6925.4819 L -4197.5374 6925.4819 L -4197.5374 7028.0249 C -4197.5374 7038.7127 -4200.1532 7047.8288 -4205.3723 7055.364 C -4210.454 7063.0349 -4217.5248 7068.8598 -4226.5895 7072.833 C -4235.6543 7076.944 -4245.9483 7078.9976 -4257.4852 7078.9976 C -4269.1595 7078.9976 -4279.0485 7077.0112 -4287.1518 7073.0379 C -4295.2552 7069.2025 -4302.191 7063.7194 -4307.9595 7056.5935 L -4292.9213 7042.0104 C -4288.801 7047.0797 -4283.654 7051.0525 -4277.4735 7053.9296 C -4271.1556 7056.8067 -4264.4898 7058.2328 -4257.4852 7058.2328 C -4251.5794 7058.2328 -4246.2299 7057.1464 -4241.4229 7054.9542 C -4236.4785 7052.8997 -4232.5633 7049.6044 -4229.6791 7045.0841 C -4226.6575 7040.6996 -4225.1386 7035.013 -4225.1386 7028.0249 L -4225.1386 7014.4663 C -4228.7096 7020.6319 -4233.8062 7025.4355 -4240.3987 7028.8616 C -4246.8539 7032.148 -4253.7052 7033.7796 -4260.9844 7033.7796 C -4268.1263 7033.7796 -4274.7247 7032.4206 -4280.7679 7029.6813 C -4286.6737 7026.8042 -4291.8207 7022.8314 -4296.2157 7017.7621 C -4300.4734 7012.6927 -4303.7811 7006.8699 -4306.116 7000.293 C -4308.4508 6993.7183 -4309.6152 6986.7228 -4309.6152 6979.3234 C -4309.6152 6971.5147 -4308.3833 6964.2487 -4305.9111 6957.5341 C -4303.4389 6950.8215 -4299.9962 6944.9295 -4295.6012 6939.8601 C -4291.0688 6934.653 -4285.7869 6930.6802 -4279.7437 6927.9409 C -4273.5632 6925.0638 -4266.7624 6923.6377 -4259.3458 6923.6377 z M -4122.3466 6923.6377 C -4110.535 6923.6377 -4100.4435 6926.2364 -4092.0655 6931.4415 C -4083.6874 6936.5109 -4077.2915 6943.2838 -4072.8965 6951.7794 C -4068.3642 6960.1372 -4066.1029 6969.1861 -4066.1029 6978.9136 C -4066.1029 6980.5547 -4066.1696 6982.2705 -4066.3077 6984.0535 C -4066.4458 6985.6947 -4066.5809 6987.0687 -4066.7174 6988.1689 L -4150.1527 6988.1689 C -4149.6033 6993.6496 -4148.034 6998.4381 -4145.4245 7002.5471 C -4142.6776 7006.6581 -4139.2349 7009.8151 -4135.1145 7012.0074 C -4130.8569 7014.0619 -4126.3343 7015.0811 -4121.5273 7015.0811 C -4116.0335 7015.0811 -4110.8695 7013.7742 -4106.0624 7011.1706 C -4101.118 7008.4313 -4097.7598 7004.8825 -4095.9744 7000.498 L -4072.282 7007.0723 C -4074.8916 7012.553 -4078.6717 7017.4087 -4083.6161 7021.6555 C -4088.4232 7025.9022 -4094.1271 7029.2647 -4100.7197 7031.7305 C -4107.3122 7034.0605 -4114.5855 7035.2311 -4122.5514 7035.2311 C -4131.2041 7035.2311 -4139.0344 7033.7879 -4146.039 7030.9108 C -4153.0435 7027.8959 -4159.0175 7023.856 -4163.9619 7018.7866 C -4168.9063 7013.5815 -4172.7539 7007.6895 -4175.5008 7001.1127 C -4178.1103 6994.3981 -4179.4097 6987.3355 -4179.4097 6979.9381 C -4179.4097 6969.6616 -4177.1484 6960.2729 -4172.616 6951.7794 C -4167.9463 6943.2838 -4161.348 6936.5109 -4152.8326 6931.4415 C -4144.1799 6926.2364 -4134.0209 6923.6377 -4122.3466 6923.6377 z M -3949.9114 6923.6377 C -3941.1213 6923.6377 -3933.2911 6925.133 -3926.4238 6928.1458 C -3919.4193 6931.0229 -3913.4454 6935.0628 -3908.501 6940.27 C -3903.5566 6945.4771 -3899.8439 6951.4363 -3897.3717 6958.1488 C -3894.7622 6964.8614 -3893.4628 6971.9911 -3893.4628 6979.5283 C -3893.4628 6986.9257 -3894.7622 6993.9883 -3897.3717 7000.7029 C -3899.8439 7007.4154 -3903.5566 7013.3746 -3908.501 7018.5817 C -3913.308 7023.7868 -3919.2145 7027.8959 -3926.219 7030.9108 C -3933.2236 7033.7879 -3941.1213 7035.2311 -3949.9114 7035.2311 C -3958.7014 7035.2311 -3966.5992 7033.7879 -3973.6037 7030.9108 C -3980.6083 7027.8959 -3986.5822 7023.7868 -3991.5266 7018.5817 C -3996.3337 7013.3746 -4000.0293 7007.4154 -4002.6388 7000.7029 C -4005.2483 6993.9883 -4006.5648 6986.9257 -4006.5648 6979.5283 C -4006.5648 6971.9911 -4005.2483 6964.8614 -4002.6388 6958.1488 C -4000.0293 6951.4363 -3996.3337 6945.4771 -3991.5266 6940.27 C -3986.5822 6935.0628 -3980.6083 6931.0229 -3973.6037 6928.1458 C -3966.5992 6925.133 -3958.7014 6923.6377 -3949.9114 6923.6377 z M -2969.2392 6924.0304 L -2965.7229 6924.0304 C -2964.8989 6924.0304 -2964.224 6924.1352 -2963.6746 6924.3378 L -2963.6746 6949.3033 C -2972.0526 6949.3033 -2979.5283 6950.95 -2986.1208 6954.2384 C -2992.7134 6957.391 -2997.4554 6961.9741 -3000.3397 6968.0018 L -3000.3397 7033.1649 L -3027.9409 7033.1649 L -3027.9409 6925.4649 L -3002.6099 6925.4649 L -3002.6099 6948.4837 C -2998.7643 6941.0842 -2993.8872 6935.2614 -2987.9814 6931.0146 C -2982.0756 6926.7679 -2975.8317 6924.4418 -2969.2392 6924.0304 z M -4991.8457 6925.4478 L -4963.2032 6925.4478 L -4934.1681 7004.989 L -4908.6152 6925.4478 L -4882.2429 6925.4478 L -4927.5622 7054.5102 C -4929.2104 7059.306 -4931.7587 7063.6185 -4935.1923 7067.454 C -4938.4885 7071.4272 -4942.6736 7074.5171 -4947.7554 7076.7093 C -4952.6998 7079.0394 -4958.2688 7080.1929 -4964.4493 7080.1929 C -4966.6468 7080.1929 -4968.8405 7080.0004 -4971.0381 7079.5952 C -4973.2356 7079.3116 -4975.6318 7078.7664 -4978.2413 7077.9559 L -4978.2413 7054.1345 C -4975.7691 7054.6816 -4973.5079 7055.1466 -4971.4477 7055.5518 C -4969.2502 7055.9571 -4967.3939 7056.1666 -4965.8831 7056.1666 C -4963.2735 7056.1666 -4961.1473 7055.4781 -4959.4991 7054.1004 C -4957.7136 7052.8644 -4955.9923 7050.5383 -4954.3442 7047.1162 C -4952.696 7043.8278 -4950.9917 7039.1584 -4949.2063 7033.1307 L -4991.8457 6925.4478 z M -3491.0854 6925.4649 L -3465.1399 6925.4649 L -3432.9982 7006.8503 L -3420.4351 6971.7074 L -3439.1773 6925.6698 L -3416.3043 6925.6698 L -3405.1921 6958.5587 L -3393.858 6925.6698 L -3370.985 6925.6698 L -3389.7272 6971.7074 L -3376.9593 7006.8503 L -3345.0224 6925.4649 L -3318.8721 6925.4649 L -3363.9865 7033.1649 L -3387.0473 7033.1649 L -3405.1921 6986.9223 L -3422.9102 7033.1649 L -3446.1758 7033.1649 L -3491.0854 6925.4649 z M -5111.69 6925.4819 L -5084.0888 6925.4819 L -5084.0888 7033.1649 L -5111.69 7033.1649 L -5111.69 6925.4819 z M -3549.3263 6943.5486 C -3554.2707 6943.5486 -3558.7932 6944.7192 -3562.9135 6947.0493 C -3566.8965 6949.2395 -3570.2043 6952.3814 -3572.8138 6956.4924 C -3575.286 6960.4657 -3576.7878 6965.2021 -3577.3372 6970.6828 L -3520.8886 6970.6828 C -3521.438 6965.2021 -3523.0244 6960.4657 -3525.6339 6956.4924 C -3528.1061 6952.3814 -3531.3968 6949.2395 -3535.5171 6947.0493 C -3539.6374 6944.7192 -3544.2445 6943.5486 -3549.3263 6943.5486 z M -5376.01 6943.5657 C -5380.9544 6943.5657 -5385.494 6944.7363 -5389.6143 6947.0663 C -5393.5973 6949.2566 -5396.888 6952.3985 -5399.4975 6956.5095 C -5401.9697 6960.4827 -5403.4886 6965.2192 -5404.038 6970.6999 L -5347.5894 6970.6999 C -5348.1388 6965.2192 -5349.7081 6960.4827 -5352.3176 6956.5095 C -5354.7898 6952.3985 -5358.0976 6949.2566 -5362.2179 6947.0663 C -5366.3382 6944.7363 -5370.9282 6943.5657 -5376.01 6943.5657 z M -4376.7663 6943.5657 C -4381.7107 6943.5657 -4386.2503 6944.7363 -4390.3706 6947.0663 C -4394.3536 6949.2566 -4397.6442 6952.3985 -4400.2538 6956.5095 C -4402.726 6960.4827 -4404.2449 6965.2192 -4404.7943 6970.6999 L -4348.3457 6970.6999 C -4348.8951 6965.2192 -4350.4644 6960.4827 -4353.0739 6956.5095 C -4355.5461 6952.3985 -4358.8539 6949.2566 -4362.9742 6947.0663 C -4367.0945 6944.7363 -4371.6845 6943.5657 -4376.7663 6943.5657 z M -4122.7563 6943.5657 C -4127.7007 6943.5657 -4132.2232 6944.7363 -4136.3435 6947.0663 C -4140.3265 6949.2566 -4143.6343 6952.3985 -4146.2438 6956.5095 C -4148.716 6960.4827 -4150.2178 6965.2192 -4150.7672 6970.6999 L -4094.3186 6970.6999 C -4094.868 6965.2192 -4096.4544 6960.4827 -4099.0639 6956.5095 C -4101.5361 6952.3985 -4104.8268 6949.2566 -4108.9471 6947.0663 C -4113.0675 6944.7363 -4117.6745 6943.5657 -4122.7563 6943.5657 z M -3102.9439 6947.0493 C -3108.3004 6947.0493 -3113.1099 6948.4925 -3117.3676 6951.3696 C -3121.6253 6954.1089 -3124.9834 6957.9303 -3127.4556 6962.8619 C -3129.9278 6967.6577 -3131.1597 6973.208 -3131.1597 6979.5112 C -3131.1597 6985.8125 -3129.9278 6991.4319 -3127.4556 6996.3655 C -3124.9834 7001.1593 -3121.6253 7004.9286 -3117.3676 7007.67 C -3113.1099 7010.4093 -3108.3004 7011.7854 -3102.9439 7011.7854 C -3097.7248 7011.7854 -3092.9828 7010.4093 -3088.7251 7007.67 C -3084.4674 7004.7929 -3081.0922 7000.9564 -3078.62 6996.1606 C -3076.0105 6991.229 -3074.7111 6985.6096 -3074.7111 6979.3063 C -3074.7111 6973.1408 -3076.0105 6967.6056 -3078.62 6962.674 C -3081.0922 6957.7404 -3084.4674 6953.904 -3088.7251 6951.1646 C -3092.9828 6948.4253 -3097.7248 6947.0493 -3102.9439 6947.0493 z M -4632.2272 6947.0663 C -4637.5836 6947.0663 -4642.3932 6948.4925 -4646.6508 6951.3696 C -4650.9085 6954.1089 -4654.2837 6957.9474 -4656.7559 6962.879 C -4659.2281 6967.6748 -4660.46 6973.225 -4660.46 6979.5283 C -4660.46 6985.8296 -4659.2281 6991.449 -4656.7559 6996.3826 C -4654.2837 7001.1764 -4650.9085 7004.9457 -4646.6508 7007.6871 C -4642.3932 7010.4264 -4637.5836 7011.8025 -4632.2272 7011.8025 C -4627.0081 7011.8025 -4622.2831 7010.4264 -4618.0254 7007.6871 C -4613.7677 7004.81 -4610.3925 7000.9735 -4607.9203 6996.1777 C -4605.3108 6991.2461 -4604.0114 6985.6267 -4604.0114 6979.3234 C -4604.0114 6973.1579 -4605.3108 6967.6056 -4607.9203 6962.674 C -4610.3925 6957.7404 -4613.7677 6953.904 -4618.0254 6951.1646 C -4622.2831 6948.4253 -4627.0081 6947.0663 -4632.2272 6947.0663 z M -4253.3715 6947.0663 C -4257.6291 6947.0663 -4261.4768 6947.9643 -4264.9104 6949.7473 C -4268.344 6951.5303 -4271.2972 6954.0599 -4273.7694 6957.3462 C -4276.2416 6960.4969 -4278.1654 6964.0628 -4279.5389 6968.036 C -4280.775 6971.8714 -4281.3824 6975.9134 -4281.3824 6980.1601 C -4281.3824 6984.5447 -4280.6399 6988.6517 -4279.1292 6992.4892 C -4277.6185 6996.3247 -4275.5426 6999.67 -4272.933 7002.5471 C -4270.1861 7005.4242 -4267.0304 7007.6983 -4263.4595 7009.3435 C -4259.7512 7010.9846 -4255.8361 7011.8025 -4251.7157 7011.8025 C -4248.6942 7011.8025 -4245.8084 7011.3203 -4243.0615 7010.368 C -4240.3146 7009.4158 -4237.7834 7008.1089 -4235.4486 7006.4576 C -4233.1137 7004.8164 -4231.0549 7002.8972 -4229.2694 7000.7029 C -4227.4839 6998.3728 -4226.1 6996.0487 -4225.1386 6993.7187 L -4225.1386 6968.036 C -4226.7869 6963.7892 -4229.1327 6960.0891 -4232.1542 6956.9364 C -4235.0384 6953.7858 -4238.3291 6951.3905 -4242.0374 6949.7473 C -4245.6083 6947.9643 -4249.3885 6947.0663 -4253.3715 6947.0663 z M -3949.9114 6947.0663 C -3955.2678 6947.0663 -3960.0773 6948.4925 -3964.335 6951.3696 C -3968.5927 6954.1089 -3971.9508 6957.9474 -3974.423 6962.879 C -3976.8952 6967.6748 -3978.1271 6973.225 -3978.1271 6979.5283 C -3978.1271 6985.8296 -3976.8952 6991.449 -3974.423 6996.3826 C -3971.9508 7001.1764 -3968.5927 7004.9457 -3964.335 7007.6871 C -3960.0773 7010.4264 -3955.2678 7011.8025 -3949.9114 7011.8025 C -3944.6923 7011.8025 -3939.9502 7010.4264 -3935.6925 7007.6871 C -3931.4349 7004.81 -3928.0767 7000.9735 -3925.6045 6996.1777 C -3922.995 6991.2461 -3921.6785 6985.6267 -3921.6785 6979.3234 C -3921.6785 6973.1579 -3922.995 6967.6056 -3925.6045 6962.674 C -3928.0767 6957.7404 -3931.4349 6953.904 -3935.6925 6951.1646 C -3939.9502 6948.4253 -3944.6923 6947.0663 -3949.9114 6947.0663 z M -3956.227 7198.5826 C -3947.0752 7198.9254 -3938.0483 7200.5171 -3929.4793 7203.5177 L -3929.6329 7204.0812 C -3914.4385 7209.4014 -3901.9559 7220.9774 -3891.551 7235.9797 C -3773.9604 7208.5527 -3645.2032 7237.2329 -3450.7675 7337.0882 A 24.773504 24.783442 0 0 1 -3446.0222 7338.8812 A 24.773504 24.783442 0 0 1 -3444.6395 7339.6155 C -3432.9232 7343.8068 -3423.528 7348.3878 -3415.502 7354.8988 C -3406.4184 7362.2347 -3399.8171 7373.3397 -3397.8352 7383.4844 C -3393.8714 7403.7738 -3399.4909 7415.1666 -3399.4909 7427.5583 C -3399.4909 7431.3482 -3399.565 7435.1295 -3399.7299 7438.8969 A 24.773504 24.783442 0 0 1 -3399.5592 7439.9215 A 24.773504 24.783442 0 0 1 -3400.6346 7451.8749 C -3404.4502 7491.4971 -3417.8779 7528.8377 -3442.7619 7557.3037 C -3457.4544 7574.0764 -3476.4367 7587.0927 -3498.6301 7594.9057 A 24.773504 24.783442 0 0 1 -3499.7738 7600.1481 C -3511.6981 7635.9023 -3544.2903 7655.6432 -3576.8592 7667.2749 C -3605.3323 7677.4526 -3634.404 7680.1495 -3659.9702 7681.1408 C -3724.2492 7725.4206 -3772.6332 7821.7476 -3792.1217 7913.4463 C -3801.8989 7959.7748 -3804.7831 8004.5167 -3800.5881 8038.7178 C -3796.5913 8071.3328 -3785.4859 8090.0757 -3775.9399 8096.982 C -3735.2122 8096.9159 -3700.6671 8102.6243 -3674.8036 8119.6422 C -3646.0993 8138.4776 -3630.6108 8171.3588 -3630.6108 8207.807 A 24.775981 24.785921 0 0 1 -3655.8736 8232.6017 L -3870.5727 8228.401 A 24.775981 24.785921 0 0 1 -3891.4827 8216.0719 C -3951.3014 8113.0019 -3992.2272 8055.8131 -4014.7751 7997.7006 C -4060.3734 8032.3419 -4108.5641 8061.3032 -4156.9293 8083.3381 C -4143.1033 8085.9023 -4130.6857 8089.4672 -4119.8033 8094.301 C -4075.3431 8114.0948 -4052.7402 8153.5218 -4043.6566 8198.859 A 24.775981 24.785921 0 0 1 -4067.0758 8228.5034 C -4067.0758 8228.5034 -4191.2811 8232.6359 -4321.854 8232.6359 C -4387.1569 8232.6359 -4454.0168 8231.4091 -4508.3203 8228.4351 C -4535.472 8226.849 -4559.4491 8224.9031 -4578.9706 8221.929 C -4595.8696 8219.4075 -4608.4138 8217.9449 -4620.9272 8211.2905 C -4644.2317 8209.4769 -4658.0505 8212.7865 -4681.0969 8217.4038 C -4705.8704 8222.3605 -4739.1693 8228.4351 -4794.728 8228.4351 L -4825.8968 8228.4351 A 24.773504 24.783442 0 0 1 -4829.8228 8228.4351 L -4991.0605 8228.4351 A 24.773504 24.783442 0 0 1 -4994.9694 8228.4351 L -4995.123 8228.4351 C -4995.1541 8228.4279 -4995.1944 8228.425 -4995.2254 8228.418 A 24.773504 24.783442 0 0 1 -4997.2908 8228.1448 C -4997.9317 8228.109 -4998.5554 8228.1107 -4999.1855 8228.1107 C -5002.1253 8227.7802 -5005.8054 8227.1152 -5010.2977 8226.4543 C -5019.2822 8224.9342 -5031.3331 8222.3574 -5044.7438 8218.326 C -5070.7727 8210.5334 -5102.374 8197.9103 -5125.2602 8172.5274 A 24.773504 24.783442 0 0 1 -5126.1308 8171.6907 A 24.773504 24.783442 0 0 1 -5129.5276 8167.4728 C -5138.2084 8156.2381 -5141.2409 8145.1061 -5145.5216 8128.8634 C -5150.3112 8111.3167 -5153.6135 8089.9517 -5152.6225 8067.1839 C -5151.7637 8044.4162 -5146.7381 8019.986 -5133.1292 7998.1104 C -5119.5203 7976.2349 -5096.8339 7957.7927 -5066.1147 7948.6064 C -5020.3993 7934.8928 -5009.8285 7931.069 -4910.3051 7931.069 C -4878.4959 7931.069 -4844.2093 7940.9491 -4816.6281 7949.9041 C -4814.3489 7950.565 -4813.3245 7951.2241 -4811.0123 7951.885 C -4853.4575 7782.0358 -4818.4763 7627.1878 -4720.8687 7514.8692 C -4614.6271 7392.5945 -4441.1603 7319.8006 -4233.2808 7319.7729 A 24.773504 24.783442 0 0 0 -4233.2637 7319.7729 L -4233.2466 7319.7729 A 24.773504 24.783442 0 0 1 -4233.1613 7319.7729 C -4200.1299 7319.7729 -4151.3739 7319.6132 -4112.9584 7313.8304 C -4093.7672 7310.9555 -4077.1825 7306.3633 -4068.0659 7301.6379 C -4062.991 7299.0061 -4061.0085 7297.64 -4060.231 7296.7199 C -4071.9516 7244.0846 -4018.537 7201.3742 -3965.4104 7198.6509 C -3962.3454 7198.4938 -3959.2777 7198.4684 -3956.227 7198.5826 z M -3957.3707 7244.7398 C -3984.5664 7243.7902 -4014.9944 7275.4529 -4011.2247 7287.7207 A 24.775981 24.785921 0 0 1 -4010.2347 7294.9611 C -4010.2347 7318.3566 -4027.5393 7336.3898 -4045.2441 7345.6093 C -4062.9819 7354.8287 -4083.5718 7359.5177 -4105.6698 7362.8222 C -4139.8774 7367.8389 -4177.7906 7368.9708 -4208.496 7369.2258 L -4208.496 7499.5006 L -4122.7734 7585.3088 C -4111.3369 7579.2813 -4098.3499 7575.8656 -4084.6232 7575.8656 C -4039.3042 7575.8656 -4002.0414 7613.1434 -4002.0414 7658.4806 C -4002.0414 7703.7847 -4039.3042 7741.0956 -4084.6232 7741.0956 C -4129.9422 7741.0956 -4167.205 7703.7847 -4167.205 7658.4806 C -4167.205 7644.7733 -4163.7875 7631.8094 -4157.7827 7620.3835 L -4250.8111 7527.3178 A 24.775981 24.785921 0 0 1 -4258.0314 7509.7805 L -4258.0314 7369.6697 C -4442.9569 7375.2065 -4592.486 7442.5573 -4683.572 7547.3483 C -4778.6692 7656.825 -4812.341 7807.1547 -4754.7344 7981.0683 C -4754.7344 7981.0723 -4754.708 7981.222 -4754.6832 7981.4952 A 24.773504 24.783442 0 0 1 -4753.7444 7991.8093 C -4753.7443 7991.8097 -4753.7444 7991.8605 -4753.7444 7991.8605 L -4753.7614 7991.8947 A 24.773504 24.783442 0 0 1 -4759.4797 8005.0263 L -4759.5821 8005.2825 C -4759.5856 8005.2825 -4759.6927 8005.3594 -4759.8723 8005.4874 A 24.773504 24.783442 0 0 1 -4760.8111 8006.4778 L -4875.3981 8121.1108 L -4817.6864 8178.8627 L -4794.728 8178.8627 C -4742.6376 8178.8627 -4715.0555 8173.6453 -4690.8436 8168.7877 C -4673.8933 8165.2945 -4657.5582 8161.8919 -4637.8942 8161.3595 L -4637.8942 8055.0086 A 24.775981 24.785921 0 0 1 -4630.6568 8037.5054 L -4570.6237 7977.4482 C -4576.6245 7966.0258 -4580.0289 7953.0435 -4580.0289 7939.351 C -4580.0289 7894.0138 -4542.7661 7856.7531 -4497.4471 7856.7531 C -4452.1281 7856.7531 -4414.8652 7894.0138 -4414.8652 7939.351 C -4414.8652 7984.6551 -4452.1281 8021.966 -4497.4471 8021.966 C -4511.1819 8021.966 -4524.1729 8018.5433 -4535.6143 8012.5057 L -4588.3417 8065.2543 L -4588.3417 8169.3683 C -4583.7522 8170.5579 -4578.0181 8171.8665 -4571.6649 8172.8519 C -4554.5877 8175.3963 -4531.7296 8177.3471 -4505.4697 8178.9993 C -4452.9168 8182.0725 -4386.6284 8183.0635 -4321.854 8183.0635 C -4209.6465 8183.0635 -4129.3527 8180.1554 -4102.5973 8179.4945 C -4110.0954 8162.08 -4120.0603 8148.4603 -4139.9452 8139.6044 C -4169.7725 8126.3205 -4224.253 8121.1784 -4313.4046 8129.3074 A 24.775981 24.785921 0 0 1 -4322.4173 8128.4194 A 24.773504 24.783442 0 0 1 -4323.2195 8128.1974 A 24.775981 24.785921 0 0 1 -4325.3873 8127.3607 A 24.773504 24.783442 0 0 1 -4326.4456 8126.9167 A 24.775981 24.785921 0 0 1 -4327.7771 8126.1824 A 24.773504 24.783442 0 0 1 -4329.8254 8124.9529 A 24.775981 24.785921 0 0 1 -4329.9278 8124.8846 A 24.773504 24.783442 0 0 1 -4339.3843 8112.1628 C -4342.3748 8104.9886 -4344.5734 8098.0001 -4344.5734 8089.144 C -4344.5734 8079.4289 -4339.2337 8067.6052 -4332.198 8061.3268 C -4320.604 8050.9838 -4309.6652 8049.6554 -4297.4106 8046.3509 C -4279.6067 8031.9765 -4261.2706 8000.8949 -4251.9888 7962.7284 C -4242.7731 7924.1323 -4241.9794 7879.3459 -4252.9789 7840.155 C -4264.0113 7800.9641 -4285.817 7767.7174 -4322.8781 7746.8332 C -4359.9063 7725.916 -4414.1351 7716.6734 -4492.6506 7732.3696 A 24.773504 24.783442 0 0 1 -4521.8222 7712.8685 A 24.773504 24.783442 0 0 1 -4502.3289 7683.7535 C -4459.0248 7675.0628 -4420.5545 7673.0832 -4386.5983 7676.7181 L -4386.53 7676.7181 C -4352.6068 7680.386 -4323.3084 7689.6364 -4298.4689 7703.6473 C -4248.8228 7731.6691 -4218.9586 7777.712 -4205.1845 7826.7501 C -4191.3113 7875.7553 -4192.6065 7928.1643 -4203.8702 7974.4598 C -4212.4626 8009.7498 -4227.2278 8040.7956 -4247.6361 8064.6737 C -4176.3867 8043.0284 -4099.5579 8002.166 -4030.3083 7946.967 C -4034.6205 7931.9067 -4040.2362 7913.0358 -4044.254 7893.6891 C -4049.7372 7867.2865 -4054.1711 7839.0103 -4040.9255 7812.5085 A 24.773504 24.783442 0 0 1 -4007.6231 7801.4602 A 24.773504 24.783442 0 0 1 -3996.5962 7834.7077 C -3999.7012 7841.2505 -4000.2636 7861.1768 -3995.6062 7883.6141 C -3990.9157 7906.0844 -3982.9464 7930.106 -3978.0247 7949.7675 C -3963.7882 8006.8025 -3923.1371 8063.9744 -3855.654 8179.1018 L -3691.9071 8182.3975 C -3695.4415 8176.0199 -3694.889 8165.7489 -3701.8586 8161.1888 C -3717.1851 8151.1102 -3745.2304 8144.5667 -3786.4205 8145.8884 A 24.775981 24.785921 0 0 1 -3800.1272 8142.3195 C -3831.5731 8123.451 -3844.4916 8086.6006 -3849.6115 8044.8653 C -3854.6983 8003.163 -3851.2806 7953.924 -3840.4793 7903.2006 C -3818.9099 7801.7206 -3768.777 7693.4346 -3685.4719 7637.8866 A 24.775981 24.785921 0 0 1 -3671.7311 7633.7029 C -3649.6992 7633.7029 -3618.5842 7629.6608 -3593.3483 7620.6396 C -3579.5994 7615.7247 -3568.3183 7609.5593 -3560.1483 7602.7266 C -3565.6621 7602.3349 -3571.263 7601.6629 -3576.9617 7600.7116 A 24.773504 24.783442 0 0 1 -3597.3425 7572.1942 A 24.773504 24.783442 0 0 1 -3568.8366 7551.8052 C -3526.1601 7558.9098 -3499.6621 7547.024 -3480.0415 7524.6198 C -3467.3667 7510.1437 -3458.1135 7490.1223 -3453.1572 7467.2094 C -3456.6188 7466.3118 -3459.9898 7465.1362 -3463.2623 7463.6233 C -3476.3427 7457.6092 -3486.5827 7445.8407 -3491.2732 7432.9202 C -3498.2399 7413.7724 -3496.2822 7393.5466 -3488.8835 7372.5044 C -3679.1056 7276.6876 -3791.9689 7256.0008 -3896.0061 7285.7057 A 24.775981 24.785921 0 0 1 -3925.8093 7271.1397 C -3933.324 7252.3456 -3945.009 7245.1714 -3957.3707 7244.7398 z M -5471.9742 7361.0804 C -5490.5104 7361.0804 -5505.0207 7375.5966 -5505.0206 7394.14 C -5505.0207 7412.6838 -5490.5104 7427.1484 -5471.9742 7427.1484 C -5453.4381 7427.1484 -5438.9108 7412.6838 -5438.9108 7394.14 C -5438.9108 7375.5966 -5453.4381 7361.0804 -5471.9742 7361.0804 z M -3704.7604 7361.0804 A 33.059214 33.072476 0 0 1 -3671.6969 7394.1571 A 33.059214 33.072476 0 0 1 -3704.7604 7427.2338 A 33.059214 33.072476 0 0 1 -3737.8238 7394.1571 A 33.059214 33.072476 0 0 1 -3704.7604 7361.0804 z M -3060.663 7361.0804 C -3079.1991 7361.0804 -3093.7094 7375.5454 -3093.7094 7394.0888 C -3093.7093 7412.6322 -3079.1991 7427.1484 -3060.663 7427.1484 C -3042.1269 7427.1484 -3027.6167 7412.6322 -3027.6166 7394.0888 C -3027.6166 7375.5454 -3042.1269 7361.0804 -3060.663 7361.0804 z M -5356.3289 7608.9082 C -5374.8629 7608.9082 -5389.3753 7623.4263 -5389.3753 7641.9679 C -5389.3753 7660.5091 -5374.8629 7674.9763 -5356.3289 7674.9763 C -5337.795 7674.9763 -5323.3338 7660.5091 -5323.3338 7641.9679 C -5323.3338 7623.4263 -5337.795 7608.9082 -5356.3289 7608.9082 z M -3176.24 7608.9082 C -3194.774 7608.9082 -3209.3035 7623.4263 -3209.3035 7641.9679 C -3209.3034 7660.5091 -3194.774 7674.9763 -3176.24 7674.9763 C -3157.7061 7674.9763 -3143.2619 7660.5091 -3143.2619 7641.9679 C -3143.2618 7623.4263 -3157.706 7608.9082 -3176.24 7608.9082 z M -4084.6232 7625.438 C -4103.1538 7625.438 -4117.6525 7639.9426 -4117.6525 7658.4806 C -4117.6525 7677.0186 -4103.1538 7691.5232 -4084.6232 7691.5232 C -4066.0926 7691.5232 -4051.5939 7677.0186 -4051.5939 7658.4806 C -4051.5939 7639.9426 -4066.0926 7625.438 -4084.6232 7625.438 z M -5471.9742 7856.736 C -5490.5104 7856.736 -5505.0207 7871.252 -5505.0206 7889.7957 C -5505.0206 7908.3391 -5490.5103 7922.8553 -5471.9742 7922.8553 C -5453.4382 7922.8553 -5438.9108 7908.3391 -5438.9108 7889.7957 C -5438.9108 7871.252 -5453.4381 7856.7364 -5471.9742 7856.736 z M -3060.663 7856.736 C -3079.1991 7856.7364 -3093.7093 7871.252 -3093.7094 7889.7957 C -3093.7094 7908.3391 -3079.1991 7922.8553 -3060.663 7922.8553 C -3042.1269 7922.8553 -3027.6166 7908.3391 -3027.6166 7889.7957 C -3027.6167 7871.252 -3042.1269 7856.736 -3060.663 7856.736 z M -4497.4471 7906.3084 C -4515.9776 7906.3084 -4530.4764 7920.813 -4530.4764 7939.351 C -4530.4764 7957.889 -4515.9776 7972.4107 -4497.4471 7972.4107 C -4478.9165 7972.4107 -4464.4177 7957.889 -4464.4177 7939.351 C -4464.4177 7920.813 -4478.9165 7906.3084 -4497.4471 7906.3084 z M -4900.8315 7981.3245 L -4957.9799 8038.5129 L -4910.4245 8086.0703 L -4824.2581 7999.8522 C -4826.7836 7999.0043 -4829.3892 7998.1558 -4832.0589 7997.2908 C -4853.9821 7990.1777 -4880.752 7983.2053 -4900.8145 7981.3245 L -4900.8315 7981.3245 z M -4970.9356 7981.3586 C -4989.5564 7981.9045 -5001.0178 7982.9792 -5011.4584 7985.0129 L -4993.0064 8003.4553 L -4970.9356 7981.3586 z M -5065.193 8001.3379 C -5077.6008 8007.2715 -5085.3903 8015.1674 -5091.1897 8024.5103 C -5098.853 8036.8029 -5102.6142 8052.5775 -5103.2748 8069.1989 C -5103.7758 8083.2026 -5101.9994 8097.5939 -5099.3147 8109.8063 L -5028.0499 8038.5129 L -5065.193 8001.3379 z M -4993.0064 8073.5534 L -5072.1914 8152.7531 C -5059.8708 8160.5242 -5044.6931 8166.9387 -5030.6445 8171.1613 C -5019.6216 8174.453 -5009.4188 8176.5327 -5002.1897 8177.8552 L -4945.4681 8121.1279 L -4993.0064 8073.5534 z M -4910.4416 8156.1684 L -4933.1269 8178.8627 L -4887.7564 8178.8627 L -4910.4416 8156.1684 z "
       transform="matrix(0.03027428,0,0,0.03026214,30536.235,15514.082)" />
    <g
       aria-label="The City College of New York "
       id="g32079"
       style="font-weight:bold;font-size:6.76207px;font-family:Raleway;-inkscape-font-specification:'Raleway Bold';fill:#000000;fill-opacity:1;stroke-width:1.62859;stroke-linecap:round;stroke-linejoin:round;stroke-dasharray:none;paint-order:stroke fill markers"
       transform="matrix(0.92235206,0,0,0.91972398,30387.831,14276.907)" />
    <g
       id="g32011-8-1"
       style="fill:#000000;fill-opacity:1;stroke:none;stroke-width:0;stroke-dasharray:none;stroke-opacity:1"
       transform="matrix(0.08756138,4.360079e-5,-4.360079e-5,0.08756138,30328.225,15579.646)" />
    <g
       id="g61"
       style="fill:#000000;fill-opacity:1">
      <g
         id="path24-9"
         style="opacity:1;fill:#000000;fill-opacity:1" />
    </g>
    <g
       id="g62"
       style="fill:#000000;fill-opacity:1">
      <g
         id="g52"
         transform="matrix(-0.95756783,0,0,0.95756783,30408.372,15124.891)"
         style="stroke:#ede3fa;stroke-width:1.56647;stroke-dasharray:none;stroke-opacity:1;fill:#000000;fill-opacity:1" />
    </g>
    <g
       id="g63"
       transform="translate(0.28439596)"
       style="fill:#000000;fill-opacity:1">
      <g
         id="g60"
         transform="matrix(0.95756783,0,0,0.95756783,30405.356,15124.891)"
         style="stroke:#ede3fa;stroke-width:1.56647;stroke-dasharray:none;stroke-opacity:1;fill:#000000;fill-opacity:1" />
    </g>
  </g>
</svg>
