<?xml version="1.0" encoding="UTF-8" standalone="no"?>
<!-- Created with Inkscape (http://www.inkscape.org/) -->

<svg
   width="136.00136"
   height="136.00243"
   viewBox="0 0 136.00136 136.00243"
   version="1.1"
   id="svg1"
   inkscape:version="1.4.3 (0d15f75, 2025-12-25)"
   sodipodi:docname="acmccny-icon-on-light.svg"
   inkscape:export-filename="../png/acmccny-icon-on-light.png"
   inkscape:export-xdpi="722.81628"
   inkscape:export-ydpi="722.81628"
   xmlns:inkscape="http://www.inkscape.org/namespaces/inkscape"
   xmlns:sodipodi="http://sodipodi.sourceforge.net/DTD/sodipodi-0.dtd"
   xmlns="http://www.w3.org/2000/svg"
   xmlns:svg="http://www.w3.org/2000/svg">
  <sodipodi:namedview
     id="namedview1"
     pagecolor="#000000"
     bordercolor="#eeeeee"
     borderopacity="1"
     inkscape:showpageshadow="0"
     inkscape:pageopacity="0"
     inkscape:pagecheckerboard="0"
     inkscape:deskcolor="#000000"
     inkscape:document-units="px"
     inkscape:zoom="4"
     inkscape:cx="41.75"
     inkscape:cy="56.375"
     inkscape:window-width="1920"
     inkscape:window-height="1057"
     inkscape:window-x="1912"
     inkscape:window-y="-8"
     inkscape:window-maximized="1"
     inkscape:current-layer="layer1"
     showgrid="true"
     showguides="true">
    <inkscape:page
       x="0"
       y="0"
       width="136.00136"
       height="136.00243"
       id="page2"
       margin="0"
       bleed="0"
       inkscape:export-filename="logos.png"
       inkscape:export-xdpi="8"
       inkscape:export-ydpi="8" />
    <inkscape:grid
       id="grid5"
       units="px"
       originx="-0.00021875"
       originy="0.00034375001"
       spacingx="1"
       spacingy="1"
       empcolor="#3297bc"
       empopacity="0.30196078"
       color="#81d0ed"
       opacity="0.14901961"
       empspacing="4"
       enabled="true"
       visible="true"
       dotted="false" />
    <inkscape:grid
       type="axonomgrid"
       id="grid8"
       units="px"
       originx="-0.00021875"
       originy="0.00034375001"
       spacingx="1"
       spacingy="1"
       empcolor="#253700"
       empopacity="0.14901961"
       color="#3a5700"
       opacity="0.14901961"
       empspacing="4"
       dotted="false"
       gridanglex="45"
       gridanglez="45"
       enabled="true"
       visible="true" />
  </sodipodi:namedview>
  <defs
     id="defs1">
    <linearGradient
       id="swatch145"
       inkscape:swatch="solid">
      <stop
         style="stop-color:#000000;stop-opacity:1;"
         offset="0"
         id="stop145" />
    </linearGradient>
    <linearGradient
       id="swatch15"
       inkscape:swatch="solid">
      <stop
         style="stop-color:#e0a6f9;stop-opacity:0.95914745;"
         offset="0"
         id="stop15" />
    </linearGradient>
    <linearGradient
       id="swatch262"
       inkscape:swatch="solid">
      <stop
         style="stop-color:#985dff;stop-opacity:1;"
         offset="0"
         id="stop262" />
    </linearGradient>
    <linearGradient
       id="swatch369"
       inkscape:swatch="solid">
      <stop
         style="stop-color:#000000;stop-opacity:1;"
         offset="0"
         id="stop369" />
    </linearGradient>
    <linearGradient
       id="swatch1"
       inkscape:swatch="solid">
      <stop
         style="stop-color:#ffffff;stop-opacity:1;"
         offset="0"
         id="stop1" />
    </linearGradient>
    <inkscape:path-effect
       effect="fillet_chamfer"
       id="path-effect619-9-3-9-3"
       is_visible="true"
       lpeversion="1"
       nodesatellites_param="F,0,0,1,0,1589.9254,0,1 @ F,0,0,1,0,1589.9254,0,1 @ F,0,0,1,0,1589.9254,0,1 @ F,0,0,1,0,1589.9254,0,1 @ F,0,0,1,0,1589.9254,0,1 @ F,0,0,1,0,1589.9254,0,1 @ F,0,0,1,0,1589.9254,0,1 @ F,0,0,1,0,1589.9254,0,1 @ F,0,0,1,0,1589.9254,0,1 @ F,0,0,1,0,1589.9254,0,1 @ F,0,0,1,0,1589.9254,0,1 @ F,0,0,1,0,1589.9254,0,1 @ F,0,0,1,0,1589.9254,0,1 @ F,0,0,1,0,1589.9254,0,1 @ F,0,0,1,0,1589.9254,0,1 @ F,0,0,1,0,1589.9254,0,1"
       radius="308"
       unit="px"
       method="auto"
       mode="F"
       chamfer_steps="1"
       flexible="false"
       use_knot_distance="true"
       apply_no_radius="true"
       apply_with_radius="true"
       only_selected="false"
       hide_knots="false" />
    <linearGradient
       id="swatch140"
       inkscape:swatch="solid">
      <stop
         style="stop-color:#aad5ec;stop-opacity:1;"
         offset="0"
         id="stop140" />
    </linearGradient>
    <linearGradient
       id="swatch41"
       inkscape:swatch="solid"
       inkscape:label="Purple">
      <stop
         style="stop-color:#634da0;stop-opacity:1;"
         offset="0"
         id="stop41" />
    </linearGradient>
    <inkscape:path-effect
       effect="fillet_chamfer"
       id="path-effect619-9-3-9-3-1"
       is_visible="true"
       lpeversion="1"
       nodesatellites_param="F,0,0,1,0,1589.9254,0,1 @ F,0,0,1,0,1589.9254,0,1 @ F,0,0,1,0,1589.9254,0,1 @ F,0,0,1,0,1589.9254,0,1 @ F,0,0,1,0,1589.9254,0,1 @ F,0,0,1,0,1589.9254,0,1 @ F,0,0,1,0,1589.9254,0,1 @ F,0,0,1,0,1589.9254,0,1 @ F,0,0,1,0,1589.9254,0,1 @ F,0,0,1,0,1589.9254,0,1 @ F,0,0,1,0,1589.9254,0,1 @ F,0,0,1,0,1589.9254,0,1 @ F,0,0,1,0,1589.9254,0,1 @ F,0,0,1,0,1589.9254,0,1 @ F,0,0,1,0,1589.9254,0,1 @ F,0,0,1,0,1589.9254,0,1"
       radius="308"
       unit="px"
       method="auto"
       mode="F"
       chamfer_steps="1"
       flexible="false"
       use_knot_distance="true"
       apply_no_radius="true"
       apply_with_radius="true"
       only_selected="false"
       hide_knots="false" />
  </defs>
  <g
     inkscape:label="Layer 1"
     inkscape:groupmode="layer"
     id="layer1"
     transform="translate(-30339.074,-15659.348)">
    <path
       id="path31993"
       style="fill:#000000;stroke-width:51.3105;stroke-linecap:round;stroke-linejoin:round;paint-order:stroke fill markers;fill-opacity:1"
       inkscape:transform-center-x="0.0002447329"
       inkscape:transform-center-y="-0.00080825476"
       d="M -4266.3042 4800.1259 C -4378.3042 4800.1259 -6150.2096 5823.085 -6206.2096 5920.0799 C -6262.2096 6017.0747 -6262.2096 8063.1216 -6206.2096 8160.1165 C -6150.2096 8257.1113 -4378.3042 9280.1349 -4266.3042 9280.1349 C -4154.3042 9280.1349 -2382.463 8257.1113 -2326.463 8160.1165 C -2270.4629 8063.1216 -2270.463 6017.0747 -2326.463 5920.0799 C -2382.463 5823.085 -4154.3042 4800.1259 -4266.3042 4800.1259 z M -4266.3042 5160.7269 C -4248.0047 5160.7269 -4238.5837 5165.8331 -4221.6089 5172.5003 C -4204.6341 5179.1675 -4183.7371 5188.4925 -4158.9068 5200.2933 C -4109.2462 5223.8948 -4044.1626 5257.3422 -3968.6141 5297.633 C -3817.5171 5378.2146 -3624.7039 5486.2462 -3433.2992 5596.7935 C -3241.8945 5707.3409 -3051.9752 5820.3342 -2906.6661 5910.9442 C -2834.0117 5956.2493 -2772.5685 5995.9122 -2727.3061 6027.1343 C -2704.6749 6042.7454 -2686.1303 6056.2291 -2671.871 6067.6014 C -2657.6117 6078.9737 -2648.4801 6084.559 -2639.3302 6100.4125 C -2630.1805 6116.2662 -2629.8912 6126.9576 -2627.1757 6144.9971 C -2624.4601 6163.0367 -2622.1078 6185.8454 -2619.9087 6213.2572 C -2615.5105 6268.0808 -2611.87 6341.1911 -2608.976 6426.787 C -2603.1882 6597.9787 -2600.2942 6819.0035 -2600.2942 7040.0982 C -2600.2942 7261.1929 -2603.1882 7482.2176 -2608.976 7653.4094 C -2611.87 7739.0053 -2615.5105 7812.1157 -2619.9087 7866.9392 C -2622.1078 7894.3511 -2624.4601 7917.1597 -2627.1757 7935.1993 C -2629.8912 7953.2388 -2630.1805 7963.9303 -2639.3302 7979.7839 C -2648.4801 7995.6374 -2657.6117 8001.2227 -2671.871 8012.595 C -2686.1303 8023.9674 -2704.6749 8037.451 -2727.3061 8053.0621 C -2772.5685 8084.2842 -2834.0117 8123.9472 -2906.6661 8169.2522 C -3051.9752 8259.8623 -3241.8945 8372.8555 -3433.2992 8483.4029 C -3624.7039 8593.9502 -3817.5171 8701.9817 -3968.6141 8782.5634 C -4044.1626 8822.8541 -4109.2461 8856.2373 -4158.9068 8879.8388 C -4183.7371 8891.6395 -4204.6341 8901.0289 -4221.6089 8907.6961 C -4238.5837 8914.3633 -4248.0047 8919.4695 -4266.3042 8919.4695 C -4284.6037 8919.4695 -4294.0247 8914.3633 -4310.9995 8907.6961 C -4327.9744 8901.0289 -4348.9355 8891.6395 -4373.7659 8879.8388 C -4423.4265 8856.2373 -4488.4459 8822.8541 -4563.9943 8782.5634 C -4715.0913 8701.9817 -4907.9045 8593.9503 -5099.3092 8483.4029 C -5290.7139 8372.8555 -5480.6331 8259.8623 -5625.9422 8169.2522 C -5698.5968 8123.9472 -5760.1041 8084.2842 -5805.3666 8053.0621 C -5827.9979 8037.451 -5846.5423 8023.9674 -5860.8016 8012.595 C -5875.0609 8001.2227 -5884.1284 7995.6374 -5893.2781 7979.7839 C -5902.4279 7963.9303 -5902.7171 7953.2388 -5905.4327 7935.1993 C -5908.1481 7917.1597 -5910.5649 7894.3511 -5912.764 7866.9392 C -5917.1622 7812.1157 -5920.7384 7739.0053 -5923.6323 7653.4094 C -5929.4202 7482.2176 -5932.3142 7261.1929 -5932.3142 7040.0982 C -5932.3142 6819.0035 -5929.4202 6597.9787 -5923.6323 6426.787 C -5920.7384 6341.1911 -5917.1622 6268.0808 -5912.764 6213.2572 C -5910.5649 6185.8454 -5908.1481 6163.0367 -5905.4327 6144.9971 C -5902.7171 6126.9576 -5902.4279 6116.2662 -5893.2781 6100.4125 C -5884.1284 6084.559 -5875.0609 6078.9737 -5860.8016 6067.6014 C -5846.5423 6056.2291 -5827.9979 6042.7454 -5805.3666 6027.1343 C -5760.1041 5995.9122 -5698.5968 5956.2493 -5625.9422 5910.9442 C -5480.6331 5820.3342 -5290.7138 5707.3409 -5099.3092 5596.7935 C -4907.9044 5486.2462 -4715.0913 5378.2146 -4563.9943 5297.633 C -4488.4459 5257.3422 -4423.4265 5223.8948 -4373.7659 5200.2933 C -4348.9355 5188.4925 -4327.9744 5179.1675 -4310.9995 5172.5003 C -4294.0247 5165.8331 -4284.6037 5160.7269 -4266.3042 5160.7269 z M -4266.3042 5227.4429 C -4269.4622 5228.348 -4277.5532 5230.1223 -4286.9476 5233.8121 C -4301.5215 5239.5363 -4321.4548 5248.3905 -4345.4696 5259.8037 C -4393.4992 5282.63 -4458.0325 5315.7145 -4533.0613 5355.7281 C -4683.1187 5435.7552 -4875.4746 5543.5344 -5066.3825 5653.7949 C -5257.2904 5764.0553 -5446.8413 5876.8651 -5591.1506 5966.8519 C -5663.3052 6011.8452 -5724.1624 6051.1725 -5767.9383 6081.3692 C -5789.8262 6096.4675 -5807.4653 6109.306 -5819.7077 6119.0699 C -5827.5998 6125.3642 -5833.23 6131.4555 -5835.5922 6133.7384 C -5836.3877 6136.927 -5838.8482 6144.857 -5840.3511 6154.8405 C -5842.6825 6170.3285 -5844.9768 6192.0212 -5847.1037 6218.5327 C -5851.3574 6271.5558 -5854.9694 6343.9674 -5857.8434 6428.9744 C -5863.5915 6598.9884 -5866.4609 6819.5773 -5866.4609 7040.0982 C -5866.4609 7200.2217 -5864.9242 7360.3842 -5861.8949 7501.1914 L -5629.9937 7501.1914 L -5547.9344 7419.0992 C -5552.2493 7408.8582 -5554.6226 7397.6284 -5554.6226 7385.902 C -5554.6226 7338.4687 -5515.5717 7299.435 -5468.1902 7299.435 C -5420.7759 7299.435 -5381.7579 7338.4687 -5381.7579 7385.902 C -5381.7579 7433.3024 -5420.7759 7472.369 -5468.1902 7472.369 C -5479.9103 7472.369 -5491.1384 7469.9936 -5501.3741 7465.6781 L -5593.0799 7557.4207 A 32.929916 32.943117 0 0 1 -5616.3601 7567.071 L -5860.3515 7567.071 C -5860.0597 7578.2088 -5859.7637 7589.1943 -5859.4511 7600.0109 L -5432.7555 7600.0109 C -5419.692 7568.7135 -5388.7062 7546.4836 -5352.9471 7546.4836 C -5305.5327 7546.4836 -5266.5147 7585.5173 -5266.5147 7632.9507 C -5266.5147 7680.3511 -5305.5327 7719.4177 -5352.9471 7719.4177 C -5388.6986 7719.4177 -5419.6872 7697.1724 -5432.7555 7665.8905 L -5857.3289 7665.8905 C -5856.9314 7677.1093 -5856.5305 7688.0968 -5856.107 7698.8303 L -5616.3601 7698.8303 A 32.929916 32.943117 0 0 1 -5593.0799 7708.4807 L -5501.3741 7800.2232 C -5491.1364 7795.9084 -5479.9131 7793.5323 -5468.1902 7793.5323 C -5420.7759 7793.5323 -5381.7579 7832.566 -5381.7579 7879.9994 C -5381.7579 7927.3998 -5420.7759 7966.4664 -5468.1902 7966.4664 C -5515.5717 7966.4664 -5554.6226 7927.3998 -5554.6226 7879.9994 C -5554.6226 7868.2702 -5552.2455 7857.041 -5547.9344 7846.8022 L -5629.9937 7764.71 L -5853.1488 7764.71 C -5851.3063 7801.5938 -5849.305 7834.2232 -5847.1037 7861.6637 C -5844.9768 7888.1753 -5842.6825 7909.8679 -5840.3511 7925.356 C -5838.8481 7935.3409 -5836.3872 7943.2705 -5835.5922 7946.458 C -5833.2297 7948.7412 -5827.5995 7954.7682 -5819.7077 7961.0622 C -5807.4653 7970.8261 -5789.8262 7983.7288 -5767.9383 7998.8272 C -5724.1624 8029.0239 -5663.3052 8068.3512 -5591.1506 8113.3446 C -5446.8413 8203.3313 -5257.2904 8316.0768 -5066.3825 8426.3372 C -4875.4746 8536.5976 -4683.1187 8644.3768 -4533.0613 8724.404 C -4458.0325 8764.4176 -4393.4992 8797.5663 -4345.4696 8820.3927 C -4321.4548 8831.8059 -4301.5215 8840.6601 -4286.9476 8846.3843 C -4277.553 8850.0742 -4269.4621 8851.8484 -4266.3042 8852.7535 C -4263.1463 8851.8484 -4255.1197 8850.0742 -4245.725 8846.3843 C -4231.1511 8840.6601 -4211.1536 8831.8059 -4187.1388 8820.3927 C -4139.1092 8797.5663 -4074.64 8764.4176 -3999.6114 8724.404 C -3849.5539 8644.3768 -3657.1337 8536.5976 -3466.2258 8426.3372 C -3275.3179 8316.0768 -3085.8314 8203.3313 -2941.522 8113.3446 C -2869.3673 8068.3512 -2808.4459 8029.0239 -2764.6701 7998.8272 C -2742.7821 7983.7288 -2725.1432 7970.826 -2712.9007 7961.0622 C -2705.0089 7954.7682 -2699.4429 7948.7412 -2697.0805 7946.458 C -2696.2855 7943.2705 -2693.8246 7935.3409 -2692.3215 7925.356 C -2689.99 7909.8679 -2687.6958 7888.1753 -2685.569 7861.6637 C -2683.3676 7834.2236 -2681.3681 7801.5939 -2679.5239 7764.71 L -2902.6789 7764.71 L -2984.7382 7846.8022 C -2980.4285 7857.0421 -2978.05 7868.2686 -2978.05 7879.9994 C -2978.05 7927.3998 -3017.0681 7966.4664 -3064.4824 7966.4664 C -3111.8638 7966.4664 -3150.9148 7927.3998 -3150.9148 7879.9994 C -3150.9148 7832.566 -3111.8638 7793.5323 -3064.4824 7793.5323 C -3052.7555 7793.5323 -3041.5349 7795.9112 -3031.2985 7800.2232 L -2939.5928 7708.4807 A 32.929916 32.943117 0 0 1 -2916.3126 7698.8303 L -2676.5656 7698.8303 C -2676.1419 7688.0956 -2675.7403 7677.1115 -2675.3437 7665.8905 L -3099.9171 7665.8905 C -3112.9855 7697.1724 -3143.9741 7719.4177 -3179.7256 7719.4177 C -3227.107 7719.4177 -3266.158 7680.3511 -3266.158 7632.9507 C -3266.158 7585.5173 -3227.107 7546.4836 -3179.7256 7546.4836 C -3143.9664 7546.4836 -3112.9806 7568.7135 -3099.9171 7600.0109 L -2673.2215 7600.0109 C -2672.9088 7589.1921 -2672.6129 7578.2106 -2672.3212 7567.071 L -2916.3126 7567.071 A 32.929916 32.943117 0 0 1 -2939.5928 7557.4207 L -3031.2985 7465.6781 C -3041.5329 7469.9907 -3052.7584 7472.369 -3064.4824 7472.369 C -3111.8638 7472.369 -3150.9148 7433.3024 -3150.9148 7385.902 C -3150.9148 7338.4687 -3111.8638 7299.435 -3064.4824 7299.435 C -3017.0681 7299.435 -2978.05 7338.4687 -2978.05 7385.902 C -2978.05 7397.63 -2980.4248 7408.857 -2984.7382 7419.0992 L -2902.6789 7501.1914 L -2670.7777 7501.1914 C -2667.75 7360.3841 -2666.2117 7200.2207 -2666.2117 7040.0982 C -2666.2117 6819.5773 -2669.0812 6598.9884 -2674.8293 6428.9744 C -2677.7034 6343.9674 -2681.3152 6271.5558 -2685.569 6218.5327 C -2687.6958 6192.0212 -2689.99 6170.3285 -2692.3215 6154.8405 C -2693.8243 6144.857 -2696.2851 6136.927 -2697.0805 6133.7384 C -2699.4428 6131.4555 -2705.0085 6125.3642 -2712.9007 6119.0699 C -2725.1432 6109.306 -2742.7821 6096.4675 -2764.6701 6081.3692 C -2808.4459 6051.1725 -2869.3673 6011.8453 -2941.522 5966.8519 C -3085.8314 5876.8651 -3275.3179 5764.0553 -3466.2258 5653.7949 C -3657.1337 5543.5344 -3849.5539 5435.7553 -3999.6114 5355.7281 C -4074.64 5315.7145 -4139.1092 5282.63 -4187.1388 5259.8037 C -4211.1536 5248.3905 -4231.1511 5239.5363 -4245.725 5233.8121 C -4255.1195 5230.1223 -4263.1462 5228.348 -4266.3042 5227.4429 z M -5458.0293 6051.9035 L -5091.6563 6051.9035 L -4939.1777 6205.9872 L -4939.1777 6762.1684 L -5108.7627 6762.1684 L -5108.7627 6660.9042 L -5214.1665 6762.1684 L -5485.1037 6762.1684 L -5616.2957 6630.9238 L -5616.2957 6468.3478 L -5485.1037 6337.1675 L -5124.4543 6337.1675 L -5124.4543 6247.2907 L -5168.5708 6203.0921 L -5382.401 6203.0921 L -5425.167 6247.2907 L -5425.167 6287.2431 L -5610.5079 6287.2431 L -5610.5079 6205.9872 L -5458.0293 6051.9035 z M -4645.5391 6051.9035 L -4254.9213 6051.9035 L -4108.0377 6200.2614 L -4108.0377 6331.3773 L -4296.2082 6331.3773 L -4296.2082 6261.5732 L -4346.177 6211.6488 L -4551.4539 6211.6488 L -4601.294 6261.5732 L -4601.294 6552.4344 L -4551.4539 6602.4232 L -4346.177 6602.4232 L -4296.2082 6552.4344 L -4296.2082 6482.6303 L -4108.0377 6482.6303 L -4108.0377 6613.8749 L -4254.9213 6762.1684 L -4645.5391 6762.1684 L -4789.4002 6616.7057 L -4789.4002 6197.4306 L -4645.5391 6051.9035 z M -3979.804 6051.9035 L -3805.8459 6051.9035 L -3805.8459 6168.8656 L -3690.3455 6051.9035 L -3510.7925 6051.9035 L -3413.8133 6150.337 L -3316.9627 6051.9035 L -3068.8555 6051.9035 L -2916.3769 6205.9872 L -2916.3769 6762.1684 L -3104.4831 6762.1684 L -3104.4831 6261.5732 L -3152.9727 6211.6488 L -3272.6533 6211.6488 L -3348.2173 6287.2431 L -3348.2173 6762.1684 L -3530.7285 6762.1684 L -3530.7285 6258.7424 L -3576.3885 6211.6488 L -3661.8563 6211.6488 L -3791.5691 6342.8291 L -3791.5691 6762.1684 L -3979.804 6762.1684 L -3979.804 6051.9035 z M -5392.4333 6471.1786 L -5430.9549 6509.5869 L -5430.9549 6580.9994 L -5395.3272 6616.7057 L -5227.0928 6616.7057 L -5124.4543 6518.2722 L -5124.4543 6471.1786 L -5392.4333 6471.1786 z M -3829.2547 6890.6466 C -3824.623 6890.6466 -3819.9531 6891.157 -3815.2995 6892.255 C -3810.6458 6893.353 -3805.8943 6894.9092 -3801.087 6896.9515 L -3807.0678 6921.6564 C -3809.0434 6920.778 -3811.4608 6919.9991 -3814.2705 6919.3403 C -3817.0144 6918.6815 -3819.5322 6918.3753 -3821.8591 6918.3753 C -3825.8322 6918.3753 -3828.821 6919.6441 -3830.8624 6922.2354 C -3832.838 6924.6949 -3833.8207 6928.4857 -3833.8207 6933.5585 L -3833.8207 6943.5948 L -3808.8042 6943.5948 L -3808.8042 6968.4284 L -3833.8207 6968.4284 L -3833.8207 7042.6073 L -3866.8116 7042.6073 L -3866.8116 6968.4284 L -3880.5739 6968.4284 L -3880.5739 6943.5948 L -3866.8116 6943.5948 L -3866.8116 6934.7808 C -3866.8116 6925.7334 -3865.3172 6917.9287 -3862.3099 6911.3627 C -3859.1709 6904.7967 -3854.7459 6899.7589 -3849.1264 6896.1795 C -3843.3752 6892.4902 -3836.7839 6890.6466 -3829.2547 6890.6466 z M -5561.1179 6892.5767 L -5528.2556 6892.5767 L -5528.2556 6952.7305 C -5524.2825 6946.2962 -5519.1243 6941.359 -5512.6926 6937.9333 C -5506.1073 6934.3758 -5498.8772 6932.5934 -5491.0845 6932.5934 C -5483.687 6932.5934 -5477.8319 6933.8654 -5473.4637 6936.3249 C -5468.9417 6938.8064 -5465.5009 6942.0617 -5463.1741 6946.1682 C -5460.8473 6950.143 -5459.2917 6954.5698 -5458.4795 6959.357 C -5457.6014 6964.1443 -5457.129 6968.8554 -5457.129 6973.5109 L -5457.2576 7042.6716 L -5490.0556 7042.6716 L -5490.0556 6982.0675 C -5490.0556 6975.0843 -5491.5531 6969.9853 -5494.4287 6966.6913 C -5497.1725 6963.3973 -5500.8363 6961.7375 -5505.4899 6961.7375 C -5507.9485 6961.7375 -5510.7755 6962.5163 -5513.9145 6964.0535 C -5516.9218 6965.5907 -5519.7269 6967.761 -5522.3391 6970.6158 C -5524.9293 6973.4925 -5526.8727 6976.8311 -5528.2556 6980.6521 L -5528.2556 7042.4786 L -5561.1179 7042.4786 L -5561.1179 6892.5767 z M -5122.3964 6892.641 L -5089.5984 6892.641 L -5089.5984 6922.4284 L -5122.3964 6922.4284 L -5122.3964 6892.641 z M -4563.6727 6892.641 L -4530.8104 6892.641 L -4530.8104 7004.1989 C -4530.8104 7008.7227 -4530.0319 7011.9388 -4528.4953 7013.8493 C -4526.7392 7015.8257 -4524.383 7016.8087 -4521.4855 7016.8087 C -4519.5099 7016.8087 -4517.5053 7016.5025 -4515.3761 7015.8437 C -4513.181 7015.1849 -4511.2769 7014.406 -4509.6525 7013.5276 L -4505.3437 7038.1681 C -4509.4486 7040.1445 -4514.1578 7041.6395 -4519.4919 7042.6716 C -4524.826 7043.7696 -4529.8225 7044.3444 -4534.4761 7044.3444 C -4543.7833 7044.3444 -4551.0104 7041.8224 -4556.2128 7036.8814 C -4561.2835 7031.8307 -4563.8014 7024.7656 -4563.8014 7015.5863 L -4563.6727 6892.641 z M -4494.8612 6892.641 L -4461.9989 6892.641 L -4461.9989 7004.1989 C -4461.9989 7008.7227 -4461.2204 7011.9388 -4459.6838 7013.8493 C -4457.9277 7015.8257 -4455.6359 7016.8087 -4452.7383 7016.8087 C -4450.7627 7016.8087 -4448.6938 7016.5025 -4446.5646 7015.8437 C -4444.3695 7015.1849 -4442.4873 7014.406 -4440.841 7013.5276 L -4436.5322 7038.1681 C -4440.6371 7040.1445 -4445.3463 7041.6395 -4450.6804 7042.6716 C -4456.0145 7043.7696 -4461.011 7044.3444 -4465.6646 7044.3444 C -4474.9718 7044.3444 -4482.1989 7041.8224 -4487.4013 7036.8814 C -4492.472 7031.8307 -4494.9899 7024.7656 -4494.9899 7015.5863 L -4494.8612 6892.641 z M -2942.6796 6892.641 L -2909.8173 6892.641 L -2909.8173 6979.3654 L -2873.2893 6934.7808 L -2838.6263 6934.7808 L -2877.4052 6981.2311 L -2835.2822 7042.6073 L -2870.2025 7042.6073 L -2898.3059 6999.5024 L -2909.8173 7011.1472 L -2909.8173 7042.6073 L -2942.6796 7042.6073 L -2942.6796 6892.641 z M -5196.2884 6895.9221 C -5182.5909 6895.9221 -5170.7771 6898.9152 -5160.7893 6904.8005 C -5150.6699 6910.6857 -5143.1556 6918.3679 -5138.2166 6927.8326 L -5164.0691 6945.8466 C -5166.2643 6940.6421 -5169.1918 6936.6282 -5172.8796 6933.7515 C -5176.4357 6930.8747 -5180.451 6928.9086 -5184.8412 6927.8326 C -5189.0778 6926.515 -5193.1512 6925.8382 -5197.1244 6925.8382 C -5203.5561 6925.8382 -5209.1882 6927.1494 -5213.9736 6929.7627 C -5218.7589 6932.2222 -5222.7099 6935.5608 -5225.8709 6939.799 C -5229.0099 6944.0592 -5231.366 6948.8127 -5232.8806 6954.0172 C -5234.4172 6959.2217 -5235.1958 6964.4039 -5235.1958 6969.5864 C -5235.1958 6975.3399 -5234.3152 6980.8487 -5232.5591 6986.185 C -5230.803 6991.5432 -5228.2632 6996.2966 -5224.9705 7000.4031 C -5221.5462 7004.5096 -5217.4303 7007.787 -5212.6231 7010.2465 C -5207.8377 7012.5742 -5202.554 7013.7206 -5196.8028 7013.7206 C -5192.698 7013.7206 -5188.5633 7013.1081 -5184.3267 7011.7905 C -5180.0902 7010.4729 -5176.1784 7008.2996 -5172.6224 7005.357 C -5168.9126 7002.3485 -5166.1075 6998.4995 -5164.1978 6993.7122 L -5136.6732 7009.8605 C -5139.5268 7016.9974 -5144.236 7023.1453 -5150.8213 7028.1961 C -5157.3847 7033.2689 -5164.8597 7037.1602 -5173.2011 7039.9052 C -5181.4108 7042.4965 -5189.5609 7043.7653 -5197.6389 7043.7653 C -5208.1754 7043.7653 -5217.9234 7041.6987 -5226.8355 7037.4604 C -5235.594 7033.0685 -5243.1695 7027.2692 -5249.6012 7020.1542 C -5255.8792 7012.9074 -5260.8144 7004.8577 -5264.3925 6995.964 C -5267.7949 6986.9165 -5269.4729 6977.7393 -5269.4729 6968.4284 L -5269.4086 6968.4284 C -5269.4086 6959.5346 -5267.7275 6950.8709 -5264.4568 6942.3724 C -5261.1641 6933.7422 -5256.4156 6925.9375 -5250.1157 6918.9543 C -5243.8377 6911.971 -5236.1366 6906.3979 -5227.0928 6902.2914 C -5218.0709 6898.0531 -5207.7907 6895.9221 -5196.2884 6895.9221 z M -4761.6827 6895.9221 C -4747.9852 6895.9221 -4736.1071 6898.9152 -4726.1193 6904.8005 C -4715.9999 6910.6857 -4708.4856 6918.3679 -4703.5466 6927.8326 L -4729.3991 6945.8466 C -4731.5942 6940.6421 -4734.5218 6936.6282 -4738.2096 6933.7515 C -4741.7656 6930.8747 -4745.781 6928.9086 -4750.1712 6927.8326 C -4754.4078 6926.515 -4758.4812 6925.8382 -4762.4544 6925.8382 C -4768.886 6925.8382 -4774.5182 6927.1494 -4779.3035 6929.7627 C -4784.0889 6932.2222 -4788.0399 6935.5608 -4791.2009 6939.799 C -4794.3399 6944.0592 -4796.696 6948.8127 -4798.2106 6954.0172 C -4799.7472 6959.2217 -4800.5258 6964.4039 -4800.5258 6969.5864 C -4800.5258 6975.3399 -4799.6452 6980.8487 -4797.8891 6986.185 C -4796.133 6991.5432 -4793.5932 6996.2966 -4790.3005 7000.4031 C -4786.8762 7004.5096 -4782.7603 7007.787 -4777.953 7010.2465 C -4773.1677 7012.5742 -4767.884 7013.7206 -4762.1328 7013.7206 C -4758.028 7013.7206 -4753.8933 7013.1081 -4749.6567 7011.7905 C -4745.4202 7010.4729 -4741.5084 7008.2996 -4737.9523 7005.357 C -4734.2426 7002.3485 -4731.4375 6998.4995 -4729.5277 6993.7122 L -4702.0031 7009.8605 C -4704.8787 7016.9974 -4709.5879 7023.1453 -4716.1513 7028.1961 C -4722.7147 7033.2689 -4730.1897 7037.1602 -4738.5311 7039.9052 C -4746.7408 7042.4965 -4754.8909 7043.7653 -4762.9689 7043.7653 C -4773.5054 7043.7653 -4783.2534 7041.6987 -4792.1655 7037.4604 C -4800.924 7033.0685 -4808.4995 7027.2692 -4814.9312 7020.1542 C -4821.2311 7012.9074 -4826.1664 7004.8577 -4829.7224 6995.964 C -4833.1468 6986.9165 -4834.8672 6977.7393 -4834.8672 6968.4284 L -4834.7386 6968.4284 C -4834.7386 6959.5346 -4833.0794 6950.8709 -4829.7867 6942.3724 C -4826.4941 6933.7422 -4821.7456 6925.9375 -4815.4457 6918.9543 C -4809.1676 6911.971 -4801.4666 6906.3979 -4792.4227 6902.2914 C -4783.4008 6898.0531 -4773.185 6895.9221 -4761.6827 6895.9221 z M -3748.3529 6896.7585 L -3721.6644 6896.7585 L -3654.0748 6982.6465 L -3654.0748 6896.7585 L -3620.4407 6896.7585 L -3620.4407 7042.6073 L -3647.9653 7042.6073 L -3714.6546 6959.2284 L -3714.6546 7042.6073 L -3748.3529 7042.6073 L -3748.3529 6896.7585 z M -3278.4412 6896.7585 L -3241.9132 6896.7585 L -3210.53 6961.2871 L -3178.6966 6896.7585 L -3141.9114 6896.7585 L -3193.8738 6992.8759 L -3193.8738 7042.6073 L -3227.3149 7042.6073 L -3227.3149 6992.4899 L -3278.4412 6896.7585 z M -5697.4547 6896.8228 L -5574.8802 6896.8228 L -5574.8802 6926.4172 L -5619.254 6926.4172 L -5619.254 7042.6716 L -5652.888 7042.6716 L -5652.888 6926.4172 L -5697.4547 6926.4172 L -5697.4547 6896.8228 z M -5060.2088 6900.683 L -5027.3465 6900.683 L -5027.3465 6934.9738 L -5005.3525 6934.9738 L -5005.3525 6959.8074 L -5027.3465 6959.8074 L -5027.3465 7004.778 C -5027.3465 7008.3355 -5026.4659 7010.9156 -5024.7098 7012.5626 C -5022.9537 7014.0998 -5020.7231 7014.8787 -5017.9573 7014.8787 C -5015.6304 7014.8787 -5013.1738 7014.4703 -5010.5616 7013.5919 C -5007.8397 7012.7135 -5005.4836 7011.8326 -5003.5519 7010.9542 L -4997.1852 7036.8171 C -5000.1925 7038.1347 -5003.5721 7039.4066 -5007.2818 7040.5486 C -5010.8379 7041.8661 -5014.5629 7042.8492 -5018.536 7043.508 C -5022.4872 7044.3864 -5026.399 7044.7947 -5030.2404 7044.7947 C -5035.7062 7044.7947 -5040.7639 7043.9137 -5045.4175 7042.1569 C -5049.9395 7040.1806 -5053.542 7037.1293 -5056.2859 7032.957 C -5058.8761 7028.6967 -5060.2088 7023.0843 -5060.2088 7016.101 L -5060.2088 6959.8074 L -5073.9711 6959.8074 L -5073.9711 6934.9738 L -5060.2088 6934.9738 L -5060.2088 6900.683 z M -5383.9444 6932.7221 C -5371.7615 6932.7221 -5361.4421 6935.3022 -5352.9471 6940.5067 C -5344.3203 6945.7112 -5337.7682 6952.5956 -5333.2683 6961.0941 C -5328.7463 6969.4389 -5326.4514 6978.5124 -5326.4514 6988.3724 C -5326.4514 6990.3488 -5326.5535 6992.2536 -5326.773 6994.0983 C -5326.773 6995.855 -5326.9393 6997.4537 -5327.1588 6998.8591 L -5406.7744 6998.8591 C -5406.3354 7003.6463 -5405.0246 7007.6602 -5402.8515 7010.9542 C -5400.5247 7014.2262 -5397.5971 7016.767 -5394.041 7018.5458 C -5390.485 7020.3026 -5386.6957 7021.1835 -5382.7225 7021.1835 C -5377.8055 7021.1835 -5373.2611 7020.0372 -5369.0245 7017.7094 C -5364.6343 7015.3817 -5361.6032 7012.2268 -5359.9568 7008.2521 L -5332.0464 7016.0367 C -5334.7903 7021.6584 -5338.6801 7026.6569 -5343.7508 7031.0269 C -5348.6678 7035.2871 -5354.5872 7038.6681 -5361.436 7041.1276 C -5368.131 7043.5871 -5375.5841 7044.7947 -5383.8158 7044.7947 L -5383.9444 7044.666 C -5393.098 7044.666 -5401.27 7043.2323 -5408.3821 7040.3555 C -5415.5162 7037.347 -5421.5974 7033.2689 -5426.6461 7028.1961 C -5431.5851 7023.1453 -5435.3101 7017.3491 -5437.9003 7010.7612 C -5440.5125 7004.0634 -5441.8232 6997.0565 -5441.8232 6989.7878 C -5441.8232 6979.4007 -5439.5926 6969.9786 -5435.0707 6961.4801 C -5430.4171 6952.8499 -5423.7614 6945.9042 -5415.1347 6940.6997 C -5406.5079 6935.3635 -5396.1053 6932.7221 -5383.9444 6932.7221 z M -4637.1789 6932.7221 C -4628.0033 6932.7221 -4619.8533 6934.2171 -4612.7411 6937.2256 C -4605.629 6940.2561 -4599.6091 6944.3312 -4594.6701 6949.5137 C -4589.753 6954.7182 -4585.9637 6960.7436 -4583.3515 6967.4633 C -4580.7613 6974.1611 -4579.493 6981.2262 -4579.493 6988.7584 C -4579.493 6996.1589 -4580.7613 7003.227 -4583.3515 7009.9248 C -4585.9637 7016.6445 -4589.753 7022.6056 -4594.6701 7027.8101 C -4599.6091 7033.0146 -4605.629 7037.0897 -4612.7411 7040.0982 C -4619.8533 7043.1067 -4628.0033 7044.666 -4637.1789 7044.666 C -4646.3325 7044.666 -4654.5437 7043.1067 -4661.8095 7040.0982 C -4668.9217 7037.0897 -4674.9416 7033.0146 -4679.8806 7027.8101 C -4684.7976 7022.6056 -4688.5446 7016.6445 -4691.1348 7009.9248 C -4693.6153 7003.227 -4694.8648 6996.1589 -4694.8648 6988.7584 C -4694.8648 6981.2262 -4693.6153 6974.1611 -4691.1348 6967.4633 C -4688.5446 6960.7436 -4684.7976 6954.7182 -4679.8806 6949.5137 C -4674.9416 6944.3312 -4668.9217 6940.2561 -4661.8095 6937.2256 C -4654.5437 6934.2171 -4646.3325 6932.7221 -4637.1789 6932.7221 z M -4374.1517 6932.7221 C -4361.9689 6932.7221 -4351.6495 6935.3022 -4343.1544 6940.5067 C -4334.5496 6945.7112 -4327.9975 6952.5956 -4323.4756 6961.0941 C -4318.9537 6969.4389 -4316.6588 6978.5124 -4316.6588 6988.3724 C -4316.6588 6990.3488 -4316.7608 6992.2536 -4316.9803 6994.0983 C -4316.9803 6995.855 -4317.1467 6997.4537 -4317.3662 6998.8591 L -4396.9817 6998.8591 C -4396.5427 7003.6463 -4395.2743 7007.6602 -4393.1231 7010.9542 C -4390.7963 7014.2262 -4387.8044 7016.767 -4384.2484 7018.5458 C -4380.6923 7020.3026 -4376.9673 7021.1835 -4372.9942 7021.1835 C -4368.0552 7021.1835 -4363.4684 7020.0372 -4359.2319 7017.7094 C -4354.8416 7015.3817 -4351.8529 7012.2268 -4350.2285 7008.2521 L -4322.2537 7016.0367 C -4324.9756 7021.6584 -4328.8874 7026.6569 -4333.9581 7031.0269 C -4338.8971 7035.2871 -4344.8165 7038.6681 -4351.6433 7041.1276 C -4358.3603 7043.5871 -4365.8134 7044.7947 -4374.0231 7044.7947 L -4374.1517 7044.666 C -4383.3273 7044.666 -4391.4773 7043.2323 -4398.5895 7040.3555 C -4405.7016 7037.347 -4411.7827 7033.2689 -4416.8534 7028.1961 C -4421.7705 7023.1453 -4425.5598 7017.3491 -4428.172 7010.7612 C -4430.7622 7004.0634 -4432.0306 6997.0565 -4432.0306 6989.7878 C -4432.0306 6979.4007 -4429.8 6969.9786 -4425.278 6961.4801 C -4420.6244 6952.8499 -4414.0111 6945.9042 -4405.4063 6940.6997 C -4396.7795 6935.3635 -4386.3346 6932.7221 -4374.1517 6932.7221 z M -4257.558 6932.7221 C -4249.48 6932.7221 -4242.3754 6934.5045 -4236.2072 6938.062 C -4230.0609 6941.4877 -4225.1257 6946.3024 -4221.4159 6952.4731 L -4221.4159 6934.7808 L -4192.9267 6934.7808 L -4192.9267 7035.2087 C -4192.9267 7046.1667 -4195.567 7055.6312 -4200.9011 7063.5807 C -4206.1035 7071.5082 -4213.4561 7077.5918 -4222.8951 7081.852 C -4232.2023 7086.222 -4242.9926 7088.4142 -4255.3072 7088.4142 C -4266.8096 7088.4142 -4276.7412 7086.445 -4285.0826 7082.624 C -4293.2923 7078.9128 -4300.4582 7073.6913 -4306.6264 7066.8618 L -4288.9412 7048.9765 C -4284.99 7053.5003 -4280.0972 7057.065 -4274.2143 7059.6562 C -4268.3094 7062.4012 -4262.0023 7063.7737 -4255.3072 7063.7737 C -4249.9731 7063.7737 -4245.0379 7062.7907 -4240.5159 7060.8143 C -4235.994 7058.8379 -4232.4307 7055.7443 -4229.8405 7051.5499 C -4227.0966 7047.3117 -4225.7247 7041.7998 -4225.7247 7035.08 L -4225.7247 7024.5933 C -4229.0173 7030.4786 -4233.8301 7035.0059 -4240.1301 7038.1681 C -4246.2764 7041.3084 -4252.8284 7042.8646 -4259.8089 7042.8646 L -4259.8089 7042.9933 C -4266.921 7042.9933 -4273.4119 7041.6632 -4279.2948 7038.9402 C -4285.1996 7036.0634 -4290.2996 7032.1077 -4294.5362 7027.1667 C -4298.641 7022.116 -4301.8558 7016.3198 -4304.1827 7009.7318 C -4306.5095 7003.1658 -4307.6554 6996.0976 -4307.6554 6988.5654 C -4307.6554 6980.6159 -4306.4482 6973.3247 -4303.9897 6966.627 C -4301.5093 6959.9072 -4298.0684 6953.9854 -4293.7002 6948.9347 C -4289.1782 6943.7302 -4283.8945 6939.7776 -4277.8799 6937.0326 C -4271.7117 6934.1558 -4264.9336 6932.7221 -4257.558 6932.7221 z M -4118.7775 6932.7221 C -4106.5946 6932.7221 -4096.2752 6935.3022 -4087.7801 6940.5067 C -4079.1753 6945.7112 -4072.6233 6952.5956 -4068.1013 6961.0941 C -4063.5794 6969.4389 -4061.2845 6978.5124 -4061.2845 6988.3724 C -4061.2845 6990.3488 -4061.3865 6992.2536 -4061.606 6994.0983 C -4061.606 6995.855 -4061.7724 6997.4537 -4061.9919 6998.8591 L -4141.6074 6998.8591 C -4141.1684 7003.6463 -4139.9001 7007.6602 -4137.7489 7010.9542 C -4135.422 7014.2262 -4132.4302 7016.767 -4128.8741 7018.5458 C -4125.2961 7020.3026 -4121.5711 7021.1835 -4117.6199 7021.1835 C -4112.6809 7021.1835 -4108.0941 7020.0372 -4103.8576 7017.7094 C -4099.4674 7015.3817 -4096.4143 7012.2268 -4094.7899 7008.2521 L -4066.8794 7016.0367 C -4069.6014 7021.6584 -4073.5131 7026.6569 -4078.5838 7031.0269 C -4083.5009 7035.2871 -4089.356 7038.6681 -4096.2047 7041.1276 C -4102.9218 7043.5871 -4110.4391 7044.7947 -4118.6488 7044.7947 L -4118.7775 7044.666 C -4127.953 7044.666 -4136.103 7043.2323 -4143.2152 7040.3555 C -4150.3273 7037.347 -4156.4085 7033.2689 -4161.4792 7028.1961 C -4166.3962 7023.1453 -4170.1855 7017.3491 -4172.7977 7010.7612 C -4175.3879 7004.0634 -4176.6563 6997.0565 -4176.6563 6989.7878 C -4176.6563 6979.4007 -4174.4257 6969.9786 -4169.9038 6961.4801 C -4165.2501 6952.8499 -4158.5945 6945.9042 -4149.9677 6940.6997 C -4141.3629 6935.3635 -4130.9603 6932.7221 -4118.7775 6932.7221 z M -3947.1346 6932.7221 C -3937.981 6932.7221 -3929.8733 6934.2171 -3922.7612 6937.2256 C -3915.6271 6940.2561 -3909.6071 6944.3312 -3904.6901 6949.5137 C -3899.7511 6954.7182 -3895.9618 6960.7436 -3893.3716 6967.4633 C -3890.7594 6974.1611 -3889.4487 6981.2262 -3889.4487 6988.7584 C -3889.4487 6996.1589 -3890.7594 7003.227 -3893.3716 7009.9248 C -3895.9618 7016.6445 -3899.7511 7022.6056 -3904.6901 7027.8101 C -3909.6071 7033.0146 -3915.6271 7037.0897 -3922.7612 7040.0982 C -3929.8733 7043.1067 -3937.981 7044.666 -3947.1346 7044.666 C -3956.3101 7044.666 -3964.5637 7043.1067 -3971.8295 7040.0982 C -3978.9417 7037.0897 -3984.9192 7033.0146 -3989.8363 7027.8101 C -3994.7753 7022.6056 -3998.5646 7016.6445 -4001.1548 7009.9248 C -4003.6133 7003.227 -4004.8205 6996.1589 -4004.8205 6988.7584 C -4004.8205 6981.2262 -4003.6133 6974.1611 -4001.1548 6967.4633 C -3998.5646 6960.7436 -3994.7753 6954.7182 -3989.8363 6949.5137 C -3984.9192 6944.3312 -3978.9417 6940.2561 -3971.8295 6937.2256 C -3964.5637 6934.2171 -3956.3101 6932.7221 -3947.1346 6932.7221 z M -3545.5198 6932.7221 C -3533.337 6932.7221 -3522.9956 6935.3022 -3514.5225 6940.5067 C -3505.8957 6945.7112 -3499.3013 6952.5956 -3494.7794 6961.0941 C -3490.2574 6969.4389 -3488.0268 6978.5124 -3488.0268 6988.3724 C -3488.0268 6990.3488 -3488.1289 6992.2536 -3488.3484 6994.0983 C -3488.3484 6995.855 -3488.4504 6997.4537 -3488.6699 6998.8591 L -3568.3498 6998.8591 C -3567.9108 7003.6463 -3566.6 7007.6602 -3564.4269 7010.9542 C -3562.1001 7014.2262 -3559.1725 7016.767 -3555.6164 7018.5458 C -3552.0604 7020.3026 -3548.2711 7021.1835 -3544.2979 7021.1835 C -3539.3809 7021.1835 -3534.7941 7020.0372 -3530.5356 7017.7094 C -3526.1674 7015.3817 -3523.1786 7012.2268 -3521.5322 7008.2521 L -3493.6218 7016.0367 C -3496.3657 7021.6584 -3500.2774 7026.6569 -3505.3262 7031.0269 C -3510.2652 7035.2871 -3516.1626 7038.6681 -3523.0114 7041.1276 C -3529.7064 7043.5871 -3537.1172 7044.7947 -3545.3269 7044.7947 L -3545.5198 7044.666 C -3554.6954 7044.666 -3562.8454 7043.2323 -3569.9575 7040.3555 C -3577.0697 7037.347 -3583.1508 7033.2689 -3588.2215 7028.1961 C -3593.1605 7023.1453 -3596.8855 7017.3491 -3599.4757 7010.7612 C -3602.066 7004.0634 -3603.3986 6997.0565 -3603.3986 6989.7878 C -3603.3986 6979.4007 -3601.1461 6969.9786 -3596.6461 6961.4801 C -3591.9925 6952.8499 -3585.3368 6945.9042 -3576.7101 6940.6997 C -3568.0833 6935.3635 -3557.7027 6932.7221 -3545.5198 6932.7221 z M -3098.6952 6932.7221 C -3089.5416 6932.7221 -3081.3916 6934.2171 -3074.2575 6937.2256 C -3067.1453 6940.2561 -3061.1035 6944.3312 -3056.1864 6949.5137 C -3051.2474 6954.7182 -3047.5225 6960.7436 -3044.9322 6967.4633 C -3042.32 6974.1611 -3041.0093 6981.2262 -3041.0093 6988.7584 C -3041.0093 6996.1589 -3042.32 7003.227 -3044.9322 7009.9248 C -3047.5225 7016.6445 -3051.2474 7022.6056 -3056.1864 7027.8101 C -3061.1035 7033.0146 -3067.1453 7037.0897 -3074.2575 7040.0982 C -3081.3916 7043.1067 -3089.5416 7044.666 -3098.6952 7044.666 C -3107.8708 7044.666 -3116.0601 7043.1067 -3123.3259 7040.0982 C -3130.438 7037.0897 -3136.4799 7033.0146 -3141.3969 7027.8101 C -3146.3359 7022.6056 -3150.1252 7016.6445 -3152.7155 7009.9248 C -3155.174 7003.227 -3156.3811 6996.1589 -3156.3811 6988.7584 C -3156.3811 6981.2262 -3155.174 6974.1611 -3152.7155 6967.4633 C -3150.1252 6960.7436 -3146.3359 6954.7182 -3141.3969 6949.5137 C -3136.4799 6944.3312 -3130.438 6940.2561 -3123.3259 6937.2256 C -3116.0601 6934.2171 -3107.8708 6932.7221 -3098.6952 6932.7221 z M -2961.7796 6933.1724 L -2958.4998 6933.1724 L -2956.5062 6933.1724 L -2956.4419 6962.8955 C -2964.3663 6962.8955 -2971.554 6964.2287 -2977.9857 6966.82 C -2984.4174 6969.2795 -2989.0653 6972.9447 -2991.9409 6977.8857 L -2991.9409 7042.6073 L -3024.8033 7042.6073 L -3024.8033 6934.7808 L -2994.642 6934.7808 L -2994.642 6956.5263 C -2990.9542 6949.2795 -2986.1194 6943.5838 -2980.2366 6939.4773 C -2974.3537 6935.3708 -2968.2113 6933.3042 -2961.7796 6933.1724 z M -4996.0276 6934.6522 L -4962.2006 6934.6522 L -4937.1198 7008.7668 L -4915.769 6934.6522 L -4884.7716 6934.6522 L -4925.8656 7059.9136 C -4927.8412 7065.7988 -4930.7688 7070.959 -4934.676 7075.4828 C -4938.6492 7079.9846 -4943.4196 7083.488 -4949.0171 7085.9695 C -4954.6366 7088.5607 -4960.8433 7089.894 -4967.5384 7089.894 C -4970.414 7089.894 -4973.2191 7089.6255 -4975.9629 7089.1863 C -4978.7068 7088.7471 -4981.5119 7088.0325 -4984.3875 7086.9345 L -4984.3875 7058.8199 C -4981.6436 7059.6983 -4979.0615 7060.3751 -4976.7347 7060.8143 C -4974.2761 7061.2535 -4972.1068 7061.4576 -4970.1751 7061.4576 C -4967.5848 7061.4576 -4965.3935 7060.7808 -4963.6155 7059.4632 C -4961.6399 7058.3652 -4959.9807 7056.3991 -4958.6636 7053.5443 C -4957.3465 7050.7994 -4956.1394 7047.0698 -4954.9979 7042.4143 L -4996.0276 6934.6522 z M -5122.3964 6934.7808 L -5089.5984 6934.7808 L -5089.5984 7042.6073 L -5122.3964 7042.6073 L -5122.3964 6934.7808 z M -3488.477 6934.7808 L -3457.4797 6934.7808 L -3428.5403 7011.5975 L -3418.2507 6981.6171 L -3437.5436 6934.7808 L -3410.6621 6934.7808 L -3400.3726 6967.206 L -3390.1473 6934.7808 L -3363.4587 6934.7808 L -3382.5587 6981.6171 L -3372.2692 7011.5975 L -3343.5227 6934.7808 L -3312.3324 6934.7808 L -3356.8991 7042.6073 L -3383.9736 7042.6073 L -3400.3726 6998.6661 L -3416.8359 7042.6073 L -3443.9103 7042.6073 L -3488.477 6934.7808 z M -5384.3303 6956.2046 C -5388.5668 6956.2046 -5392.4173 6957.252 -5395.8417 6959.2284 C -5399.1344 6960.9852 -5401.839 6963.5653 -5403.8804 6967.013 C -5405.856 6970.307 -5407.1024 6974.1983 -5407.739 6978.722 L -5360.9215 6978.722 C -5361.3605 6974.1983 -5362.6712 6970.307 -5364.8444 6967.013 C -5366.82 6963.6092 -5369.5858 6961.0291 -5373.076 6959.2284 C -5376.5004 6957.252 -5380.2254 6956.2046 -5384.3303 6956.2046 z M -4374.5376 6956.2046 C -4378.7961 6956.2046 -4382.689 6957.252 -4386.1134 6959.2284 C -4389.3841 6960.9852 -4392.0244 6963.5653 -4394.0878 6967.013 C -4396.0634 6970.307 -4397.3317 6974.1983 -4397.9464 6978.722 L -4351.1931 6978.722 C -4351.6321 6974.1983 -4352.9005 6970.307 -4355.0517 6967.013 C -4357.0273 6963.6092 -4359.7931 6961.0291 -4363.2834 6959.2284 C -4366.7077 6957.252 -4370.4327 6956.2046 -4374.5376 6956.2046 z M -4119.1633 6956.2046 C -4123.4218 6956.2046 -4127.2724 6957.252 -4130.6748 6959.2284 C -4133.9674 6960.9852 -4136.6501 6963.5653 -4138.7135 6967.013 C -4140.6891 6970.307 -4141.9575 6974.1983 -4142.5721 6978.722 L -4095.7546 6978.722 C -4096.4131 6974.1983 -4097.7238 6970.307 -4099.6775 6967.013 C -4101.653 6963.6092 -4104.4189 6961.0291 -4107.9091 6959.2284 C -4111.3335 6957.252 -4115.0585 6956.2046 -4119.1633 6956.2046 z M -3545.9057 6956.2046 C -3550.1422 6956.2046 -3553.9927 6957.252 -3557.4171 6959.2284 C -3560.6878 6960.9852 -3563.3924 6963.5653 -3565.4558 6967.013 C -3567.4314 6970.307 -3568.6998 6974.1983 -3569.3144 6978.722 L -3522.4969 6978.722 C -3523.1554 6974.1983 -3524.4881 6970.307 -3526.4198 6967.013 C -3528.3954 6963.6092 -3531.1393 6961.0291 -3534.6514 6959.2284 C -3538.0758 6957.252 -3541.8008 6956.2046 -3545.9057 6956.2046 z M -4637.2432 6960.6437 C -4641.8968 6960.6437 -4646.0346 6961.7901 -4649.5907 6964.1179 C -4653.1467 6966.4456 -4656.0131 6969.723 -4658.2082 6973.9612 C -4660.1838 6978.2214 -4661.1664 6983.1586 -4661.1664 6988.7584 C -4661.1664 6994.3801 -4660.1838 6999.3173 -4658.2082 7003.5556 C -4656.0131 7007.7938 -4653.1467 7011.0712 -4649.5907 7013.3989 C -4646.0346 7015.7267 -4641.8968 7016.9374 -4637.2432 7016.9374 C -4632.7212 7016.9374 -4628.709 7015.7267 -4625.1529 7013.3989 C -4621.4432 7010.9394 -4618.5769 7007.6008 -4616.5354 7003.3626 C -4614.5598 6999.1243 -4613.5772 6994.2484 -4613.5772 6988.7584 C -4613.5772 6983.1586 -4614.5598 6978.2214 -4616.5354 6973.9612 C -4618.511 6969.723 -4621.3773 6966.4456 -4625.1529 6964.1179 C -4628.709 6961.7901 -4632.7212 6960.6437 -4637.2432 6960.6437 z M -3947.2632 6960.6437 C -3951.9168 6960.6437 -3956.0327 6961.7901 -3959.6107 6964.1179 C -3963.1668 6966.4456 -3966.055 6969.723 -3968.2282 6973.9612 C -3970.2038 6978.2214 -3971.1864 6983.1586 -3971.1864 6988.7584 C -3971.1864 6994.3801 -3970.2038 6999.3173 -3968.2282 7003.5556 C -3966.0331 7007.7938 -3963.1448 7011.0712 -3959.6107 7013.3989 C -3956.0327 7015.7267 -3951.9168 7016.9374 -3947.2632 7016.9374 C -3942.7632 7016.9374 -3938.729 7015.7267 -3935.173 7013.3989 C -3931.4632 7010.9394 -3928.5969 7007.6008 -3926.5554 7003.3626 C -3924.5798 6999.1243 -3923.5972 6994.2484 -3923.5972 6988.7584 C -3923.5972 6983.1586 -3924.5798 6978.2214 -3926.5554 6973.9612 C -3928.531 6969.723 -3931.3974 6966.4456 -3935.173 6964.1179 C -3938.729 6961.7901 -3942.7632 6960.6437 -3947.2632 6960.6437 z M -3098.8238 6960.6437 C -3103.4775 6960.6437 -3107.5509 6961.7901 -3111.107 6964.1179 C -3114.685 6966.4456 -3117.6157 6969.723 -3119.7888 6973.9612 C -3121.7644 6978.2214 -3122.7471 6983.1586 -3122.7471 6988.7584 C -3122.7471 6994.3801 -3121.7644 6999.3173 -3119.7888 7003.5556 C -3117.5937 7007.7938 -3114.6631 7011.0712 -3111.107 7013.3989 C -3107.5509 7015.7267 -3103.4775 7016.9374 -3098.8238 7016.9374 C -3094.3239 7016.9374 -3090.3116 7015.7267 -3086.7336 7013.3989 C -3083.0458 7010.9394 -3080.1575 7007.6008 -3078.1161 7003.3626 C -3076.1405 6999.1243 -3075.1578 6994.2484 -3075.1578 6988.7584 C -3075.1578 6983.1586 -3076.1405 6978.2214 -3078.1161 6973.9612 C -3080.0917 6969.723 -3082.98 6966.4456 -3086.7336 6964.1179 C -3090.3116 6961.7901 -3094.3239 6960.6437 -3098.8238 6960.6437 z M -4250.1624 6960.7724 C -4253.5868 6960.7724 -4256.8016 6961.487 -4259.8089 6963.0242 C -4262.8162 6964.5614 -4265.3953 6966.7536 -4267.5904 6969.5864 C -4269.566 6972.3314 -4271.2252 6975.425 -4272.5422 6978.8507 C -4273.6398 6982.2765 -4274.2143 6985.8412 -4274.2143 6989.5304 C -4274.2143 6993.5052 -4273.5377 6997.1311 -4272.2207 7000.4031 C -4270.9036 7003.6971 -4269.0607 7006.6682 -4266.69 7009.2815 C -4264.3632 7011.741 -4261.6617 7013.6458 -4258.5227 7015.0073 C -4255.3617 7016.3249 -4251.9821 7017.0017 -4248.426 7017.0017 L -4248.4904 7016.9374 C -4245.9001 7016.9374 -4243.5471 7016.5668 -4241.352 7015.908 C -4239.0252 7015.0296 -4236.895 7014.0466 -4234.9853 7012.9486 C -4233.0097 7011.631 -4231.2281 7010.0324 -4229.6476 7008.1877 C -4227.8915 7006.2114 -4226.5808 7004.206 -4225.7247 7002.0759 L -4225.7247 6979.4941 C -4227.0417 6975.6511 -4229.0494 6972.3314 -4231.7055 6969.5864 C -4234.2957 6966.7096 -4237.1621 6964.5174 -4240.323 6963.0242 C -4243.462 6961.487 -4246.738 6960.7724 -4250.1624 6960.7724 z M -3957.7457 7187.105 C -3945.1088 7186.5749 -3932.4671 7188.2301 -3920.7032 7192.3805 L -3920.9605 7192.1232 C -3905.8801 7197.4265 -3893.3942 7208.7084 -3882.8248 7223.0043 C -3764.3797 7196.355 -3634.5197 7226.0208 -3439.9231 7326.3916 C -3427.0294 7330.8447 -3416.667 7335.6544 -3407.6396 7342.9902 C -3397.9921 7350.7969 -3390.7801 7362.9352 -3388.4752 7373.8713 C -3384.1948 7395.7762 -3390.1473 7406.9881 -3390.1473 7418.6488 C -3390.1473 7467.7292 -3403.6076 7515.5846 -3434.3281 7550.6655 C -3448.7909 7567.1987 -3467.4099 7580.1893 -3489.0558 7588.3018 A 28.810796 28.822345 0 0 1 -3490.1491 7592.7409 C -3502.6282 7630.1935 -3536.449 7650.4309 -3569.5074 7662.2234 C -3597.7913 7672.3359 -3626.2744 7675.003 -3651.7596 7675.9912 C -3714.1885 7719.2741 -3762.2434 7814.0899 -3781.4725 7904.5756 C -3791.1529 7950.3948 -3793.9486 7994.6974 -3789.8328 8028.1642 C -3785.9804 8059.7535 -3775.2581 8076.6599 -3767.3887 8082.7208 C -3727.1852 8082.8526 -3692.6679 8088.4909 -3666.2936 8105.8173 C -3636.5938 8125.3506 -3620.3764 8159.8844 -3620.3764 8197.2382 A 28.813677 28.825228 0 0 1 -3649.7017 8226.0605 L -3863.7248 8221.8144 A 28.813677 28.825228 0 0 1 -3888.0982 8207.4675 C -3946.0074 8107.6832 -3986.2978 8051.0365 -4009.3222 7994.1307 C -4050.2482 8024.8112 -4093.2004 8050.9228 -4136.4627 8071.5908 C -4127.2092 8073.8697 -4118.6174 8076.6712 -4110.803 8080.1474 C -4065.2655 8100.4054 -4041.6602 8141.381 -4032.4737 8187.2661 A 28.813677 28.825228 0 0 1 -4059.8054 8221.75 C -4059.8054 8221.75 -4183.6357 8225.8675 -4313.8934 8225.8675 C -4379.0223 8225.8675 -4445.743 8224.6503 -4500.006 8221.6857 C -4527.1376 8220.1046 -4551.0896 8218.088 -4570.7468 8215.1235 C -4587.5579 8212.6163 -4600.0819 8211.3612 -4613.2556 8204.4438 C -4635.3391 8202.8354 -4648.3883 8205.929 -4671.0701 8210.4913 C -4695.7651 8215.4323 -4729.4768 8221.6214 -4785.1557 8221.6214 L -4815.3813 8221.6214 A 28.810796 28.822345 0 0 1 -4820.4618 8221.6214 L -4980.0145 8221.6214 A 28.810796 28.822345 0 0 1 -4981.7508 8221.6214 A 28.810796 28.822345 0 0 1 -4984.3232 8221.6214 L -4985.0306 8221.6214 C -4985.4863 8221.532 -4985.8722 8221.475 -4986.2525 8221.4283 C -4986.6328 8221.3817 -4986.9865 8221.3173 -4987.3458 8221.2997 C -4987.9513 8221.2699 -4988.5865 8221.2997 -4989.3394 8221.2997 C -4992.3357 8220.9703 -4996.1454 8220.3501 -5000.7222 8219.6913 C -5009.81 8218.1431 -5021.9167 8215.5409 -5035.4495 8211.4563 C -5061.8682 8203.5244 -5094.1683 8190.7165 -5117.8947 8164.1697 A 28.810796 28.822345 0 0 1 -5118.1519 8163.9123 A 28.810796 28.822345 0 0 1 -5118.795 8163.2046 C -5119.1076 8162.8471 -5119.4502 8162.5378 -5119.7597 8162.1753 C -5119.9669 8161.9322 -5120.1369 8161.7094 -5120.3385 8161.4676 A 28.810796 28.822345 0 0 1 -5120.7886 8160.8242 C -5131.312 8147.9496 -5134.1807 8136.5814 -5138.7311 8119.3278 C -5143.3079 8101.5073 -5146.9859 8079.7902 -5145.9981 8056.6006 C -5145.142 8033.4109 -5139.9617 8008.3638 -5125.8691 7985.7671 C -5111.8095 7963.1374 -5088.2468 7944.1054 -5056.7361 7934.6846 C -5011.2644 7921.0146 -4999.6084 7916.9923 -4900.3346 7916.9923 C -4868.0665 7916.9923 -4834.1933 7926.8846 -4806.6995 7935.7783 C -4846.442 7768.1476 -4811.3149 7614.877 -4714.5436 7503.5075 C -4607.6967 7380.5102 -4433.5668 7307.6056 -4225.3388 7307.6056 C -4192.4122 7307.6056 -4143.9082 7307.4167 -4106.1084 7301.7511 C -4087.1756 7298.9182 -4070.967 7294.39 -4062.5707 7290.042 C -4059.7602 7288.5973 -4058.1836 7287.7482 -4057.2973 7287.2755 C -4067.7854 7232.3506 -4012.5057 7189.4022 -3957.7457 7187.105 z M -3951.6363 7240.6966 C -3976.0007 7240.4108 -4002.8732 7270.483 -4000.3831 7278.5902 A 28.813677 28.825228 0 0 1 -3999.0326 7287.0182 C -3999.0326 7312.1842 -4017.7334 7331.6362 -4036.1394 7341.1888 C -4054.5124 7350.7413 -4075.3611 7355.4255 -4097.6195 7358.7524 C -4130.491 7363.5719 -4166.5767 7364.8001 -4196.4637 7365.1216 L -4196.4637 7489.2893 L -4114.2758 7571.4459 C -4102.9903 7565.9987 -4090.3704 7562.9536 -4077.1047 7562.9536 C -4029.6904 7562.9536 -3990.6723 7601.9873 -3990.6723 7649.4206 C -3990.6723 7696.821 -4029.6904 7735.8876 -4077.1047 7735.8876 C -4124.4861 7735.8876 -4163.5371 7696.821 -4163.5371 7649.4206 C -4163.5371 7636.131 -4160.5034 7623.4675 -4155.0482 7612.1703 L -4245.5964 7521.5858 A 28.813677 28.825228 0 0 1 -4254.0853 7501.1914 L -4254.0853 7365.765 C -4435.6159 7372.1103 -4581.9777 7438.6493 -4671.1987 7541.3368 C -4764.7444 7649.0016 -4798.076 7796.4428 -4741.8752 7967.8818 C -4741.678 7968.4834 -4741.4959 7969.081 -4741.2964 7969.6832 A 28.810796 28.822345 0 0 1 -4740.0102 7982.2286 L -4740.0102 7982.293 A 28.810796 28.822345 0 0 1 -4746.8271 7997.7978 L -4746.8914 7997.8622 A 28.810796 28.822345 0 0 1 -4746.9557 7997.9265 A 28.810796 28.822345 0 0 1 -4748.1776 7999.2132 L -4859.4979 8110.5781 L -4806.1207 8163.9767 L -4785.1557 8163.9767 C -4733.5268 8163.9767 -4706.458 8158.8468 -4682.3887 8154.0046 C -4666.6113 8150.7487 -4651.0482 8147.5713 -4632.7415 8146.7347 L -4632.7415 8044.6985 A 28.813677 28.825228 0 0 1 -4624.2526 8024.3041 L -4566.5667 7966.5951 C -4572.0126 7955.3068 -4575.0556 7942.6775 -4575.0556 7929.4091 C -4575.0556 7881.9757 -4536.0046 7842.9421 -4488.6232 7842.9421 C -4441.2089 7842.9421 -4402.1908 7881.9757 -4402.1908 7929.4091 C -4402.1908 7976.8095 -4441.2089 8015.8761 -4488.6232 8015.8761 C -4501.9016 8015.8761 -4514.5005 8012.7795 -4525.7943 8007.3195 L -4575.1199 8056.6649 L -4575.1199 8155.4844 C -4571.3409 8156.4216 -4566.9684 8157.3844 -4562.2579 8158.1221 C -4545.4653 8160.6256 -4522.7727 8162.5227 -4496.6619 8164.1697 C -4444.4403 8167.2331 -4378.4296 8168.2228 -4313.8934 8168.2228 C -4204.8734 8168.2228 -4130.6995 8165.7369 -4100.835 8164.7487 C -4107.8155 8151.0457 -4117.2217 8140.3815 -4134.2118 8132.8382 C -4162.6206 8120.218 -4215.9582 8114.7723 -4303.7968 8122.6732 C -4304.2253 8122.7118 -4304.6528 8122.7627 -4305.083 8122.8019 A 28.810796 28.822345 0 0 1 -4305.5975 8122.8019 A 28.810796 28.822345 0 0 1 -4308.7486 8122.8662 A 28.813677 28.825228 0 0 1 -4310.5493 8122.7375 A 28.810796 28.822345 0 0 1 -4312.0284 8122.5445 A 28.813677 28.825228 0 0 1 -4314.9867 8121.9012 A 28.810796 28.822345 0 0 1 -4315.6941 8121.7082 A 28.813677 28.825228 0 0 1 -4318.0093 8120.9362 A 28.810796 28.822345 0 0 1 -4319.9386 8120.0998 A 28.813677 28.825228 0 0 1 -4321.6106 8119.2634 A 28.810796 28.822345 0 0 1 -4322.8968 8118.4914 A 28.813677 28.825228 0 0 1 -4325.3406 8116.8187 A 28.810796 28.822345 0 0 1 -4325.4692 8116.69 A 28.813677 28.825228 0 0 1 -4328.2345 8114.2453 A 28.813677 28.825228 0 0 1 -4334.2153 8105.3669 C -4337.7056 8097.1979 -4340.6463 8089.3716 -4340.6463 8078.732 C -4340.6463 8068.0924 -4334.5888 8054.8326 -4326.884 8047.9153 C -4314.5036 8036.8475 -4303.8174 8035.6323 -4291.9638 8032.6677 C -4275.3358 8019.1295 -4257.3209 7989.0873 -4248.2331 7951.7335 C -4238.9149 7913.9186 -4238.1092 7869.8621 -4248.8762 7831.619 C -4259.6103 7793.3759 -4280.7044 7761.3239 -4316.5944 7741.0988 C -4352.4845 7720.8738 -4405.4202 7711.559 -4483.0282 7727.0737 A 28.810796 28.822345 0 0 1 -4516.9195 7704.4919 A 28.810796 28.822345 0 0 1 -4494.2825 7670.587 C -4450.8322 7661.8737 -4412.0812 7659.8482 -4377.8174 7663.5101 L -4377.6245 7663.5101 C -4343.3971 7667.2469 -4313.6979 7676.6811 -4288.4911 7690.9171 C -4237.9487 7719.41 -4207.4664 7766.3765 -4193.5055 7816.0498 C -4179.5117 7865.723 -4180.8267 7918.5652 -4192.2193 7965.3727 C -4199.8252 7996.6744 -4212.8503 8024.1671 -4230.0977 8046.9502 C -4163.445 8025.0628 -4092.2799 7986.6317 -4027.6505 7935.521 C -4031.8236 7921.0313 -4037.0352 7903.1891 -4040.834 7884.8889 C -4046.3656 7858.2405 -4051.1307 7829.3817 -4037.104 7801.3169 A 28.810796 28.822345 0 0 1 -3998.4538 7788.4498 A 28.810796 28.822345 0 0 1 -3985.5918 7827.0512 C -3987.8967 7831.9263 -3988.9154 7851.1101 -3984.3056 7873.1798 C -3979.8335 7894.7126 -3972.1224 7917.9668 -3967.1349 7937.5797 C -3967.0182 7938.0387 -3966.9271 7938.4758 -3966.8134 7938.9308 C -3966.7268 7939.2767 -3966.6448 7939.6784 -3966.5561 7940.0245 C -3952.4552 7995.0725 -3912.455 8052.05 -3846.4897 8164.4913 L -3691.5031 8167.4508 C -3694.3677 8163.9592 -3693.296 8156.9049 -3697.7411 8153.9403 C -3711.9325 8144.6183 -3739.1705 8138.0829 -3779.7361 8139.4005 A 28.813677 28.825228 0 0 1 -3795.5564 8135.283 C -3828.7135 8115.3544 -3841.7061 8077.3084 -3846.8756 8035.1125 C -3852.0121 7992.8836 -3848.5764 7943.4698 -3837.7436 7892.5448 C -3816.0779 7790.6619 -3765.9934 7681.8164 -3681.4707 7625.4234 A 28.813677 28.825228 0 0 1 -3665.5219 7620.5983 C -3644.0208 7620.5983 -3613.2663 7616.6218 -3588.736 7607.8598 C -3579.3681 7604.5182 -3571.3453 7600.5799 -3564.7484 7596.3437 C -3567.0795 7596.047 -3569.3994 7595.7072 -3571.7582 7595.3144 A 28.810796 28.822345 0 0 1 -3595.5528 7562.1172 A 28.810796 28.822345 0 0 1 -3562.3047 7538.4417 C -3520.9159 7545.3591 -3496.3423 7534.0525 -3477.673 7512.7075 C -3461.2574 7493.9682 -3450.6198 7464.983 -3448.2834 7432.288 C -3464.1073 7424.3596 -3468.5918 7404.9564 -3461.8527 7379.7258 A 28.813677 28.825228 0 0 1 -3464.8753 7378.5034 C -3666.6826 7274.2159 -3782.2658 7251.4694 -3888.3554 7281.807 A 28.813677 28.825228 0 0 1 -3922.9541 7264.8224 C -3929.9819 7247.2511 -3940.5615 7240.8265 -3951.6363 7240.6966 z M -3698.4485 7344.8559 A 41.068633 41.085096 0 0 1 -3657.3546 7385.902 A 41.068633 41.085096 0 0 1 -3698.4485 7427.0125 A 41.068633 41.085096 0 0 1 -3739.4782 7385.902 A 41.068633 41.085096 0 0 1 -3698.4485 7344.8559 z M -5468.1902 7357.0797 C -5484.4231 7357.0797 -5497.001 7369.6297 -5497.001 7385.902 C -5497.001 7402.1413 -5484.4231 7414.7244 -5468.1902 7414.7244 C -5451.9245 7414.7244 -5439.3795 7402.1413 -5439.3795 7385.902 C -5439.3795 7369.6297 -5451.9245 7357.0797 -5468.1902 7357.0797 z M -3064.4824 7357.0797 C -3080.7152 7357.0797 -3093.2932 7369.6297 -3093.2932 7385.902 C -3093.2932 7402.1413 -3080.7152 7414.7244 -3064.4824 7414.7244 C -3048.2167 7414.7244 -3035.6716 7402.1413 -3035.6716 7385.902 C -3035.6716 7369.6297 -3048.2167 7357.0797 -3064.4824 7357.0797 z M -5352.9471 7604.1283 C -5369.1799 7604.1283 -5381.7579 7616.6784 -5381.7579 7632.9507 C -5381.7579 7649.19 -5369.1799 7661.773 -5352.9471 7661.773 C -5336.6813 7661.773 -5324.1363 7649.19 -5324.1363 7632.9507 C -5324.1363 7616.6784 -5336.6813 7604.1283 -5352.9471 7604.1283 z M -3179.7256 7604.1283 C -3195.9584 7604.1283 -3208.5364 7616.6784 -3208.5364 7632.9507 C -3208.5364 7649.19 -3195.9584 7661.773 -3179.7256 7661.773 C -3163.4598 7661.773 -3150.9148 7649.19 -3150.9148 7632.9507 C -3150.9148 7616.6784 -3163.4598 7604.1283 -3179.7256 7604.1283 z M -4077.1047 7620.5983 C -4093.3375 7620.5983 -4105.9155 7633.1483 -4105.9155 7649.4206 C -4105.9155 7665.6599 -4093.3375 7678.2429 -4077.1047 7678.2429 C -4060.839 7678.2429 -4048.2939 7665.6599 -4048.2939 7649.4206 C -4048.2939 7633.1483 -4060.839 7620.5983 -4077.1047 7620.5983 z M -5468.1902 7851.177 C -5484.4231 7851.177 -5497.001 7863.7271 -5497.001 7879.9994 C -5497.001 7896.2387 -5484.4231 7908.8217 -5468.1902 7908.8217 C -5451.9245 7908.8217 -5439.3795 7896.2387 -5439.3795 7879.9994 C -5439.3795 7863.7271 -5451.9245 7851.177 -5468.1902 7851.177 z M -3064.4824 7851.177 C -3080.7152 7851.177 -3093.2932 7863.7271 -3093.2932 7879.9994 C -3093.2932 7896.2387 -3080.7152 7908.8217 -3064.4824 7908.8217 C -3048.2167 7908.8217 -3035.6716 7896.2387 -3035.6716 7879.9994 C -3035.6716 7863.7271 -3048.2167 7851.177 -3064.4824 7851.177 z M -4488.6232 7900.5867 C -4504.856 7900.5867 -4517.434 7913.1368 -4517.434 7929.4091 C -4517.434 7945.6484 -4504.856 7958.2314 -4488.6232 7958.2314 C -4472.3574 7958.2314 -4459.8124 7945.6484 -4459.8124 7929.4091 C -4459.8124 7913.1368 -4472.3574 7900.5867 -4488.6232 7900.5867 z M -4889.0804 7975.4734 L -4941.8144 8028.2286 L -4900.206 8069.7894 L -4821.9409 7991.4929 C -4822.4418 7991.3296 -4822.9147 7991.142 -4823.4201 7990.9783 C -4844.3912 7984.1843 -4869.8904 7977.5818 -4889.0804 7975.4734 z M -4970.7539 7975.6664 C -4979.4739 7976.0809 -4986.3553 7976.6711 -4992.4906 7977.5321 L -4982.5225 7987.4398 L -4970.7539 7975.6664 z M -5055.3856 7996.1251 C -5065.5057 8001.5086 -5071.9236 8008.3187 -5076.9294 8016.3265 C -5084.0744 8027.7895 -5087.718 8042.8106 -5088.3765 8058.8523 C -5088.7765 8069.7013 -5087.7497 8080.8376 -5085.997 8090.9558 L -5023.295 8028.2286 L -5055.3856 7996.1251 z M -4982.5225 8069.0173 L -5054.6782 8141.1375 C -5043.7504 8147.4037 -5030.9276 8152.7699 -5018.8576 8156.3851 C -5009.0358 8159.3417 -4999.8816 8161.3036 -4993.005 8162.6256 L -4940.9784 8110.5781 L -4982.5225 8069.0173 z M -4900.206 8151.3669 L -4912.875 8163.9767 L -4887.6013 8163.9767 L -4900.206 8151.3669 z "
       transform="matrix(0.03037056,0,0,0.03035839,30536.646,15513.62)" />
    <path
       style="baseline-shift:baseline;display:inline;overflow:visible;vector-effect:none;fill:#000000;stroke-linecap:round;stroke-linejoin:round;enable-background:accumulate;stop-color:#000000;fill-opacity:1"
       d="m 30387.823,15754.844 -6,6"
       id="path2" />
  </g>
</svg>
